<?xml version="1.0" encoding="UTF-8" standalone="no"?>
<!-- Created with Inkscape (http://www.inkscape.org/) -->

<svg
   xmlns:dc="http://purl.org/dc/elements/1.1/"
   xmlns:cc="http://creativecommons.org/ns#"
   xmlns:rdf="http://www.w3.org/1999/02/22-rdf-syntax-ns#"
   xmlns:svg="http://www.w3.org/2000/svg"
   xmlns="http://www.w3.org/2000/svg"
   xmlns:sodipodi="http://sodipodi.sourceforge.net/DTD/sodipodi-0.dtd"
   xmlns:inkscape="http://www.inkscape.org/namespaces/inkscape"
   version="1.1"
   id="svg10"
   width="1023"
   height="652"
   viewBox="0 0 1023 652"
   sodipodi:docname="1.1.svg"
   inkscape:version="0.92.3 (2405546, 2018-03-11)">
  <metadata
     id="metadata16">
    <rdf:RDF>
      <cc:Work
         rdf:about="">
        <dc:format>image/svg+xml</dc:format>
        <dc:type
           rdf:resource="http://purl.org/dc/dcmitype/StillImage" />
        <dc:title></dc:title>
      </cc:Work>
    </rdf:RDF>
  </metadata>
  <defs
     id="defs14" />
  <sodipodi:namedview
     pagecolor="#ffffff"
     bordercolor="#666666"
     borderopacity="1"
     objecttolerance="10"
     gridtolerance="10"
     guidetolerance="10"
     inkscape:pageopacity="0"
     inkscape:pageshadow="2"
     inkscape:window-width="1366"
     inkscape:window-height="715"
     id="namedview12"
     showgrid="false"
     inkscape:zoom="1.3159509"
     inkscape:cx="508.85684"
     inkscape:cy="204.41492"
     inkscape:window-x="-8"
     inkscape:window-y="-8"
     inkscape:window-maximized="1"
     inkscape:current-layer="svg10" />
  <g
     id="g46"
     transform="translate(-4.5594406,6.0792541)">
    <path
       style="fill:#b9b9b9;fill-opacity:1"
       d="M 85.25,591.26101 91,590.90019 V 585.4501 580 h 5.5 5.5 v -5.5 -5.5 h 5.5 5.5 v -5.5 -5.5 h 5.5 5.5 v -5.5 -5.5 h 5.5 5.5 v -5.5 -5.5 h 5.5 5.5 v -5.5 -5.5 h 5.5 5.5 v -5.5 -5.5 h 5.5 5.5 v -5.5 -5.5 h 5.5 5.5 v -5.5 -5.5 h 5.5 5.5 v -5.5 -5.5 h 5.5 5.5 v -5.5 -5.5 h 5.5 5.5 v -5.5 -5.5 h 5.5 5.5 v -5.5 -5.5 h 5.5 5.5 v -5.5 -5.5 h 5.5 5.5 v -5.5 -5.5 h 5.5 5.5 v -5.5 -5.5 h 5.5 5.5 v -5.5 -5.5 h 5.5 5.5 v -5.5 -5.5 h 5.5 5.5 v -5.5 -5.5 h 5.5 5.5 v -5.5 -5.5 h 5.5 5.5 v -5.5 -5.5 h 5.5 5.5 v -5.5 -5.5 h 5.5 5.5 v -5.5 -5.5 h 5.5 5.5 v -5.5 -5.5 h 5.5 5.5 v -5.5 -5.5 h 5.5 5.5 v -5.5 -5.5 h 5.5 5.5 v -5.5 -5.5 h 5.5 5.5 v -5.5 -5.5 h 5.5 5.5 v -5.5 -5.5 h 5.5 5.5 v -5.5 -5.5 h 5.5 5.5 v -5.5 -5.5 h 5.5 5.5 v -5.5 -5.5 h 5.5 5.5 v -5.5 -5.5 h 5.5 5.5 v -5.5 -5.5 h 5.5 5.5 v -5.5 -5.5 h 5.5 5.5 v -5.5 -5.5 h 5.5 5.5 v -5.5 -5.5 h 5.5 5.5 v -5.5 -5.5 h 5.5 5.5 v -5.5 -5.5 h 5.5 5.5 v -5.5 -5.5 h 6 6 v 5.5 5.5 h 5.5 5.5 v 5.5 5.5 h 5.5 5.5 v 5.5 5.5 h 5.5 5.5 v 5.5 5.5 h 5.5 5.5 v 5.5 5.5 h 5.5 5.5 v 5.5 5.5 h 5.5 5.5 v 5.5 5.5 h 5.5 5.5 v 5.5 5.5 h 5.5 5.5 v 5.5 5.5 h 5.5 5.5 v 5.5 5.5 h 5.5 5.5 v 5.5 5.5 h 5.5 5.5 v 5.5 5.5 h 5.5 5.5 v 5.5 5.5 h 5.5 5.5 v 5.5 5.5 h 5.5 5.5 v 5.5 5.5 h 5.5 5.5 v 5.5 5.5 h 5.5 5.5 v 5.5 5.5 h 5.5 5.5 v 5.5 5.5 h 5.5 5.5 v 5.5 5.5 h 5.5 5.5 v 5.5 5.5 h 5.5 5.5 v 5.5 5.5 h 5.5 5.5 v 5.5 5.5 h 5.5 5.5 v 5.5 5.5 h 5.5 5.5 v 5.5 5.5 h 5.5 5.5 v 5.5 5.5 h 5.5 5.5 v 5.5 5.5 h 5.5 5.5 v 5.5 5.5 h 5.5 5.5 v 5.5 5.5 h 5.5 5.5 v 5.5 5.5 h 5.5 5.5 v 5.5 5.5 h 5.5 5.5 v 5.5 5.5 h 5.5 5.5 v 5.5 5.5 h 5.5 5.5 v 5.5 5.5 h 5.5 5.5 v 5.5 5.5 h 5.5 5.5 v 5.5 5.5 h 5.5 5.5 v 5.5 5.5 h 5.5 5.5 v 5.5 5.5 h 5.5 5.5 v 5.5 5.5 h 5.5 5.5 v 5.5 5.5 h 5.5 5.5 v 5.4501 5.45009 l 5.75,0.36082 5.75,0.36082 -6.25,0.18909 L 960,592 v -5.5 -5.5 h -5 -5 v 5.5 5.5 h -6 -6 v -6 -6 h 5.5 5.5 v -5 -5 h -5.5 -5.5 v -5.5 -5.5 h -5.5 -5.5 v -5.5 -5.5 h -5 -5 v 5.5 5.5 h -5.5 -5.5 v 5.5 5.5 h -5.5 -5.5 v 5 5 h 5.5 5.5 v 6 6 h -6 -6 v -5.5 -5.5 h -5 -5 v 5.5 5.5 h -6 -6 v -6 -6 h 5.5 5.5 v -5 -5 h -5.5 -5.5 v -6 -6 h 6 6 v 5.5 5.5 h 5 5 v -5.5 -5.5 h 5.5 5.5 v -5.5 -5.5 h 5.5 5.5 v -5 -5 h -5.5 -5.5 v -5.5 -5.5 h -5.5 -5.5 v -5.5 -5.5 h -5 -5 v 5.5 5.5 h -6 -6 v -6 -6 h 5.5 5.5 v -5 -5 h -5.5 -5.5 v -5.5 -5.5 h -5.5 -5.5 v -5.5 -5.5 h -5 -5 v 5.5 5.5 h -6 -6 v -6 -6 h 5.5 5.5 v -5 -5 h -5.5 -5.5 v -5.5 -5.5 h -5.5 -5.5 v -5.5 -5.5 h -5 -5 v 5.5 5.5 h -5.5 -5.5 v 5.5 5.5 h -5.5 -5.5 v 5 5 h 5.5 5.5 v 6 6 h -6 -6 v -5.5 -5.5 h -5 -5 v 5.5 5.5 h -5.5 -5.5 v 5.5 5.5 h -5.5 -5.5 v 5 5 h 5.5 5.5 v 6 6 h -6 -6 v -5.5 -5.5 h -5 -5 v 5.5 5.5 h -5.5 -5.5 v 5.5 5.5 h -5.5 -5.5 v 5 5 h 5.5 5.5 v 5.5 5.5 h 5.5 5.5 v 5.5 5.5 h 5 5 v -5.5 -5.5 h 6 6 v 6 6 h -5.5 -5.5 v 5 5 h 5.5 5.5 v 6 6 h -6 -6 v -5.5 -5.5 h -5 -5 v 5.5 5.5 h -6 -6 v -6 -6 h 5.5 5.5 v -5 -5 h -5.5 -5.5 v -5.5 -5.5 h -5.5 -5.5 v -5.5 -5.5 h -5 -5 v 5.5 5.5 h -5.5 -5.5 v 5.5 5.5 h -5.5 -5.5 v 5 5 h 5.5 5.5 v 6 6 h -6 -6 v -5.5 -5.5 h -5 -5 v 5.5 5.5 h -6 -6 v -6 -6 h 5.5 5.5 v -5 -5 h -5.5 -5.5 v -6 -6 h 6 6 v 5.5 5.5 h 5 5 v -5.5 -5.5 h 5.5 5.5 v -5.5 -5.5 h 5.5 5.5 v -5 -5 h -5.5 -5.5 v -5.5 -5.5 h -5.5 -5.5 v -5.5 -5.5 h -5 -5 v 5.5 5.5 h -6 -6 v -6 -6 h 5.5 5.5 v -5 -5 h -5.5 -5.5 v -6 -6 h 6 6 v 5.5 5.5 h 5 5 v -5.5 -5.5 h 6 6 v 6 6 h -5.5 -5.5 v 5 5 h 5.5 5.5 v 5.5 5.5 h 5.5 5.5 v 5.5 5.5 h 5 5 v -5.5 -5.5 h 5.5 5.5 v -5.5 -5.5 h 5.5 5.5 v -5 -5 h -5.5 -5.5 v -6 -6 h 6 6 v 5.5 5.5 h 5 5 v -5.5 -5.5 h 5.5 5.5 v -5.5 -5.5 h 5.5 5.5 v -5 -5 h -5.5 -5.5 v -6 -6 h 6 6 v 5.5 5.5 h 5 5 v -5.5 -5.5 h 5.5 5.5 v -5.5 -5.5 h 5.5 5.5 v -5 -5 h -5.5 -5.5 v -5.5 -5.5 h -5.5 -5.5 v -5.5 -5.5 h -5 -5 v 5.5 5.5 h -6 -6 v -6 -6 h 5.5 5.5 v -5 -5 h -5.5 -5.5 v -5.5 -5.5 h -5.5 -5.5 v -5.5 -5.5 h -5 -5 v 5.5 5.5 h -6 -6 v -6 -6 h 5.5 5.5 v -5 -5 h -5.5 -5.5 v -5.5 -5.5 h -5.5 -5.5 v -5.5 -5.5 h -5 -5 v 5.5 5.5 h -5.5 -5.5 v 5.5 5.5 h -5.5 -5.5 v 5 5 h 5.5 5.5 v 6 6 h -6 -6 v -5.5 -5.5 h -5 -5 v 5.5 5.5 h -6 -6 v -6 -6 h 5.5 5.5 v -5 -5 h -5.5 -5.5 v -6 -6 h 6 6 v 5.5 5.5 h 5 5 v -5.5 -5.5 h 5.5 5.5 v -5.5 -5.5 h 5.5 5.5 v -5 -5 h -5.5 -5.5 v -5.5 -5.5 h -5.5 -5.5 v -5.5 -5.5 h -5 -5 v 5.5 5.5 h -6 -6 v -6 -6 h 5.5 5.5 v -5 -5 h -5.5 -5.5 v -5.5 -5.5 h -5.5 -5.5 v -5.5 -5.5 h -5 -5 v 5.5 5.5 h -6 -6 v -6 -6 h 5.5 5.5 v -5 -5 h -5.5 -5.5 v -5.5 -5.5 h -5.5 -5.5 v -5.5 -5.5 h -5 -5 v 5.5 5.5 h -5.5 -5.5 v 5.5 5.5 h -5.5 -5.5 v 5 5 h 5.5 5.5 v 6 6 h -6 -6 v -5.5 -5.5 h -5 -5 v 5.5 5.5 h -6 -6 v -6 -6 h 5.5 5.5 v -5 -5 h -5.5 -5.5 v -6 -6 h 6 6 v 5.5 5.5 h 5 5 v -5.5 -5.5 h 5.5 5.5 v -5.5 -5.5 h 5.5 5.5 v -5 -5 h -5.5 -5.5 v -5.5 -5.5 h -5.5 -5.5 v -5.5 -5.5 h -5 -5 v 5.5 5.5 h -6 -6 v -6 -6 h 5.5 5.5 v -5 -5 h -5.5 -5.5 v -5.5 -5.5 h -5.5 -5.5 v -5.5 -5.5 h -5 -5 v 5.5 5.5 h -6 -6 v -6 -6 h 5.5 5.5 v -5 -5 h -5.5 -5.5 v -5.5 -5.5 h -5.5 -5.5 v -5.5 -5.5 h -5 -5 v 5.5 5.5 h -5.5 -5.5 v 5.5 5.5 h -5.5 -5.5 v 5 5 h 5.5 5.5 v 6 6 h -6 -6 v -5.5 -5.5 h -5 -5 v 5.5 5.5 h -5.5 -5.5 v 5.5 5.5 h -5.5 -5.5 v 5 5 h 5.5 5.5 v 6 6 h -6 -6 v -5.5 -5.5 h -5 -5 v 5.5 5.5 h -5.5 -5.5 v 5.5 5.5 h -5.5 -5.5 v 5 5 h 5.5 5.5 v 5.5 5.5 h 5.5 5.5 v 5.5 5.5 h 5 5 v -5.5 -5.5 h 6 6 v 6 6 h -5.5 -5.5 v 5 5 h 5.5 5.5 v 6 6 h -6 -6 v -5.5 -5.5 h -5 -5 v 5.5 5.5 h -6 -6 v -6 -6 h 5.5 5.5 v -5 -5 h -5.5 -5.5 v -5.5 -5.5 h -5.5 -5.5 v -5.5 -5.5 h -5 -5 v 5.5 5.5 h -5.5 -5.5 v 5.5 5.5 h -5.5 -5.5 v 5 5 h 5.5 5.5 v 6 6 h -6 -6 v -5.5 -5.5 h -5 -5 v 5.5 5.5 h -5.5 -5.5 v 5.5 5.5 h -5.5 -5.5 v 5 5 h 5.5 5.5 v 6 6 h -6 -6 v -5.5 -5.5 h -5 -5 v 5.5 5.5 h -5.5 -5.5 v 5.5 5.5 h -5.5 -5.5 v 5 5 h 5.5 5.5 v 5.5 5.5 h 5.5 5.5 v 5.5 5.5 h 5 5 v -5.5 -5.5 h 6 6 v 6 6 h -5.5 -5.5 v 5 5 h 5.5 5.5 v 6 6 h -6 -6 v -5.5 -5.5 h -5 -5 v 5.5 5.5 h -6 -6 v -6 -6 h 5.5 5.5 v -5 -5 h -5.5 -5.5 v -5.5 -5.5 h -5.5 -5.5 v -5.5 -5.5 h -5 -5 v 5.5 5.5 h -5.5 -5.5 v 5.5 5.5 h -5.5 -5.5 v 5 5 h 5.5 5.5 v 6 6 h -6 -6 v -5.5 -5.5 h -5 -5 v 5.5 5.5 h -5.5 -5.5 v 5.5 5.5 h -5.5 -5.5 v 5 5 h 5.5 5.5 v 6 6 h -6 -6 v -5.5 -5.5 h -5 -5 v 5.5 5.5 h -5.5 -5.5 v 5.5 5.5 h -5.5 -5.5 v 5 5 h 5.5 5.5 v 5.5 5.5 h 5.5 5.5 v 5.5 5.5 h 5 5 v -5.5 -5.5 h 6 6 v 6 6 h -5.5 -5.5 v 5 5 h 5.5 5.5 v 5.5 5.5 h 5.5 5.5 v 5.5 5.5 h 5 5 v -5.5 -5.5 h 6 6 v 6 6 h -5.5 -5.5 v 5 5 h 5.5 5.5 v 5.5 5.5 h 5.5 5.5 v 5.5 5.5 h 5 5 v -5.5 -5.5 h 5.5 5.5 v -5.5 -5.5 h 5.5 5.5 v -5 -5 h -5.5 -5.5 v -6 -6 h 6 6 v 5.5 5.5 h 5 5 v -5.5 -5.5 h 6 6 v 6 6 h -5.5 -5.5 v 5 5 h 5.5 5.5 v 6 6 h -6 -6 v -5.5 -5.5 h -5 -5 v 5.5 5.5 h -5.5 -5.5 v 5.5 5.5 h -5.5 -5.5 v 5 5 h 5.5 5.5 v 5.5 5.5 h 5.5 5.5 v 5.5 5.5 h 5 5 v -5.5 -5.5 h 6 6 v 6 6 h -5.5 -5.5 v 5 5 h 5.5 5.5 v 6 6 h -6 -6 v -5.5 -5.5 h -5 -5 v 5.5 5.5 h -6 -6 v -6 -6 h 5.5 5.5 v -5 -5 h -5.5 -5.5 v -5.5 -5.5 h -5.5 -5.5 v -5.5 -5.5 h -5 -5 v 5.5 5.5 h -5.5 -5.5 v 5.5 5.5 h -5.5 -5.5 v 5 5 h 5.5 5.5 v 6 6 h -6 -6 v -5.5 -5.5 h -5 -5 v 5.5 5.5 h -6 -6 v -6 -6 h 5.5 5.5 v -5 -5 h -5.5 -5.5 v -6 -6 h 6 6 v 5.5 5.5 h 5 5 v -5.5 -5.5 h 5.5 5.5 v -5.5 -5.5 h 5.5 5.5 v -5 -5 h -5.5 -5.5 v -5.5 -5.5 h -5.5 -5.5 v -5.5 -5.5 h -5 -5 v 5.5 5.5 h -6 -6 v -6 -6 h 5.5 5.5 v -5 -5 h -5.5 -5.5 v -5.5 -5.5 h -5.5 -5.5 v -5.5 -5.5 h -5 -5 v 5.5 5.5 h -6 -6 v -6 -6 h 5.5 5.5 v -5 -5 h -5.5 -5.5 v -5.5 -5.5 h -5.5 -5.5 v -5.5 -5.5 h -5 -5 v 5.5 5.5 h -5.5 -5.5 v 5.5 5.5 h -5.5 -5.5 v 5 5 h 5.5 5.5 v 6 6 h -6 -6 v -5.5 -5.5 h -5 -5 v 5.5 5.5 h -5.5 -5.5 v 5.5 5.5 h -5.5 -5.5 v 5 5 h 5.5 5.5 v 6 6 h -6 -6 v -5.5 -5.5 h -5 -5 v 5.5 5.5 h -5.5 -5.5 v 5.5 5.5 h -5.5 -5.5 v 5 5 h 5.5 5.5 v 5.5 5.5 h 5.5 5.5 v 5.5 5.5 h 5 5 v -5.5 -5.5 h 6 6 v 6 6 h -5.5 -5.5 v 5 5 h 5.5 5.5 v 6 6 h -6 -6 v -5.5 -5.5 h -5 -5 v 5.5 5.5 h -6 -6 v -6 -6 h 5.5 5.5 v -5 -5 h -5.5 -5.5 v -5.5 -5.5 h -5.5 -5.5 v -5.5 -5.5 h -5 -5 v 5.5 5.5 h -5.5 -5.5 v 5.5 5.5 h -5.5 -5.5 v 5 5 h 5.5 5.5 v 6 6 h -6 -6 v -5.5 -5.5 h -5 -5 v 5.5 5.5 l -6.25,-0.18908 -6.25,-0.18909 z M 113,586 v -5 h -5 -5 v 5 5 h 5 5 z m 44,0 v -5 h -5 -5 v 5 5 h 5 5 z m 22,0 v -5 h -5 -5 v 5 5 h 5 5 z m 110,0 v -5 h -5 -5 v 5 5 h 5 5 z m 22,0 v -5 h -5 -5 v 5 5 h 5 5 z m 44,0 v -5 h -5 -5 v 5 5 h 5 5 z m 22,0 v -5 h -5 -5 v 5 5 h 5 5 z m 308,0 v -5 h -5 -5 v 5 5 h 5 5 z m 22,0 v -5 h -5 -5 v 5 5 h 5 5 z m 44,0 v -5 h -5 -5 v 5 5 h 5 5 z m 22,0 v -5 h -5 -5 v 5 5 h 5 5 z m 110,0 v -5 h -5 -5 v 5 5 h 5 5 z m 22,0 v -5 h -5 -5 v 5 5 h 5 5 z m 44,0 v -5 h -5 -5 v 5 5 h 5 5 z M 168,575 v -5 h -5 -5 v 5 5 h 5 5 z m 132,0 v -5 h -5 -5 v 5 5 h 5 5 z m 66,0 v -5 h -5 -5 v 5 5 h 5 5 z m 330,0 v -5 h -5 -5 v 5 5 h 5 5 z m 66,0 v -5 h -5 -5 v 5 5 h 5 5 z m 132,0 v -5 h -5 -5 v 5 5 h 5 5 z M 157,564 v -5 h -5 -5 v 5 5 h 5 5 z m 22,0 v -5 h -5 -5 v 5 5 h 5 5 z m 110,0 v -5 h -5 -5 v 5 5 h 5 5 z m 22,0 v -5 h -5 -5 v 5 5 h 5 5 z m 44,0 v -5 h -5 -5 v 5 5 h 5 5 z m 22,0 v -5 h -5 -5 v 5 5 h 5 5 z m 308,0 v -5 h -5 -5 v 5 5 h 5 5 z m 22,0 v -5 h -5 -5 v 5 5 h 5 5 z m 44,0 v -5 h -5 -5 v 5 5 h 5 5 z m 22,0 v -5 h -5 -5 v 5 5 h 5 5 z m 110,0 v -5 h -5 -5 v 5 5 h 5 5 z m 22,0 v -5 h -5 -5 v 5 5 h 5 5 z M 146,553 v -5 h -5 -5 v 5 5 h 5 5 z m 176,0 v -5 h -5 -5 v 5 5 h 5 5 z m 22,0 v -5 h -5 -5 v 5 5 h 5 5 z m 374,0 v -5 h -5 -5 v 5 5 h 5 5 z m 22,0 v -5 h -5 -5 v 5 5 h 5 5 z m 176,0 v -5 h -5 -5 v 5 5 h 5 5 z M 333,542 v -5 h -5 -5 v 5 5 h 5 5 z m 396,0 v -5 h -5 -5 v 5 5 h 5 5 z M 322,531 v -5 h -5 -5 v 5 5 h 5 5 z m 22,0 v -5 h -5 -5 v 5 5 h 5 5 z m 374,0 v -5 h -5 -5 v 5 5 h 5 5 z m 22,0 v -5 h -5 -5 v 5 5 h 5 5 z M 179,520 v -5 h -5 -5 v 5 5 h 5 5 z m 110,0 v -5 h -5 -5 v 5 5 h 5 5 z m 22,0 v -5 h -5 -5 v 5 5 h 5 5 z m 44,0 v -5 h -5 -5 v 5 5 h 5 5 z m 22,0 v -5 h -5 -5 v 5 5 h 5 5 z m 308,0 v -5 h -5 -5 v 5 5 h 5 5 z m 22,0 v -5 h -5 -5 v 5 5 h 5 5 z m 44,0 v -5 h -5 -5 v 5 5 h 5 5 z m 22,0 v -5 h -5 -5 v 5 5 h 5 5 z m 110,0 v -5 h -5 -5 v 5 5 h 5 5 z M 300,509 v -5 h -5 -5 v 5 5 h 5 5 z m 66,0 v -5 h -5 -5 v 5 5 h 5 5 z m 330,0 v -5 h -5 -5 v 5 5 h 5 5 z m 66,0 v -5 h -5 -5 v 5 5 h 5 5 z M 289,498 v -5 h -5 -5 v 5 5 h 5 5 z m 22,0 v -5 h -5 -5 v 5 5 h 5 5 z m 44,0 v -5 h -5 -5 v 5 5 h 5 5 z m 22,0 v -5 h -5 -5 v 5 5 h 5 5 z m 308,0 v -5 h -5 -5 v 5 5 h 5 5 z m 22,0 v -5 h -5 -5 v 5 5 h 5 5 z m 44,0 v -5 h -5 -5 v 5 5 h 5 5 z m 22,0 v -5 h -5 -5 v 5 5 h 5 5 z M 212,487 v -5 h -5 -5 v 5 5 h 5 5 z m 44,0 v -5 h -5 -5 v 5 5 h 5 5 z m 22,0 v -5 h -5 -5 v 5 5 h 5 5 z m 506,0 v -5 h -5 -5 v 5 5 h 5 5 z m 22,0 v -5 h -5 -5 v 5 5 h 5 5 z m 44,0 v -5 h -5 -5 v 5 5 h 5 5 z M 267,476 v -5 h -5 -5 v 5 5 h 5 5 z m 528,0 v -5 h -5 -5 v 5 5 h 5 5 z M 256,465 v -5 h -5 -5 v 5 5 h 5 5 z m 22,0 v -5 h -5 -5 v 5 5 h 5 5 z m 506,0 v -5 h -5 -5 v 5 5 h 5 5 z m 22,0 v -5 h -5 -5 v 5 5 h 5 5 z M 245,454 v -5 h -5 -5 v 5 5 h 5 5 z m 572,0 v -5 h -5 -5 v 5 5 h 5 5 z M 278,421 v -5 h -5 -5 v 5 5 h 5 5 z m 506,0 v -5 h -5 -5 v 5 5 h 5 5 z M 311,388 v -5 h -5 -5 v 5 5 h 5 5 z m 44,0 v -5 h -5 -5 v 5 5 h 5 5 z m 22,0 v -5 h -5 -5 v 5 5 h 5 5 z m 308,0 v -5 h -5 -5 v 5 5 h 5 5 z m 22,0 v -5 h -5 -5 v 5 5 h 5 5 z m 44,0 v -5 h -5 -5 v 5 5 h 5 5 z M 366,377 v -5 h -5 -5 v 5 5 h 5 5 z m 330,0 v -5 h -5 -5 v 5 5 h 5 5 z M 355,366 v -5 h -5 -5 v 5 5 h 5 5 z m 22,0 v -5 h -5 -5 v 5 5 h 5 5 z m 308,0 v -5 h -5 -5 v 5 5 h 5 5 z m 22,0 v -5 h -5 -5 v 5 5 h 5 5 z M 344,355 v -5 h -5 -5 v 5 5 h 5 5 z m 374,0 v -5 h -5 -5 v 5 5 h 5 5 z M 377,322 v -5 h -5 -5 v 5 5 h 5 5 z m 308,0 v -5 h -5 -5 v 5 5 h 5 5 z M 410,289 v -5 h -5 -5 v 5 5 h 5 5 z m 44,0 v -5 h -5 -5 v 5 5 h 5 5 z m 22,0 v -5 h -5 -5 v 5 5 h 5 5 z m 110,0 v -5 h -5 -5 v 5 5 h 5 5 z m 22,0 v -5 h -5 -5 v 5 5 h 5 5 z m 44,0 v -5 h -5 -5 v 5 5 h 5 5 z M 465,278 v -5 h -5 -5 v 5 5 h 5 5 z m 132,0 v -5 h -5 -5 v 5 5 h 5 5 z M 454,267 v -5 h -5 -5 v 5 5 h 5 5 z m 22,0 v -5 h -5 -5 v 5 5 h 5 5 z m 110,0 v -5 h -5 -5 v 5 5 h 5 5 z m 22,0 v -5 h -5 -5 v 5 5 h 5 5 z M 443,256 v -5 h -5 -5 v 5 5 h 5 5 z m 176,0 v -5 h -5 -5 v 5 5 h 5 5 z M 476,223 v -5 h -5 -5 v 5 5 h 5 5 z m 110,0 v -5 h -5 -5 v 5 5 h 5 5 z m -77,-33 v -5 h -5 -5 v 5 5 h 5 5 z m 44,0 v -5 h -5 -5 v 5 5 h 5 5 z"
       id="path60"
       inkscape:connector-curvature="0" />
    <path
       style="fill:#a3a3a3;fill-opacity:1"
       d="M 85.25,591.26101 91,590.90019 V 585.4501 580 h 5.5 5.5 v -5.5 -5.5 h 5.5 5.5 v -5.5 -5.5 h 5.5 5.5 v -5.5 -5.5 h 5.5 5.5 v -5.5 -5.5 h 5.5 5.5 v -5.5 -5.5 h 5.5 5.5 v -5.5 -5.5 h 5.5 5.5 v -5.5 -5.5 h 5.5 5.5 v -5.5 -5.5 h 5.5 5.5 v -5.5 -5.5 h 5.5 5.5 v -5.5 -5.5 h 5.5 5.5 v -5.5 -5.5 h 5.5 5.5 v -5.5 -5.5 h 5.5 5.5 v -5.5 -5.5 h 5.5 5.5 v -5.5 -5.5 h 5.5 5.5 v -5.5 -5.5 h 5.5 5.5 v -5.5 -5.5 h 5.5 5.5 v -5.5 -5.5 h 5.5 5.5 v -5.5 -5.5 h 5.5 5.5 v -5.5 -5.5 h 5.5 5.5 v -5.5 -5.5 h 5.5 5.5 v -5.5 -5.5 h 5.5 5.5 v -5.5 -5.5 h 5.5 5.5 v -5.5 -5.5 h 5.5 5.5 v -5.5 -5.5 h 5.5 5.5 v -5.5 -5.5 h 5.5 5.5 v -5.5 -5.5 h 5.5 5.5 v -5.5 -5.5 h 5.5 5.5 v -5.5 -5.5 h 5.5 5.5 v -5.5 -5.5 h 5.5 5.5 v -5.5 -5.5 h 5.5 5.5 v -5.5 -5.5 h 5.5 5.5 v -5.5 -5.5 h 5.5 5.5 v -5.5 -5.5 h 5.5 5.5 v -5.5 -5.5 h 5.5 5.5 v -5.5 -5.5 h 5.5 5.5 v -5.5 -5.5 h 5.5 5.5 v -5.5 -5.5 h 5.5 5.5 v -5.5 -5.5 h 5.5 5.5 v -5.5 -5.5 h 6 6 v 5.5 5.5 h 5.5 5.5 v 5.5 5.5 h 5.5 5.5 v 5.5 5.5 h 5.5 5.5 v 5.5 5.5 h 5.5 5.5 v 5.5 5.5 h 5.5 5.5 v 5.5 5.5 h 5.5 5.5 v 5.5 5.5 h 5.5 5.5 v 5.5 5.5 h 5.5 5.5 v 5.5 5.5 h 5.5 5.5 v 5.5 5.5 h 5.5 5.5 v 5.5 5.5 h 5.5 5.5 v 5.5 5.5 h 5.5 5.5 v 5.5 5.5 h 5.5 5.5 v 5.5 5.5 h 5.5 5.5 v 5.5 5.5 h 5.5 5.5 v 5.5 5.5 h 5.5 5.5 v 5.5 5.5 h 5.5 5.5 v 5.5 5.5 h 5.5 5.5 v 5.5 5.5 h 5.5 5.5 v 5.5 5.5 h 5.5 5.5 v 5.5 5.5 h 5.5 5.5 v 5.5 5.5 h 5.5 5.5 v 5.5 5.5 h 5.5 5.5 v 5.5 5.5 h 5.5 5.5 v 5.5 5.5 h 5.5 5.5 v 5.5 5.5 h 5.5 5.5 v 5.5 5.5 h 5.5 5.5 v 5.5 5.5 h 5.5 5.5 v 5.5 5.5 h 5.5 5.5 v 5.5 5.5 h 5.5 5.5 v 5.5 5.5 h 5.5 5.5 v 5.5 5.5 h 5.5 5.5 v 5.5 5.5 h 5.5 5.5 v 5.5 5.5 h 5.5 5.5 v 5.5 5.5 h 5.5 5.5 v 5.5 5.5 h 5.5 5.5 v 5.5 5.5 h 5.5 5.5 v 5.5 5.5 h 5.5 5.5 v 5.5 5.5 h 5.5 5.5 v 5.4501 5.45009 l 5.75,0.36082 5.75,0.36082 -6.25,0.18909 L 960,592 v -5.5 -5.5 h -5 -5 v 5.5 5.5 h -6 -6 v -6 -6 h 5.5 5.5 v -5 -5 h -5.5 -5.5 v -5.5 -5.5 h -5.5 -5.5 v -5.5 -5.5 h -5 -5 v 5.5 5.5 h -5.5 -5.5 v 5.5 5.5 h -5.5 -5.5 v 5 5 h 5.5 5.5 v 6 6 h -6 -6 v -5.5 -5.5 h -5 -5 v 5.5 5.5 h -6 -6 v -6 -6 h 5.5 5.5 v -5 -5 h -5.5 -5.5 v -6 -6 h 6 6 v 5.5 5.5 h 5 5 v -5.5 -5.5 h 5.5 5.5 v -5.5 -5.5 h 5.5 5.5 v -5 -5 h -5.5 -5.5 v -5.5 -5.5 h -5.5 -5.5 v -5.5 -5.5 h -5 -5 v 5.5 5.5 h -6 -6 v -6 -6 h 5.5 5.5 v -5 -5 h -5.5 -5.5 v -5.5 -5.5 h -5.5 -5.5 v -5.5 -5.5 h -5 -5 v 5.5 5.5 h -6 -6 v -6 -6 h 5.5 5.5 v -5 -5 h -5.5 -5.5 v -5.5 -5.5 h -5.5 -5.5 v -5.5 -5.5 h -5 -5 v 5.5 5.5 h -5.5 -5.5 v 5.5 5.5 h -5.5 -5.5 v 5 5 h 5.5 5.5 v 6 6 h -6 -6 v -5.5 -5.5 h -5 -5 v 5.5 5.5 h -5.5 -5.5 v 5.5 5.5 h -5.5 -5.5 v 5 5 h 5.5 5.5 v 6 6 h -6 -6 v -5.5 -5.5 h -5 -5 v 5.5 5.5 h -5.5 -5.5 v 5.5 5.5 h -5.5 -5.5 v 5 5 h 5.5 5.5 v 5.5 5.5 h 5.5 5.5 v 5.5 5.5 h 5 5 v -5.5 -5.5 h 6 6 v 6 6 h -5.5 -5.5 v 5 5 h 5.5 5.5 v 6 6 h -6 -6 v -5.5 -5.5 h -5 -5 v 5.5 5.5 h -6 -6 v -6 -6 h 5.5 5.5 v -5 -5 h -5.5 -5.5 v -5.5 -5.5 h -5.5 -5.5 v -5.5 -5.5 h -5 -5 v 5.5 5.5 h -5.5 -5.5 v 5.5 5.5 h -5.5 -5.5 v 5 5 h 5.5 5.5 v 6 6 h -6 -6 v -5.5 -5.5 h -5 -5 v 5.5 5.5 h -6 -6 v -6 -6 h 5.5 5.5 v -5 -5 h -5.5 -5.5 v -6 -6 h 6 6 v 5.5 5.5 h 5 5 v -5.5 -5.5 h 5.5 5.5 v -5.5 -5.5 h 5.5 5.5 v -5 -5 h -5.5 -5.5 v -5.5 -5.5 h -5.5 -5.5 v -5.5 -5.5 h -5 -5 v 5.5 5.5 h -6 -6 v -6 -6 h 5.5 5.5 v -5 -5 h -5.5 -5.5 v -6 -6 h 6 6 v 5.5 5.5 h 5 5 v -5.5 -5.5 h 6 6 v 6 6 h -5.5 -5.5 v 5 5 h 5.5 5.5 v 5.5 5.5 h 5.5 5.5 v 5.5 5.5 h 5 5 v -5.5 -5.5 h 5.5 5.5 v -5.5 -5.5 h 5.5 5.5 v -5 -5 h -5.5 -5.5 v -6 -6 h 6 6 v 5.5 5.5 h 5 5 v -5.5 -5.5 h 5.5 5.5 v -5.5 -5.5 h 5.5 5.5 v -5 -5 h -5.5 -5.5 v -6 -6 h 6 6 v 5.5 5.5 h 5 5 v -5.5 -5.5 h 5.5 5.5 v -5.5 -5.5 h 5.5 5.5 v -5 -5 h -5.5 -5.5 v -5.5 -5.5 h -5.5 -5.5 v -5.5 -5.5 h -5 -5 v 5.5 5.5 h -6 -6 v -6 -6 h 5.5 5.5 v -5 -5 h -5.5 -5.5 v -5.5 -5.5 h -5.5 -5.5 v -5.5 -5.5 h -5 -5 v 5.5 5.5 h -6 -6 v -6 -6 h 5.5 5.5 v -5 -5 h -5.5 -5.5 v -5.5 -5.5 h -5.5 -5.5 v -5.5 -5.5 h -5 -5 v 5.5 5.5 h -5.5 -5.5 v 5.5 5.5 h -5.5 -5.5 v 5 5 h 5.5 5.5 v 6 6 h -6 -6 v -5.5 -5.5 h -5 -5 v 5.5 5.5 h -6 -6 v -6 -6 h 5.5 5.5 v -5 -5 h -5.5 -5.5 v -6 -6 h 6 6 v 5.5 5.5 h 5 5 v -5.5 -5.5 h 5.5 5.5 v -5.5 -5.5 h 5.5 5.5 v -5 -5 h -5.5 -5.5 v -5.5 -5.5 h -5.5 -5.5 v -5.5 -5.5 h -5 -5 v 5.5 5.5 h -6 -6 v -6 -6 h 5.5 5.5 v -5 -5 h -5.5 -5.5 v -5.5 -5.5 h -5.5 -5.5 v -5.5 -5.5 h -5 -5 v 5.5 5.5 h -6 -6 v -6 -6 h 5.5 5.5 v -5 -5 h -5.5 -5.5 v -5.5 -5.5 h -5.5 -5.5 v -5.5 -5.5 h -5 -5 v 5.5 5.5 h -5.5 -5.5 v 5.5 5.5 h -5.5 -5.5 v 5 5 h 5.5 5.5 v 6 6 h -6 -6 v -5.5 -5.5 h -5 -5 v 5.5 5.5 h -6 -6 v -6 -6 h 5.5 5.5 v -5 -5 h -5.5 -5.5 v -6 -6 h 6 6 v 5.5 5.5 h 5 5 v -5.5 -5.5 h 5.5 5.5 v -5.5 -5.5 h 5.5 5.5 v -5 -5 h -5.5 -5.5 v -5.5 -5.5 h -5.5 -5.5 v -5.5 -5.5 h -5 -5 v 5.5 5.5 h -6 -6 v -6 -6 h 5.5 5.5 v -5 -5 h -5.5 -5.5 v -5.5 -5.5 h -5.5 -5.5 v -5.5 -5.5 h -5 -5 v 5.5 5.5 h -6 -6 v -6 -6 h 5.5 5.5 v -5 -5 h -5.5 -5.5 v -5.5 -5.5 h -5.5 -5.5 v -5.5 -5.5 h -5 -5 v 5.5 5.5 h -5.5 -5.5 v 5.5 5.5 h -5.5 -5.5 v 5 5 h 5.5 5.5 v 6 6 h -6 -6 v -5.5 -5.5 h -5 -5 v 5.5 5.5 h -5.5 -5.5 v 5.5 5.5 h -5.5 -5.5 v 5 5 h 5.5 5.5 v 6 6 h -6 -6 v -5.5 -5.5 h -5 -5 v 5.5 5.5 h -5.5 -5.5 v 5.5 5.5 h -5.5 -5.5 v 5 5 h 5.5 5.5 v 5.5 5.5 h 5.5 5.5 v 5.5 5.5 h 5 5 v -5.5 -5.5 h 6 6 v 6 6 h -5.5 -5.5 v 5 5 h 5.5 5.5 v 6 6 h -6 -6 v -5.5 -5.5 h -5 -5 v 5.5 5.5 h -6 -6 v -6 -6 h 5.5 5.5 v -5 -5 h -5.5 -5.5 v -5.5 -5.5 h -5.5 -5.5 v -5.5 -5.5 h -5 -5 v 5.5 5.5 h -5.5 -5.5 v 5.5 5.5 h -5.5 -5.5 v 5 5 h 5.5 5.5 v 6 6 h -6 -6 v -5.5 -5.5 h -5 -5 v 5.5 5.5 h -5.5 -5.5 v 5.5 5.5 h -5.5 -5.5 v 5 5 h 5.5 5.5 v 6 6 h -6 -6 v -5.5 -5.5 h -5 -5 v 5.5 5.5 h -5.5 -5.5 v 5.5 5.5 h -5.5 -5.5 v 5 5 h 5.5 5.5 v 5.5 5.5 h 5.5 5.5 v 5.5 5.5 h 5 5 v -5.5 -5.5 h 6 6 v 6 6 h -5.5 -5.5 v 5 5 h 5.5 5.5 v 6 6 h -6 -6 v -5.5 -5.5 h -5 -5 v 5.5 5.5 h -6 -6 v -6 -6 h 5.5 5.5 v -5 -5 h -5.5 -5.5 v -5.5 -5.5 h -5.5 -5.5 v -5.5 -5.5 h -5 -5 v 5.5 5.5 h -5.5 -5.5 v 5.5 5.5 h -5.5 -5.5 v 5 5 h 5.5 5.5 v 6 6 h -6 -6 v -5.5 -5.5 h -5 -5 v 5.5 5.5 h -5.5 -5.5 v 5.5 5.5 h -5.5 -5.5 v 5 5 h 5.5 5.5 v 6 6 h -6 -6 v -5.5 -5.5 h -5 -5 v 5.5 5.5 h -5.5 -5.5 v 5.5 5.5 h -5.5 -5.5 v 5 5 h 5.5 5.5 v 5.5 5.5 h 5.5 5.5 v 5.5 5.5 h 5 5 v -5.5 -5.5 h 6 6 v 6 6 h -5.5 -5.5 v 5 5 h 5.5 5.5 v 5.5 5.5 h 5.5 5.5 v 5.5 5.5 h 5 5 v -5.5 -5.5 h 6 6 v 6 6 h -5.5 -5.5 v 5 5 h 5.5 5.5 v 5.5 5.5 h 5.5 5.5 v 5.5 5.5 h 5 5 v -5.5 -5.5 h 5.5 5.5 v -5.5 -5.5 h 5.5 5.5 v -5 -5 h -5.5 -5.5 v -6 -6 h 6 6 v 5.5 5.5 h 5 5 v -5.5 -5.5 h 6 6 v 6 6 h -5.5 -5.5 v 5 5 h 5.5 5.5 v 6 6 h -6 -6 v -5.5 -5.5 h -5 -5 v 5.5 5.5 h -5.5 -5.5 v 5.5 5.5 h -5.5 -5.5 v 5 5 h 5.5 5.5 v 5.5 5.5 h 5.5 5.5 v 5.5 5.5 h 5 5 v -5.5 -5.5 h 6 6 v 6 6 h -5.5 -5.5 v 5 5 h 5.5 5.5 v 6 6 h -6 -6 v -5.5 -5.5 h -5 -5 v 5.5 5.5 h -6 -6 v -6 -6 h 5.5 5.5 v -5 -5 h -5.5 -5.5 v -5.5 -5.5 h -5.5 -5.5 v -5.5 -5.5 h -5 -5 v 5.5 5.5 h -5.5 -5.5 v 5.5 5.5 h -5.5 -5.5 v 5 5 h 5.5 5.5 v 6 6 h -6 -6 v -5.5 -5.5 h -5 -5 v 5.5 5.5 h -6 -6 v -6 -6 h 5.5 5.5 v -5 -5 h -5.5 -5.5 v -6 -6 h 6 6 v 5.5 5.5 h 5 5 v -5.5 -5.5 h 5.5 5.5 v -5.5 -5.5 h 5.5 5.5 v -5 -5 h -5.5 -5.5 v -5.5 -5.5 h -5.5 -5.5 v -5.5 -5.5 h -5 -5 v 5.5 5.5 h -6 -6 v -6 -6 h 5.5 5.5 v -5 -5 h -5.5 -5.5 v -5.5 -5.5 h -5.5 -5.5 v -5.5 -5.5 h -5 -5 v 5.5 5.5 h -6 -6 v -6 -6 h 5.5 5.5 v -5 -5 h -5.5 -5.5 v -5.5 -5.5 h -5.5 -5.5 v -5.5 -5.5 h -5 -5 v 5.5 5.5 h -5.5 -5.5 v 5.5 5.5 h -5.5 -5.5 v 5 5 h 5.5 5.5 v 6 6 h -6 -6 v -5.5 -5.5 h -5 -5 v 5.5 5.5 h -5.5 -5.5 v 5.5 5.5 h -5.5 -5.5 v 5 5 h 5.5 5.5 v 6 6 h -6 -6 v -5.5 -5.5 h -5 -5 v 5.5 5.5 h -5.5 -5.5 v 5.5 5.5 h -5.5 -5.5 v 5 5 h 5.5 5.5 v 5.5 5.5 h 5.5 5.5 v 5.5 5.5 h 5 5 v -5.5 -5.5 h 6 6 v 6 6 h -5.5 -5.5 v 5 5 h 5.5 5.5 v 6 6 h -6 -6 v -5.5 -5.5 h -5 -5 v 5.5 5.5 h -6 -6 v -6 -6 h 5.5 5.5 v -5 -5 h -5.5 -5.5 v -5.5 -5.5 h -5.5 -5.5 v -5.5 -5.5 h -5 -5 v 5.5 5.5 h -5.5 -5.5 v 5.5 5.5 h -5.5 -5.5 v 5 5 h 5.5 5.5 v 6 6 h -6 -6 v -5.5 -5.5 h -5 -5 v 5.5 5.5 l -6.25,-0.18908 -6.25,-0.18909 z M 113,586 v -5 h -5 -5 v 5 5 h 5 5 z m 44,0 v -5 h -5 -5 v 5 5 h 5 5 z m 22,0 v -5 h -5 -5 v 5 5 h 5 5 z m 110,0 v -5 h -5 -5 v 5 5 h 5 5 z m 22,0 v -5 h -5 -5 v 5 5 h 5 5 z m 44,0 v -5 h -5 -5 v 5 5 h 5 5 z m 22,0 v -5 h -5 -5 v 5 5 h 5 5 z m 308,0 v -5 h -5 -5 v 5 5 h 5 5 z m 22,0 v -5 h -5 -5 v 5 5 h 5 5 z m 44,0 v -5 h -5 -5 v 5 5 h 5 5 z m 22,0 v -5 h -5 -5 v 5 5 h 5 5 z m 110,0 v -5 h -5 -5 v 5 5 h 5 5 z m 22,0 v -5 h -5 -5 v 5 5 h 5 5 z m 44,0 v -5 h -5 -5 v 5 5 h 5 5 z M 168,575 v -5 h -5 -5 v 5 5 h 5 5 z m 132,0 v -5 h -5 -5 v 5 5 h 5 5 z m 66,0 v -5 h -5 -5 v 5 5 h 5 5 z m 330,0 v -5 h -5 -5 v 5 5 h 5 5 z m 66,0 v -5 h -5 -5 v 5 5 h 5 5 z m 132,0 v -5 h -5 -5 v 5 5 h 5 5 z M 157,564 v -5 h -5 -5 v 5 5 h 5 5 z m 22,0 v -5 h -5 -5 v 5 5 h 5 5 z m 110,0 v -5 h -5 -5 v 5 5 h 5 5 z m 22,0 v -5 h -5 -5 v 5 5 h 5 5 z m 44,0 v -5 h -5 -5 v 5 5 h 5 5 z m 22,0 v -5 h -5 -5 v 5 5 h 5 5 z m 308,0 v -5 h -5 -5 v 5 5 h 5 5 z m 22,0 v -5 h -5 -5 v 5 5 h 5 5 z m 44,0 v -5 h -5 -5 v 5 5 h 5 5 z m 22,0 v -5 h -5 -5 v 5 5 h 5 5 z m 110,0 v -5 h -5 -5 v 5 5 h 5 5 z m 22,0 v -5 h -5 -5 v 5 5 h 5 5 z M 146,553 v -5 h -5 -5 v 5 5 h 5 5 z m 176,0 v -5 h -5 -5 v 5 5 h 5 5 z m 22,0 v -5 h -5 -5 v 5 5 h 5 5 z m 374,0 v -5 h -5 -5 v 5 5 h 5 5 z m 22,0 v -5 h -5 -5 v 5 5 h 5 5 z m 176,0 v -5 h -5 -5 v 5 5 h 5 5 z M 333,542 v -5 h -5 -5 v 5 5 h 5 5 z m 396,0 v -5 h -5 -5 v 5 5 h 5 5 z M 322,531 v -5 h -5 -5 v 5 5 h 5 5 z m 22,0 v -5 h -5 -5 v 5 5 h 5 5 z m 374,0 v -5 h -5 -5 v 5 5 h 5 5 z m 22,0 v -5 h -5 -5 v 5 5 h 5 5 z M 179,520 v -5 h -5 -5 v 5 5 h 5 5 z m 110,0 v -5 h -5 -5 v 5 5 h 5 5 z m 22,0 v -5 h -5 -5 v 5 5 h 5 5 z m 44,0 v -5 h -5 -5 v 5 5 h 5 5 z m 22,0 v -5 h -5 -5 v 5 5 h 5 5 z m 308,0 v -5 h -5 -5 v 5 5 h 5 5 z m 22,0 v -5 h -5 -5 v 5 5 h 5 5 z m 44,0 v -5 h -5 -5 v 5 5 h 5 5 z m 22,0 v -5 h -5 -5 v 5 5 h 5 5 z m 110,0 v -5 h -5 -5 v 5 5 h 5 5 z M 300,509 v -5 h -5 -5 v 5 5 h 5 5 z m 66,0 v -5 h -5 -5 v 5 5 h 5 5 z m 330,0 v -5 h -5 -5 v 5 5 h 5 5 z m 66,0 v -5 h -5 -5 v 5 5 h 5 5 z M 289,498 v -5 h -5 -5 v 5 5 h 5 5 z m 22,0 v -5 h -5 -5 v 5 5 h 5 5 z m 44,0 v -5 h -5 -5 v 5 5 h 5 5 z m 22,0 v -5 h -5 -5 v 5 5 h 5 5 z m 308,0 v -5 h -5 -5 v 5 5 h 5 5 z m 22,0 v -5 h -5 -5 v 5 5 h 5 5 z m 44,0 v -5 h -5 -5 v 5 5 h 5 5 z m 22,0 v -5 h -5 -5 v 5 5 h 5 5 z M 212,487 v -5 h -5 -5 v 5 5 h 5 5 z m 44,0 v -5 h -5 -5 v 5 5 h 5 5 z m 22,0 v -5 h -5 -5 v 5 5 h 5 5 z m 506,0 v -5 h -5 -5 v 5 5 h 5 5 z m 22,0 v -5 h -5 -5 v 5 5 h 5 5 z m 44,0 v -5 h -5 -5 v 5 5 h 5 5 z M 267,476 v -5 h -5 -5 v 5 5 h 5 5 z m 528,0 v -5 h -5 -5 v 5 5 h 5 5 z M 256,465 v -5 h -5 -5 v 5 5 h 5 5 z m 22,0 v -5 h -5 -5 v 5 5 h 5 5 z m 506,0 v -5 h -5 -5 v 5 5 h 5 5 z m 22,0 v -5 h -5 -5 v 5 5 h 5 5 z M 245,454 v -5 h -5 -5 v 5 5 h 5 5 z m 572,0 v -5 h -5 -5 v 5 5 h 5 5 z M 278,421 v -5 h -5 -5 v 5 5 h 5 5 z m 506,0 v -5 h -5 -5 v 5 5 h 5 5 z M 311,388 v -5 h -5 -5 v 5 5 h 5 5 z m 44,0 v -5 h -5 -5 v 5 5 h 5 5 z m 22,0 v -5 h -5 -5 v 5 5 h 5 5 z m 308,0 v -5 h -5 -5 v 5 5 h 5 5 z m 22,0 v -5 h -5 -5 v 5 5 h 5 5 z m 44,0 v -5 h -5 -5 v 5 5 h 5 5 z M 366,377 v -5 h -5 -5 v 5 5 h 5 5 z m 330,0 v -5 h -5 -5 v 5 5 h 5 5 z M 355,366 v -5 h -5 -5 v 5 5 h 5 5 z m 22,0 v -5 h -5 -5 v 5 5 h 5 5 z m 308,0 v -5 h -5 -5 v 5 5 h 5 5 z m 22,0 v -5 h -5 -5 v 5 5 h 5 5 z M 344,355 v -5 h -5 -5 v 5 5 h 5 5 z m 374,0 v -5 h -5 -5 v 5 5 h 5 5 z M 377,322 v -5 h -5 -5 v 5 5 h 5 5 z m 308,0 v -5 h -5 -5 v 5 5 h 5 5 z M 410,289 v -5 h -5 -5 v 5 5 h 5 5 z m 44,0 v -5 h -5 -5 v 5 5 h 5 5 z m 22,0 v -5 h -5 -5 v 5 5 h 5 5 z m 110,0 v -5 h -5 -5 v 5 5 h 5 5 z m 22,0 v -5 h -5 -5 v 5 5 h 5 5 z m 44,0 v -5 h -5 -5 v 5 5 h 5 5 z M 465,278 v -5 h -5 -5 v 5 5 h 5 5 z m 132,0 v -5 h -5 -5 v 5 5 h 5 5 z M 454,267 v -5 h -5 -5 v 5 5 h 5 5 z m 22,0 v -5 h -5 -5 v 5 5 h 5 5 z m 110,0 v -5 h -5 -5 v 5 5 h 5 5 z m 22,0 v -5 h -5 -5 v 5 5 h 5 5 z M 443,256 v -5 h -5 -5 v 5 5 h 5 5 z m 176,0 v -5 h -5 -5 v 5 5 h 5 5 z M 476,223 v -5 h -5 -5 v 5 5 h 5 5 z m 110,0 v -5 h -5 -5 v 5 5 h 5 5 z m -77,-33 v -5 h -5 -5 v 5 5 h 5 5 z m 44,0 v -5 h -5 -5 v 5 5 h 5 5 z"
       id="path58"
       inkscape:connector-curvature="0" />
    <path
       style="fill:#8c8c8c;fill-opacity:1"
       d="M 85.25,591.26101 91,590.90019 V 585.4501 580 h 5.5 5.5 v -5.5 -5.5 h 5.5 5.5 v -5.5 -5.5 h 5.5 5.5 v -5.5 -5.5 h 5.5 5.5 v -5.5 -5.5 h 5.5 5.5 v -5.5 -5.5 h 5.5 5.5 v -5.5 -5.5 h 5.5 5.5 v -5.5 -5.5 h 5.5 5.5 v -5.5 -5.5 h 5.5 5.5 v -5.5 -5.5 h 5.5 5.5 v -5.5 -5.5 h 5.5 5.5 v -5.5 -5.5 h 5.5 5.5 v -5.5 -5.5 h 5.5 5.5 v -5.5 -5.5 h 5.5 5.5 v -5.5 -5.5 h 5.5 5.5 v -5.5 -5.5 h 5.5 5.5 v -5.5 -5.5 h 5.5 5.5 v -5.5 -5.5 h 5.5 5.5 v -5.5 -5.5 h 5.5 5.5 v -5.5 -5.5 h 5.5 5.5 v -5.5 -5.5 h 5.5 5.5 v -5.5 -5.5 h 5.5 5.5 v -5.5 -5.5 h 5.5 5.5 v -5.5 -5.5 h 5.5 5.5 v -5.5 -5.5 h 5.5 5.5 v -5.5 -5.5 h 5.5 5.5 v -5.5 -5.5 h 5.5 5.5 v -5.5 -5.5 h 5.5 5.5 v -5.5 -5.5 h 5.5 5.5 v -5.5 -5.5 h 5.5 5.5 v -5.5 -5.5 h 5.5 5.5 v -5.5 -5.5 h 5.5 5.5 v -5.5 -5.5 h 5.5 5.5 v -5.5 -5.5 h 5.5 5.5 v -5.5 -5.5 h 5.5 5.5 v -5.5 -5.5 h 5.5 5.5 v -5.5 -5.5 h 5.5 5.5 v -5.5 -5.5 h 5.5 5.5 v -5.5 -5.5 h 5.5 5.5 v -5.5 -5.5 h 6 6 v 5.5 5.5 h 5.5 5.5 v 5.5 5.5 h 5.5 5.5 v 5.5 5.5 h 5.5 5.5 v 5.5 5.5 h 5.5 5.5 v 5.5 5.5 h 5.5 5.5 v 5.5 5.5 h 5.5 5.5 v 5.5 5.5 h 5.5 5.5 v 5.5 5.5 h 5.5 5.5 v 5.5 5.5 h 5.5 5.5 v 5.5 5.5 h 5.5 5.5 v 5.5 5.5 h 5.5 5.5 v 5.5 5.5 h 5.5 5.5 v 5.5 5.5 h 5.5 5.5 v 5.5 5.5 h 5.5 5.5 v 5.5 5.5 h 5.5 5.5 v 5.5 5.5 h 5.5 5.5 v 5.5 5.5 h 5.5 5.5 v 5.5 5.5 h 5.5 5.5 v 5.5 5.5 h 5.5 5.5 v 5.5 5.5 h 5.5 5.5 v 5.5 5.5 h 5.5 5.5 v 5.5 5.5 h 5.5 5.5 v 5.5 5.5 h 5.5 5.5 v 5.5 5.5 h 5.5 5.5 v 5.5 5.5 h 5.5 5.5 v 5.5 5.5 h 5.5 5.5 v 5.5 5.5 h 5.5 5.5 v 5.5 5.5 h 5.5 5.5 v 5.5 5.5 h 5.5 5.5 v 5.5 5.5 h 5.5 5.5 v 5.5 5.5 h 5.5 5.5 v 5.5 5.5 h 5.5 5.5 v 5.5 5.5 h 5.5 5.5 v 5.5 5.5 h 5.5 5.5 v 5.5 5.5 h 5.5 5.5 v 5.5 5.5 h 5.5 5.5 v 5.5 5.5 h 5.5 5.5 v 5.5 5.5 h 5.5 5.5 v 5.5 5.5 h 5.5 5.5 v 5.4501 5.45009 l 5.75,0.36082 5.75,0.36082 -6.25,0.18909 L 960,592 v -5.5 -5.5 h -5 -5 v 5.5 5.5 h -6 -6 v -6 -6 h 5.5 5.5 v -5 -5 h -5.5 -5.5 v -5.5 -5.5 h -5.5 -5.5 v -5.5 -5.5 h -5 -5 v 5.5 5.5 h -5.5 -5.5 v 5.5 5.5 h -5.5 -5.5 v 5 5 h 5.5 5.5 v 6 6 h -6 -6 v -5.5 -5.5 h -5 -5 v 5.5 5.5 h -6 -6 v -6 -6 h 5.5 5.5 v -5 -5 h -5.5 -5.5 v -6 -6 h 6 6 v 5.5 5.5 h 5 5 v -5.5 -5.5 h 5.5 5.5 v -5.5 -5.5 h 5.5 5.5 v -5 -5 h -5.5 -5.5 v -5.5 -5.5 h -5.5 -5.5 v -5.5 -5.5 h -5 -5 v 5.5 5.5 h -6 -6 v -6 -6 h 5.5 5.5 v -5 -5 h -5.5 -5.5 v -5.5 -5.5 h -5.5 -5.5 v -5.5 -5.5 h -5 -5 v 5.5 5.5 h -6 -6 v -6 -6 h 5.5 5.5 v -5 -5 h -5.5 -5.5 v -5.5 -5.5 h -5.5 -5.5 v -5.5 -5.5 h -5 -5 v 5.5 5.5 h -5.5 -5.5 v 5.5 5.5 h -5.5 -5.5 v 5 5 h 5.5 5.5 v 6 6 h -6 -6 v -5.5 -5.5 h -5 -5 v 5.5 5.5 h -5.5 -5.5 v 5.5 5.5 h -5.5 -5.5 v 5 5 h 5.5 5.5 v 6 6 h -6 -6 v -5.5 -5.5 h -5 -5 v 5.5 5.5 h -5.5 -5.5 v 5.5 5.5 h -5.5 -5.5 v 5 5 h 5.5 5.5 v 5.5 5.5 h 5.5 5.5 v 5.5 5.5 h 5 5 v -5.5 -5.5 h 6 6 v 6 6 h -5.5 -5.5 v 5 5 h 5.5 5.5 v 6 6 h -6 -6 v -5.5 -5.5 h -5 -5 v 5.5 5.5 h -6 -6 v -6 -6 h 5.5 5.5 v -5 -5 h -5.5 -5.5 v -5.5 -5.5 h -5.5 -5.5 v -5.5 -5.5 h -5 -5 v 5.5 5.5 h -5.5 -5.5 v 5.5 5.5 h -5.5 -5.5 v 5 5 h 5.5 5.5 v 6 6 h -6 -6 v -5.5 -5.5 h -5 -5 v 5.5 5.5 h -6 -6 v -6 -6 h 5.5 5.5 v -5 -5 h -5.5 -5.5 v -6 -6 h 6 6 v 5.5 5.5 h 5 5 v -5.5 -5.5 h 5.5 5.5 v -5.5 -5.5 h 5.5 5.5 v -5 -5 h -5.5 -5.5 v -5.5 -5.5 h -5.5 -5.5 v -5.5 -5.5 h -5 -5 v 5.5 5.5 h -6 -6 v -6 -6 h 5.5 5.5 v -5 -5 h -5.5 -5.5 v -6 -6 h 6 6 v 5.5 5.5 h 5 5 v -5.5 -5.5 h 6 6 v 6 6 h -5.5 -5.5 v 5 5 h 5.5 5.5 v 5.5 5.5 h 5.5 5.5 v 5.5 5.5 h 5 5 v -5.5 -5.5 h 5.5 5.5 v -5.5 -5.5 h 5.5 5.5 v -5 -5 h -5.5 -5.5 v -6 -6 h 6 6 v 5.5 5.5 h 5 5 v -5.5 -5.5 h 5.5 5.5 v -5.5 -5.5 h 5.5 5.5 v -5 -5 h -5.5 -5.5 v -6 -6 h 6 6 v 5.5 5.5 h 5 5 v -5.5 -5.5 h 5.5 5.5 v -5.5 -5.5 h 5.5 5.5 v -5 -5 h -5.5 -5.5 v -5.5 -5.5 h -5.5 -5.5 v -5.5 -5.5 h -5 -5 v 5.5 5.5 h -6 -6 v -6 -6 h 5.5 5.5 v -5 -5 h -5.5 -5.5 v -5.5 -5.5 h -5.5 -5.5 v -5.5 -5.5 h -5 -5 v 5.5 5.5 h -6 -6 v -6 -6 h 5.5 5.5 v -5 -5 h -5.5 -5.5 v -5.5 -5.5 h -5.5 -5.5 v -5.5 -5.5 h -5 -5 v 5.5 5.5 h -5.5 -5.5 v 5.5 5.5 h -5.5 -5.5 v 5 5 h 5.5 5.5 v 6 6 h -6 -6 v -5.5 -5.5 h -5 -5 v 5.5 5.5 h -6 -6 v -6 -6 h 5.5 5.5 v -5 -5 h -5.5 -5.5 v -6 -6 h 6 6 v 5.5 5.5 h 5 5 v -5.5 -5.5 h 5.5 5.5 v -5.5 -5.5 h 5.5 5.5 v -5 -5 h -5.5 -5.5 v -5.5 -5.5 h -5.5 -5.5 v -5.5 -5.5 h -5 -5 v 5.5 5.5 h -6 -6 v -6 -6 h 5.5 5.5 v -5 -5 h -5.5 -5.5 v -5.5 -5.5 h -5.5 -5.5 v -5.5 -5.5 h -5 -5 v 5.5 5.5 h -6 -6 v -6 -6 h 5.5 5.5 v -5 -5 h -5.5 -5.5 v -5.5 -5.5 h -5.5 -5.5 v -5.5 -5.5 h -5 -5 v 5.5 5.5 h -5.5 -5.5 v 5.5 5.5 h -5.5 -5.5 v 5 5 h 5.5 5.5 v 6 6 h -6 -6 v -5.5 -5.5 h -5 -5 v 5.5 5.5 h -6 -6 v -6 -6 h 5.5 5.5 v -5 -5 h -5.5 -5.5 v -6 -6 h 6 6 v 5.5 5.5 h 5 5 v -5.5 -5.5 h 5.5 5.5 v -5.5 -5.5 h 5.5 5.5 v -5 -5 h -5.5 -5.5 v -5.5 -5.5 h -5.5 -5.5 v -5.5 -5.5 h -5 -5 v 5.5 5.5 h -6 -6 v -6 -6 h 5.5 5.5 v -5 -5 h -5.5 -5.5 v -5.5 -5.5 h -5.5 -5.5 v -5.5 -5.5 h -5 -5 v 5.5 5.5 h -6 -6 v -6 -6 h 5.5 5.5 v -5 -5 h -5.5 -5.5 v -5.5 -5.5 h -5.5 -5.5 v -5.5 -5.5 h -5 -5 v 5.5 5.5 h -5.5 -5.5 v 5.5 5.5 h -5.5 -5.5 v 5 5 h 5.5 5.5 v 6 6 h -6 -6 v -5.5 -5.5 h -5 -5 v 5.5 5.5 h -5.5 -5.5 v 5.5 5.5 h -5.5 -5.5 v 5 5 h 5.5 5.5 v 6 6 h -6 -6 v -5.5 -5.5 h -5 -5 v 5.5 5.5 h -5.5 -5.5 v 5.5 5.5 h -5.5 -5.5 v 5 5 h 5.5 5.5 v 5.5 5.5 h 5.5 5.5 v 5.5 5.5 h 5 5 v -5.5 -5.5 h 6 6 v 6 6 h -5.5 -5.5 v 5 5 h 5.5 5.5 v 6 6 h -6 -6 v -5.5 -5.5 h -5 -5 v 5.5 5.5 h -6 -6 v -6 -6 h 5.5 5.5 v -5 -5 h -5.5 -5.5 v -5.5 -5.5 h -5.5 -5.5 v -5.5 -5.5 h -5 -5 v 5.5 5.5 h -5.5 -5.5 v 5.5 5.5 h -5.5 -5.5 v 5 5 h 5.5 5.5 v 6 6 h -6 -6 v -5.5 -5.5 h -5 -5 v 5.5 5.5 h -5.5 -5.5 v 5.5 5.5 h -5.5 -5.5 v 5 5 h 5.5 5.5 v 6 6 h -6 -6 v -5.5 -5.5 h -5 -5 v 5.5 5.5 h -5.5 -5.5 v 5.5 5.5 h -5.5 -5.5 v 5 5 h 5.5 5.5 v 5.5 5.5 h 5.5 5.5 v 5.5 5.5 h 5 5 v -5.5 -5.5 h 6 6 v 6 6 h -5.5 -5.5 v 5 5 h 5.5 5.5 v 6 6 h -6 -6 v -5.5 -5.5 h -5 -5 v 5.5 5.5 h -6 -6 v -6 -6 h 5.5 5.5 v -5 -5 h -5.5 -5.5 v -5.5 -5.5 h -5.5 -5.5 v -5.5 -5.5 h -5 -5 v 5.5 5.5 h -5.5 -5.5 v 5.5 5.5 h -5.5 -5.5 v 5 5 h 5.5 5.5 v 6 6 h -6 -6 v -5.5 -5.5 h -5 -5 v 5.5 5.5 h -5.5 -5.5 v 5.5 5.5 h -5.5 -5.5 v 5 5 h 5.5 5.5 v 6 6 h -6 -6 v -5.5 -5.5 h -5 -5 v 5.5 5.5 h -5.5 -5.5 v 5.5 5.5 h -5.5 -5.5 v 5 5 h 5.5 5.5 v 5.5 5.5 h 5.5 5.5 v 5.5 5.5 h 5 5 v -5.5 -5.5 h 6 6 v 6 6 h -5.5 -5.5 v 5 5 h 5.5 5.5 v 5.5 5.5 h 5.5 5.5 v 5.5 5.5 h 5 5 v -5.5 -5.5 h 6 6 v 6 6 h -5.5 -5.5 v 5 5 h 5.5 5.5 v 5.5 5.5 h 5.5 5.5 v 5.5 5.5 h 5 5 v -5.5 -5.5 h 5.5 5.5 v -5.5 -5.5 h 5.5 5.5 v -5 -5 h -5.5 -5.5 v -6 -6 h 6 6 v 5.5 5.5 h 5 5 v -5.5 -5.5 h 6 6 v 6 6 h -5.5 -5.5 v 5 5 h 5.5 5.5 v 6 6 h -6 -6 v -5.5 -5.5 h -5 -5 v 5.5 5.5 h -5.5 -5.5 v 5.5 5.5 h -5.5 -5.5 v 5 5 h 5.5 5.5 v 5.5 5.5 h 5.5 5.5 v 5.5 5.5 h 5 5 v -5.5 -5.5 h 6 6 v 6 6 h -5.5 -5.5 v 5 5 h 5.5 5.5 v 6 6 h -6 -6 v -5.5 -5.5 h -5 -5 v 5.5 5.5 h -6 -6 v -6 -6 h 5.5 5.5 v -5 -5 h -5.5 -5.5 v -5.5 -5.5 h -5.5 -5.5 v -5.5 -5.5 h -5 -5 v 5.5 5.5 h -5.5 -5.5 v 5.5 5.5 h -5.5 -5.5 v 5 5 h 5.5 5.5 v 6 6 h -6 -6 v -5.5 -5.5 h -5 -5 v 5.5 5.5 h -6 -6 v -6 -6 h 5.5 5.5 v -5 -5 h -5.5 -5.5 v -6 -6 h 6 6 v 5.5 5.5 h 5 5 v -5.5 -5.5 h 5.5 5.5 v -5.5 -5.5 h 5.5 5.5 v -5 -5 h -5.5 -5.5 v -5.5 -5.5 h -5.5 -5.5 v -5.5 -5.5 h -5 -5 v 5.5 5.5 h -6 -6 v -6 -6 h 5.5 5.5 v -5 -5 h -5.5 -5.5 v -5.5 -5.5 h -5.5 -5.5 v -5.5 -5.5 h -5 -5 v 5.5 5.5 h -6 -6 v -6 -6 h 5.5 5.5 v -5 -5 h -5.5 -5.5 v -5.5 -5.5 h -5.5 -5.5 v -5.5 -5.5 h -5 -5 v 5.5 5.5 h -5.5 -5.5 v 5.5 5.5 h -5.5 -5.5 v 5 5 h 5.5 5.5 v 6 6 h -6 -6 v -5.5 -5.5 h -5 -5 v 5.5 5.5 h -5.5 -5.5 v 5.5 5.5 h -5.5 -5.5 v 5 5 h 5.5 5.5 v 6 6 h -6 -6 v -5.5 -5.5 h -5 -5 v 5.5 5.5 h -5.5 -5.5 v 5.5 5.5 h -5.5 -5.5 v 5 5 h 5.5 5.5 v 5.5 5.5 h 5.5 5.5 v 5.5 5.5 h 5 5 v -5.5 -5.5 h 6 6 v 6 6 h -5.5 -5.5 v 5 5 h 5.5 5.5 v 6 6 h -6 -6 v -5.5 -5.5 h -5 -5 v 5.5 5.5 h -6 -6 v -6 -6 h 5.5 5.5 v -5 -5 h -5.5 -5.5 v -5.5 -5.5 h -5.5 -5.5 v -5.5 -5.5 h -5 -5 v 5.5 5.5 h -5.5 -5.5 v 5.5 5.5 h -5.5 -5.5 v 5 5 h 5.5 5.5 v 6 6 h -6 -6 v -5.5 -5.5 h -5 -5 v 5.5 5.5 l -6.25,-0.18908 -6.25,-0.18909 z M 113,586 v -5 h -5 -5 v 5 5 h 5 5 z m 44,0 v -5 h -5 -5 v 5 5 h 5 5 z m 22,0 v -5 h -5 -5 v 5 5 h 5 5 z m 110,0 v -5 h -5 -5 v 5 5 h 5 5 z m 22,0 v -5 h -5 -5 v 5 5 h 5 5 z m 44,0 v -5 h -5 -5 v 5 5 h 5 5 z m 22,0 v -5 h -5 -5 v 5 5 h 5 5 z m 308,0 v -5 h -5 -5 v 5 5 h 5 5 z m 22,0 v -5 h -5 -5 v 5 5 h 5 5 z m 44,0 v -5 h -5 -5 v 5 5 h 5 5 z m 22,0 v -5 h -5 -5 v 5 5 h 5 5 z m 110,0 v -5 h -5 -5 v 5 5 h 5 5 z m 22,0 v -5 h -5 -5 v 5 5 h 5 5 z m 44,0 v -5 h -5 -5 v 5 5 h 5 5 z M 168,575 v -5 h -5 -5 v 5 5 h 5 5 z m 132,0 v -5 h -5 -5 v 5 5 h 5 5 z m 66,0 v -5 h -5 -5 v 5 5 h 5 5 z m 330,0 v -5 h -5 -5 v 5 5 h 5 5 z m 66,0 v -5 h -5 -5 v 5 5 h 5 5 z m 132,0 v -5 h -5 -5 v 5 5 h 5 5 z M 157,564 v -5 h -5 -5 v 5 5 h 5 5 z m 22,0 v -5 h -5 -5 v 5 5 h 5 5 z m 110,0 v -5 h -5 -5 v 5 5 h 5 5 z m 22,0 v -5 h -5 -5 v 5 5 h 5 5 z m 44,0 v -5 h -5 -5 v 5 5 h 5 5 z m 22,0 v -5 h -5 -5 v 5 5 h 5 5 z m 308,0 v -5 h -5 -5 v 5 5 h 5 5 z m 22,0 v -5 h -5 -5 v 5 5 h 5 5 z m 44,0 v -5 h -5 -5 v 5 5 h 5 5 z m 22,0 v -5 h -5 -5 v 5 5 h 5 5 z m 110,0 v -5 h -5 -5 v 5 5 h 5 5 z m 22,0 v -5 h -5 -5 v 5 5 h 5 5 z M 146,553 v -5 h -5 -5 v 5 5 h 5 5 z m 176,0 v -5 h -5 -5 v 5 5 h 5 5 z m 22,0 v -5 h -5 -5 v 5 5 h 5 5 z m 374,0 v -5 h -5 -5 v 5 5 h 5 5 z m 22,0 v -5 h -5 -5 v 5 5 h 5 5 z m 176,0 v -5 h -5 -5 v 5 5 h 5 5 z M 333,542 v -5 h -5 -5 v 5 5 h 5 5 z m 396,0 v -5 h -5 -5 v 5 5 h 5 5 z M 322,531 v -5 h -5 -5 v 5 5 h 5 5 z m 22,0 v -5 h -5 -5 v 5 5 h 5 5 z m 374,0 v -5 h -5 -5 v 5 5 h 5 5 z m 22,0 v -5 h -5 -5 v 5 5 h 5 5 z M 179,520 v -5 h -5 -5 v 5 5 h 5 5 z m 110,0 v -5 h -5 -5 v 5 5 h 5 5 z m 22,0 v -5 h -5 -5 v 5 5 h 5 5 z m 44,0 v -5 h -5 -5 v 5 5 h 5 5 z m 22,0 v -5 h -5 -5 v 5 5 h 5 5 z m 308,0 v -5 h -5 -5 v 5 5 h 5 5 z m 22,0 v -5 h -5 -5 v 5 5 h 5 5 z m 44,0 v -5 h -5 -5 v 5 5 h 5 5 z m 22,0 v -5 h -5 -5 v 5 5 h 5 5 z m 110,0 v -5 h -5 -5 v 5 5 h 5 5 z M 300,509 v -5 h -5 -5 v 5 5 h 5 5 z m 66,0 v -5 h -5 -5 v 5 5 h 5 5 z m 330,0 v -5 h -5 -5 v 5 5 h 5 5 z m 66,0 v -5 h -5 -5 v 5 5 h 5 5 z M 289,498 v -5 h -5 -5 v 5 5 h 5 5 z m 22,0 v -5 h -5 -5 v 5 5 h 5 5 z m 44,0 v -5 h -5 -5 v 5 5 h 5 5 z m 22,0 v -5 h -5 -5 v 5 5 h 5 5 z m 308,0 v -5 h -5 -5 v 5 5 h 5 5 z m 22,0 v -5 h -5 -5 v 5 5 h 5 5 z m 44,0 v -5 h -5 -5 v 5 5 h 5 5 z m 22,0 v -5 h -5 -5 v 5 5 h 5 5 z M 212,487 v -5 h -5 -5 v 5 5 h 5 5 z m 44,0 v -5 h -5 -5 v 5 5 h 5 5 z m 22,0 v -5 h -5 -5 v 5 5 h 5 5 z m 506,0 v -5 h -5 -5 v 5 5 h 5 5 z m 22,0 v -5 h -5 -5 v 5 5 h 5 5 z m 44,0 v -5 h -5 -5 v 5 5 h 5 5 z M 267,476 v -5 h -5 -5 v 5 5 h 5 5 z m 528,0 v -5 h -5 -5 v 5 5 h 5 5 z M 256,465 v -5 h -5 -5 v 5 5 h 5 5 z m 22,0 v -5 h -5 -5 v 5 5 h 5 5 z m 506,0 v -5 h -5 -5 v 5 5 h 5 5 z m 22,0 v -5 h -5 -5 v 5 5 h 5 5 z M 245,454 v -5 h -5 -5 v 5 5 h 5 5 z m 572,0 v -5 h -5 -5 v 5 5 h 5 5 z M 278,421 v -5 h -5 -5 v 5 5 h 5 5 z m 506,0 v -5 h -5 -5 v 5 5 h 5 5 z M 311,388 v -5 h -5 -5 v 5 5 h 5 5 z m 44,0 v -5 h -5 -5 v 5 5 h 5 5 z m 22,0 v -5 h -5 -5 v 5 5 h 5 5 z m 308,0 v -5 h -5 -5 v 5 5 h 5 5 z m 22,0 v -5 h -5 -5 v 5 5 h 5 5 z m 44,0 v -5 h -5 -5 v 5 5 h 5 5 z M 366,377 v -5 h -5 -5 v 5 5 h 5 5 z m 330,0 v -5 h -5 -5 v 5 5 h 5 5 z M 355,366 v -5 h -5 -5 v 5 5 h 5 5 z m 22,0 v -5 h -5 -5 v 5 5 h 5 5 z m 308,0 v -5 h -5 -5 v 5 5 h 5 5 z m 22,0 v -5 h -5 -5 v 5 5 h 5 5 z M 344,355 v -5 h -5 -5 v 5 5 h 5 5 z m 374,0 v -5 h -5 -5 v 5 5 h 5 5 z M 377,322 v -5 h -5 -5 v 5 5 h 5 5 z m 308,0 v -5 h -5 -5 v 5 5 h 5 5 z M 410,289 v -5 h -5 -5 v 5 5 h 5 5 z m 44,0 v -5 h -5 -5 v 5 5 h 5 5 z m 22,0 v -5 h -5 -5 v 5 5 h 5 5 z m 110,0 v -5 h -5 -5 v 5 5 h 5 5 z m 22,0 v -5 h -5 -5 v 5 5 h 5 5 z m 44,0 v -5 h -5 -5 v 5 5 h 5 5 z M 465,278 v -5 h -5 -5 v 5 5 h 5 5 z m 132,0 v -5 h -5 -5 v 5 5 h 5 5 z M 454,267 v -5 h -5 -5 v 5 5 h 5 5 z m 22,0 v -5 h -5 -5 v 5 5 h 5 5 z m 110,0 v -5 h -5 -5 v 5 5 h 5 5 z m 22,0 v -5 h -5 -5 v 5 5 h 5 5 z M 443,256 v -5 h -5 -5 v 5 5 h 5 5 z m 176,0 v -5 h -5 -5 v 5 5 h 5 5 z M 476,223 v -5 h -5 -5 v 5 5 h 5 5 z m 110,0 v -5 h -5 -5 v 5 5 h 5 5 z m -77,-33 v -5 h -5 -5 v 5 5 h 5 5 z m 44,0 v -5 h -5 -5 v 5 5 h 5 5 z"
       id="path56"
       inkscape:connector-curvature="0" />
    <path
       style="fill:#767676;fill-opacity:1"
       d="M 85.25,591.26101 91,590.90019 V 585.4501 580 h 5.5 5.5 v -5.5 -5.5 h 5.5 5.5 v -5.5 -5.5 h 5.5 5.5 v -5.5 -5.5 h 5.5 5.5 v -5.5 -5.5 h 5.5 5.5 v -5.5 -5.5 h 5.5 5.5 v -5.5 -5.5 h 5.5 5.5 v -5.5 -5.5 h 5.5 5.5 v -5.5 -5.5 h 5.5 5.5 v -5.5 -5.5 h 5.5 5.5 v -5.5 -5.5 h 5.5 5.5 v -5.5 -5.5 h 5.5 5.5 v -5.5 -5.5 h 5.5 5.5 v -5.5 -5.5 h 5.5 5.5 v -5.5 -5.5 h 5.5 5.5 v -5.5 -5.5 h 5.5 5.5 v -5.5 -5.5 h 5.5 5.5 v -5.5 -5.5 h 5.5 5.5 v -5.5 -5.5 h 5.5 5.5 v -5.5 -5.5 h 5.5 5.5 v -5.5 -5.5 h 5.5 5.5 v -5.5 -5.5 h 5.5 5.5 v -5.5 -5.5 h 5.5 5.5 v -5.5 -5.5 h 5.5 5.5 v -5.5 -5.5 h 5.5 5.5 v -5.5 -5.5 h 5.5 5.5 v -5.5 -5.5 h 5.5 5.5 v -5.5 -5.5 h 5.5 5.5 v -5.5 -5.5 h 5.5 5.5 v -5.5 -5.5 h 5.5 5.5 v -5.5 -5.5 h 5.5 5.5 v -5.5 -5.5 h 5.5 5.5 v -5.5 -5.5 h 5.5 5.5 v -5.5 -5.5 h 5.5 5.5 v -5.5 -5.5 h 5.5 5.5 v -5.5 -5.5 h 5.5 5.5 v -5.5 -5.5 h 5.5 5.5 v -5.5 -5.5 h 5.5 5.5 v -5.5 -5.5 h 5.5 5.5 v -5.5 -5.5 h 6 6 v 5.5 5.5 h 5.5 5.5 v 5.5 5.5 h 5.5 5.5 v 5.5 5.5 h 5.5 5.5 v 5.5 5.5 h 5.5 5.5 v 5.5 5.5 h 5.5 5.5 v 5.5 5.5 h 5.5 5.5 v 5.5 5.5 h 5.5 5.5 v 5.5 5.5 h 5.5 5.5 v 5.5 5.5 h 5.5 5.5 v 5.5 5.5 h 5.5 5.5 v 5.5 5.5 h 5.5 5.5 v 5.5 5.5 h 5.5 5.5 v 5.5 5.5 h 5.5 5.5 v 5.5 5.5 h 5.5 5.5 v 5.5 5.5 h 5.5 5.5 v 5.5 5.5 h 5.5 5.5 v 5.5 5.5 h 5.5 5.5 v 5.5 5.5 h 5.5 5.5 v 5.5 5.5 h 5.5 5.5 v 5.5 5.5 h 5.5 5.5 v 5.5 5.5 h 5.5 5.5 v 5.5 5.5 h 5.5 5.5 v 5.5 5.5 h 5.5 5.5 v 5.5 5.5 h 5.5 5.5 v 5.5 5.5 h 5.5 5.5 v 5.5 5.5 h 5.5 5.5 v 5.5 5.5 h 5.5 5.5 v 5.5 5.5 h 5.5 5.5 v 5.5 5.5 h 5.5 5.5 v 5.5 5.5 h 5.5 5.5 v 5.5 5.5 h 5.5 5.5 v 5.5 5.5 h 5.5 5.5 v 5.5 5.5 h 5.5 5.5 v 5.5 5.5 h 5.5 5.5 v 5.5 5.5 h 5.5 5.5 v 5.5 5.5 h 5.5 5.5 v 5.5 5.5 h 5.5 5.5 v 5.5 5.5 h 5.5 5.5 v 5.5 5.5 h 5.5 5.5 v 5.4501 5.45009 l 5.75,0.36082 5.75,0.36082 -6.25,0.18909 L 960,592 v -5.5 -5.5 h -5 -5 v 5.5 5.5 h -6 -6 v -6 -6 h 5.5 5.5 v -5 -5 h -5.5 -5.5 v -5.5 -5.5 h -5.5 -5.5 v -5.5 -5.5 h -5 -5 v 5.5 5.5 h -5.5 -5.5 v 5.5 5.5 h -5.5 -5.5 v 5 5 h 5.5 5.5 v 6 6 h -6 -6 v -5.5 -5.5 h -5 -5 v 5.5 5.5 h -6 -6 v -6 -6 h 5.5 5.5 v -5 -5 h -5.5 -5.5 v -6 -6 h 6 6 v 5.5 5.5 h 5 5 v -5.5 -5.5 h 5.5 5.5 v -5.5 -5.5 h 5.5 5.5 v -5 -5 h -5.5 -5.5 v -5.5 -5.5 h -5.5 -5.5 v -5.5 -5.5 h -5 -5 v 5.5 5.5 h -6 -6 v -6 -6 h 5.5 5.5 v -5 -5 h -5.5 -5.5 v -5.5 -5.5 h -5.5 -5.5 v -5.5 -5.5 h -5 -5 v 5.5 5.5 h -6 -6 v -6 -6 h 5.5 5.5 v -5 -5 h -5.5 -5.5 v -5.5 -5.5 h -5.5 -5.5 v -5.5 -5.5 h -5 -5 v 5.5 5.5 h -5.5 -5.5 v 5.5 5.5 h -5.5 -5.5 v 5 5 h 5.5 5.5 v 6 6 h -6 -6 v -5.5 -5.5 h -5 -5 v 5.5 5.5 h -5.5 -5.5 v 5.5 5.5 h -5.5 -5.5 v 5 5 h 5.5 5.5 v 6 6 h -6 -6 v -5.5 -5.5 h -5 -5 v 5.5 5.5 h -5.5 -5.5 v 5.5 5.5 h -5.5 -5.5 v 5 5 h 5.5 5.5 v 5.5 5.5 h 5.5 5.5 v 5.5 5.5 h 5 5 v -5.5 -5.5 h 6 6 v 6 6 h -5.5 -5.5 v 5 5 h 5.5 5.5 v 6 6 h -6 -6 v -5.5 -5.5 h -5 -5 v 5.5 5.5 h -6 -6 v -6 -6 h 5.5 5.5 v -5 -5 h -5.5 -5.5 v -5.5 -5.5 h -5.5 -5.5 v -5.5 -5.5 h -5 -5 v 5.5 5.5 h -5.5 -5.5 v 5.5 5.5 h -5.5 -5.5 v 5 5 h 5.5 5.5 v 6 6 h -6 -6 v -5.5 -5.5 h -5 -5 v 5.5 5.5 h -6 -6 v -6 -6 h 5.5 5.5 v -5 -5 h -5.5 -5.5 v -6 -6 h 6 6 v 5.5 5.5 h 5 5 v -5.5 -5.5 h 5.5 5.5 v -5.5 -5.5 h 5.5 5.5 v -5 -5 h -5.5 -5.5 v -5.5 -5.5 h -5.5 -5.5 v -5.5 -5.5 h -5 -5 v 5.5 5.5 h -6 -6 v -6 -6 h 5.5 5.5 v -5 -5 h -5.5 -5.5 v -6 -6 h 6 6 v 5.5 5.5 h 5 5 v -5.5 -5.5 h 6 6 v 6 6 h -5.5 -5.5 v 5 5 h 5.5 5.5 v 5.5 5.5 h 5.5 5.5 v 5.5 5.5 h 5 5 v -5.5 -5.5 h 5.5 5.5 v -5.5 -5.5 h 5.5 5.5 v -5 -5 h -5.5 -5.5 v -6 -6 h 6 6 v 5.5 5.5 h 5 5 v -5.5 -5.5 h 5.5 5.5 v -5.5 -5.5 h 5.5 5.5 v -5 -5 h -5.5 -5.5 v -6 -6 h 6 6 v 5.5 5.5 h 5 5 v -5.5 -5.5 h 5.5 5.5 v -5.5 -5.5 h 5.5 5.5 v -5 -5 h -5.5 -5.5 v -5.5 -5.5 h -5.5 -5.5 v -5.5 -5.5 h -5 -5 v 5.5 5.5 h -6 -6 v -6 -6 h 5.5 5.5 v -5 -5 h -5.5 -5.5 v -5.5 -5.5 h -5.5 -5.5 v -5.5 -5.5 h -5 -5 v 5.5 5.5 h -6 -6 v -6 -6 h 5.5 5.5 v -5 -5 h -5.5 -5.5 v -5.5 -5.5 h -5.5 -5.5 v -5.5 -5.5 h -5 -5 v 5.5 5.5 h -5.5 -5.5 v 5.5 5.5 h -5.5 -5.5 v 5 5 h 5.5 5.5 v 6 6 h -6 -6 v -5.5 -5.5 h -5 -5 v 5.5 5.5 h -6 -6 v -6 -6 h 5.5 5.5 v -5 -5 h -5.5 -5.5 v -6 -6 h 6 6 v 5.5 5.5 h 5 5 v -5.5 -5.5 h 5.5 5.5 v -5.5 -5.5 h 5.5 5.5 v -5 -5 h -5.5 -5.5 v -5.5 -5.5 h -5.5 -5.5 v -5.5 -5.5 h -5 -5 v 5.5 5.5 h -6 -6 v -6 -6 h 5.5 5.5 v -5 -5 h -5.5 -5.5 v -5.5 -5.5 h -5.5 -5.5 v -5.5 -5.5 h -5 -5 v 5.5 5.5 h -6 -6 v -6 -6 h 5.5 5.5 v -5 -5 h -5.5 -5.5 v -5.5 -5.5 h -5.5 -5.5 v -5.5 -5.5 h -5 -5 v 5.5 5.5 h -5.5 -5.5 v 5.5 5.5 h -5.5 -5.5 v 5 5 h 5.5 5.5 v 6 6 h -6 -6 v -5.5 -5.5 h -5 -5 v 5.5 5.5 h -6 -6 v -6 -6 h 5.5 5.5 v -5 -5 h -5.5 -5.5 v -6 -6 h 6 6 v 5.5 5.5 h 5 5 v -5.5 -5.5 h 5.5 5.5 v -5.5 -5.5 h 5.5 5.5 v -5 -5 h -5.5 -5.5 v -5.5 -5.5 h -5.5 -5.5 v -5.5 -5.5 h -5 -5 v 5.5 5.5 h -6 -6 v -6 -6 h 5.5 5.5 v -5 -5 h -5.5 -5.5 v -5.5 -5.5 h -5.5 -5.5 v -5.5 -5.5 h -5 -5 v 5.5 5.5 h -6 -6 v -6 -6 h 5.5 5.5 v -5 -5 h -5.5 -5.5 v -5.5 -5.5 h -5.5 -5.5 v -5.5 -5.5 h -5 -5 v 5.5 5.5 h -5.5 -5.5 v 5.5 5.5 h -5.5 -5.5 v 5 5 h 5.5 5.5 v 6 6 h -6 -6 v -5.5 -5.5 h -5 -5 v 5.5 5.5 h -5.5 -5.5 v 5.5 5.5 h -5.5 -5.5 v 5 5 h 5.5 5.5 v 6 6 h -6 -6 v -5.5 -5.5 h -5 -5 v 5.5 5.5 h -5.5 -5.5 v 5.5 5.5 h -5.5 -5.5 v 5 5 h 5.5 5.5 v 5.5 5.5 h 5.5 5.5 v 5.5 5.5 h 5 5 v -5.5 -5.5 h 6 6 v 6 6 h -5.5 -5.5 v 5 5 h 5.5 5.5 v 6 6 h -6 -6 v -5.5 -5.5 h -5 -5 v 5.5 5.5 h -6 -6 v -6 -6 h 5.5 5.5 v -5 -5 h -5.5 -5.5 v -5.5 -5.5 h -5.5 -5.5 v -5.5 -5.5 h -5 -5 v 5.5 5.5 h -5.5 -5.5 v 5.5 5.5 h -5.5 -5.5 v 5 5 h 5.5 5.5 v 6 6 h -6 -6 v -5.5 -5.5 h -5 -5 v 5.5 5.5 h -5.5 -5.5 v 5.5 5.5 h -5.5 -5.5 v 5 5 h 5.5 5.5 v 6 6 h -6 -6 v -5.5 -5.5 h -5 -5 v 5.5 5.5 h -5.5 -5.5 v 5.5 5.5 h -5.5 -5.5 v 5 5 h 5.5 5.5 v 5.5 5.5 h 5.5 5.5 v 5.5 5.5 h 5 5 v -5.5 -5.5 h 6 6 v 6 6 h -5.5 -5.5 v 5 5 h 5.5 5.5 v 6 6 h -6 -6 v -5.5 -5.5 h -5 -5 v 5.5 5.5 h -6 -6 v -6 -6 h 5.5 5.5 v -5 -5 h -5.5 -5.5 v -5.5 -5.5 h -5.5 -5.5 v -5.5 -5.5 h -5 -5 v 5.5 5.5 h -5.5 -5.5 v 5.5 5.5 h -5.5 -5.5 v 5 5 h 5.5 5.5 v 6 6 h -6 -6 v -5.5 -5.5 h -5 -5 v 5.5 5.5 h -5.5 -5.5 v 5.5 5.5 h -5.5 -5.5 v 5 5 h 5.5 5.5 v 6 6 h -6 -6 v -5.5 -5.5 h -5 -5 v 5.5 5.5 h -5.5 -5.5 v 5.5 5.5 h -5.5 -5.5 v 5 5 h 5.5 5.5 v 5.5 5.5 h 5.5 5.5 v 5.5 5.5 h 5 5 v -5.5 -5.5 h 6 6 v 6 6 h -5.5 -5.5 v 5 5 h 5.5 5.5 v 5.5 5.5 h 5.5 5.5 v 5.5 5.5 h 5 5 v -5.5 -5.5 h 6 6 v 6 6 h -5.5 -5.5 v 5 5 h 5.5 5.5 v 5.5 5.5 h 5.5 5.5 v 5.5 5.5 h 5 5 v -5.5 -5.5 h 5.5 5.5 v -5.5 -5.5 h 5.5 5.5 v -5 -5 h -5.5 -5.5 v -6 -6 h 6 6 v 5.5 5.5 h 5 5 v -5.5 -5.5 h 6 6 v 6 6 h -5.5 -5.5 v 5 5 h 5.5 5.5 v 6 6 h -6 -6 v -5.5 -5.5 h -5 -5 v 5.5 5.5 h -5.5 -5.5 v 5.5 5.5 h -5.5 -5.5 v 5 5 h 5.5 5.5 v 5.5 5.5 h 5.5 5.5 v 5.5 5.5 h 5 5 v -5.5 -5.5 h 6 6 v 6 6 h -5.5 -5.5 v 5 5 h 5.5 5.5 v 6 6 h -6 -6 v -5.5 -5.5 h -5 -5 v 5.5 5.5 h -6 -6 v -6 -6 h 5.5 5.5 v -5 -5 h -5.5 -5.5 v -5.5 -5.5 h -5.5 -5.5 v -5.5 -5.5 h -5 -5 v 5.5 5.5 h -5.5 -5.5 v 5.5 5.5 h -5.5 -5.5 v 5 5 h 5.5 5.5 v 6 6 h -6 -6 v -5.5 -5.5 h -5 -5 v 5.5 5.5 h -6 -6 v -6 -6 h 5.5 5.5 v -5 -5 h -5.5 -5.5 v -6 -6 h 6 6 v 5.5 5.5 h 5 5 v -5.5 -5.5 h 5.5 5.5 v -5.5 -5.5 h 5.5 5.5 v -5 -5 h -5.5 -5.5 v -5.5 -5.5 h -5.5 -5.5 v -5.5 -5.5 h -5 -5 v 5.5 5.5 h -6 -6 v -6 -6 h 5.5 5.5 v -5 -5 h -5.5 -5.5 v -5.5 -5.5 h -5.5 -5.5 v -5.5 -5.5 h -5 -5 v 5.5 5.5 h -6 -6 v -6 -6 h 5.5 5.5 v -5 -5 h -5.5 -5.5 v -5.5 -5.5 h -5.5 -5.5 v -5.5 -5.5 h -5 -5 v 5.5 5.5 h -5.5 -5.5 v 5.5 5.5 h -5.5 -5.5 v 5 5 h 5.5 5.5 v 6 6 h -6 -6 v -5.5 -5.5 h -5 -5 v 5.5 5.5 h -5.5 -5.5 v 5.5 5.5 h -5.5 -5.5 v 5 5 h 5.5 5.5 v 6 6 h -6 -6 v -5.5 -5.5 h -5 -5 v 5.5 5.5 h -5.5 -5.5 v 5.5 5.5 h -5.5 -5.5 v 5 5 h 5.5 5.5 v 5.5 5.5 h 5.5 5.5 v 5.5 5.5 h 5 5 v -5.5 -5.5 h 6 6 v 6 6 h -5.5 -5.5 v 5 5 h 5.5 5.5 v 6 6 h -6 -6 v -5.5 -5.5 h -5 -5 v 5.5 5.5 h -6 -6 v -6 -6 h 5.5 5.5 v -5 -5 h -5.5 -5.5 v -5.5 -5.5 h -5.5 -5.5 v -5.5 -5.5 h -5 -5 v 5.5 5.5 h -5.5 -5.5 v 5.5 5.5 h -5.5 -5.5 v 5 5 h 5.5 5.5 v 6 6 h -6 -6 v -5.5 -5.5 h -5 -5 v 5.5 5.5 l -6.25,-0.18908 -6.25,-0.18909 z M 113,586 v -5 h -5 -5 v 5 5 h 5 5 z m 44,0 v -5 h -5 -5 v 5 5 h 5 5 z m 22,0 v -5 h -5 -5 v 5 5 h 5 5 z m 110,0 v -5 h -5 -5 v 5 5 h 5 5 z m 22,0 v -5 h -5 -5 v 5 5 h 5 5 z m 44,0 v -5 h -5 -5 v 5 5 h 5 5 z m 22,0 v -5 h -5 -5 v 5 5 h 5 5 z m 308,0 v -5 h -5 -5 v 5 5 h 5 5 z m 22,0 v -5 h -5 -5 v 5 5 h 5 5 z m 44,0 v -5 h -5 -5 v 5 5 h 5 5 z m 22,0 v -5 h -5 -5 v 5 5 h 5 5 z m 110,0 v -5 h -5 -5 v 5 5 h 5 5 z m 22,0 v -5 h -5 -5 v 5 5 h 5 5 z m 44,0 v -5 h -5 -5 v 5 5 h 5 5 z M 168,575 v -5 h -5 -5 v 5 5 h 5 5 z m 132,0 v -5 h -5 -5 v 5 5 h 5 5 z m 66,0 v -5 h -5 -5 v 5 5 h 5 5 z m 330,0 v -5 h -5 -5 v 5 5 h 5 5 z m 66,0 v -5 h -5 -5 v 5 5 h 5 5 z m 132,0 v -5 h -5 -5 v 5 5 h 5 5 z M 157,564 v -5 h -5 -5 v 5 5 h 5 5 z m 22,0 v -5 h -5 -5 v 5 5 h 5 5 z m 110,0 v -5 h -5 -5 v 5 5 h 5 5 z m 22,0 v -5 h -5 -5 v 5 5 h 5 5 z m 44,0 v -5 h -5 -5 v 5 5 h 5 5 z m 22,0 v -5 h -5 -5 v 5 5 h 5 5 z m 308,0 v -5 h -5 -5 v 5 5 h 5 5 z m 22,0 v -5 h -5 -5 v 5 5 h 5 5 z m 44,0 v -5 h -5 -5 v 5 5 h 5 5 z m 22,0 v -5 h -5 -5 v 5 5 h 5 5 z m 110,0 v -5 h -5 -5 v 5 5 h 5 5 z m 22,0 v -5 h -5 -5 v 5 5 h 5 5 z M 146,553 v -5 h -5 -5 v 5 5 h 5 5 z m 176,0 v -5 h -5 -5 v 5 5 h 5 5 z m 22,0 v -5 h -5 -5 v 5 5 h 5 5 z m 374,0 v -5 h -5 -5 v 5 5 h 5 5 z m 22,0 v -5 h -5 -5 v 5 5 h 5 5 z m 176,0 v -5 h -5 -5 v 5 5 h 5 5 z M 333,542 v -5 h -5 -5 v 5 5 h 5 5 z m 396,0 v -5 h -5 -5 v 5 5 h 5 5 z M 322,531 v -5 h -5 -5 v 5 5 h 5 5 z m 22,0 v -5 h -5 -5 v 5 5 h 5 5 z m 374,0 v -5 h -5 -5 v 5 5 h 5 5 z m 22,0 v -5 h -5 -5 v 5 5 h 5 5 z M 179,520 v -5 h -5 -5 v 5 5 h 5 5 z m 110,0 v -5 h -5 -5 v 5 5 h 5 5 z m 22,0 v -5 h -5 -5 v 5 5 h 5 5 z m 44,0 v -5 h -5 -5 v 5 5 h 5 5 z m 22,0 v -5 h -5 -5 v 5 5 h 5 5 z m 308,0 v -5 h -5 -5 v 5 5 h 5 5 z m 22,0 v -5 h -5 -5 v 5 5 h 5 5 z m 44,0 v -5 h -5 -5 v 5 5 h 5 5 z m 22,0 v -5 h -5 -5 v 5 5 h 5 5 z m 110,0 v -5 h -5 -5 v 5 5 h 5 5 z M 300,509 v -5 h -5 -5 v 5 5 h 5 5 z m 66,0 v -5 h -5 -5 v 5 5 h 5 5 z m 330,0 v -5 h -5 -5 v 5 5 h 5 5 z m 66,0 v -5 h -5 -5 v 5 5 h 5 5 z M 289,498 v -5 h -5 -5 v 5 5 h 5 5 z m 22,0 v -5 h -5 -5 v 5 5 h 5 5 z m 44,0 v -5 h -5 -5 v 5 5 h 5 5 z m 22,0 v -5 h -5 -5 v 5 5 h 5 5 z m 308,0 v -5 h -5 -5 v 5 5 h 5 5 z m 22,0 v -5 h -5 -5 v 5 5 h 5 5 z m 44,0 v -5 h -5 -5 v 5 5 h 5 5 z m 22,0 v -5 h -5 -5 v 5 5 h 5 5 z M 212,487 v -5 h -5 -5 v 5 5 h 5 5 z m 44,0 v -5 h -5 -5 v 5 5 h 5 5 z m 22,0 v -5 h -5 -5 v 5 5 h 5 5 z m 506,0 v -5 h -5 -5 v 5 5 h 5 5 z m 22,0 v -5 h -5 -5 v 5 5 h 5 5 z m 44,0 v -5 h -5 -5 v 5 5 h 5 5 z M 267,476 v -5 h -5 -5 v 5 5 h 5 5 z m 528,0 v -5 h -5 -5 v 5 5 h 5 5 z M 256,465 v -5 h -5 -5 v 5 5 h 5 5 z m 22,0 v -5 h -5 -5 v 5 5 h 5 5 z m 506,0 v -5 h -5 -5 v 5 5 h 5 5 z m 22,0 v -5 h -5 -5 v 5 5 h 5 5 z M 245,454 v -5 h -5 -5 v 5 5 h 5 5 z m 572,0 v -5 h -5 -5 v 5 5 h 5 5 z M 278,421 v -5 h -5 -5 v 5 5 h 5 5 z m 506,0 v -5 h -5 -5 v 5 5 h 5 5 z M 311,388 v -5 h -5 -5 v 5 5 h 5 5 z m 44,0 v -5 h -5 -5 v 5 5 h 5 5 z m 22,0 v -5 h -5 -5 v 5 5 h 5 5 z m 308,0 v -5 h -5 -5 v 5 5 h 5 5 z m 22,0 v -5 h -5 -5 v 5 5 h 5 5 z m 44,0 v -5 h -5 -5 v 5 5 h 5 5 z M 366,377 v -5 h -5 -5 v 5 5 h 5 5 z m 330,0 v -5 h -5 -5 v 5 5 h 5 5 z M 355,366 v -5 h -5 -5 v 5 5 h 5 5 z m 22,0 v -5 h -5 -5 v 5 5 h 5 5 z m 308,0 v -5 h -5 -5 v 5 5 h 5 5 z m 22,0 v -5 h -5 -5 v 5 5 h 5 5 z M 344,355 v -5 h -5 -5 v 5 5 h 5 5 z m 374,0 v -5 h -5 -5 v 5 5 h 5 5 z M 377,322 v -5 h -5 -5 v 5 5 h 5 5 z m 308,0 v -5 h -5 -5 v 5 5 h 5 5 z M 410,289 v -5 h -5 -5 v 5 5 h 5 5 z m 44,0 v -5 h -5 -5 v 5 5 h 5 5 z m 22,0 v -5 h -5 -5 v 5 5 h 5 5 z m 110,0 v -5 h -5 -5 v 5 5 h 5 5 z m 22,0 v -5 h -5 -5 v 5 5 h 5 5 z m 44,0 v -5 h -5 -5 v 5 5 h 5 5 z M 465,278 v -5 h -5 -5 v 5 5 h 5 5 z m 132,0 v -5 h -5 -5 v 5 5 h 5 5 z M 454,267 v -5 h -5 -5 v 5 5 h 5 5 z m 22,0 v -5 h -5 -5 v 5 5 h 5 5 z m 110,0 v -5 h -5 -5 v 5 5 h 5 5 z m 22,0 v -5 h -5 -5 v 5 5 h 5 5 z M 443,256 v -5 h -5 -5 v 5 5 h 5 5 z m 176,0 v -5 h -5 -5 v 5 5 h 5 5 z M 476,223 v -5 h -5 -5 v 5 5 h 5 5 z m 110,0 v -5 h -5 -5 v 5 5 h 5 5 z m -77,-33 v -5 h -5 -5 v 5 5 h 5 5 z m 44,0 v -5 h -5 -5 v 5 5 h 5 5 z"
       id="path54"
       inkscape:connector-curvature="0" />
    <path
       style="fill:#606060;fill-opacity:1"
       d="M 85.25,591.26101 91,590.90019 V 585.4501 580 h 5.5 5.5 v -5.5 -5.5 h 5.5 5.5 v -5.5 -5.5 h 5.5 5.5 v -5.5 -5.5 h 5.5 5.5 v -5.5 -5.5 h 5.5 5.5 v -5.5 -5.5 h 5.5 5.5 v -5.5 -5.5 h 5.5 5.5 v -5.5 -5.5 h 5.5 5.5 v -5.5 -5.5 h 5.5 5.5 v -5.5 -5.5 h 5.5 5.5 v -5.5 -5.5 h 5.5 5.5 v -5.5 -5.5 h 5.5 5.5 v -5.5 -5.5 h 5.5 5.5 v -5.5 -5.5 h 5.5 5.5 v -5.5 -5.5 h 5.5 5.5 v -5.5 -5.5 h 5.5 5.5 v -5.5 -5.5 h 5.5 5.5 v -5.5 -5.5 h 5.5 5.5 v -5.5 -5.5 h 5.5 5.5 v -5.5 -5.5 h 5.5 5.5 v -5.5 -5.5 h 5.5 5.5 v -5.5 -5.5 h 5.5 5.5 v -5.5 -5.5 h 5.5 5.5 v -5.5 -5.5 h 5.5 5.5 v -5.5 -5.5 h 5.5 5.5 v -5.5 -5.5 h 5.5 5.5 v -5.5 -5.5 h 5.5 5.5 v -5.5 -5.5 h 5.5 5.5 v -5.5 -5.5 h 5.5 5.5 v -5.5 -5.5 h 5.5 5.5 v -5.5 -5.5 h 5.5 5.5 v -5.5 -5.5 h 5.5 5.5 v -5.5 -5.5 h 5.5 5.5 v -5.5 -5.5 h 5.5 5.5 v -5.5 -5.5 h 5.5 5.5 v -5.5 -5.5 h 5.5 5.5 v -5.5 -5.5 h 5.5 5.5 v -5.5 -5.5 h 5.5 5.5 v -5.5 -5.5 h 5.5 5.5 v -5.5 -5.5 h 6 6 v 5.5 5.5 h 5.5 5.5 v 5.5 5.5 h 5.5 5.5 v 5.5 5.5 h 5.5 5.5 v 5.5 5.5 h 5.5 5.5 v 5.5 5.5 h 5.5 5.5 v 5.5 5.5 h 5.5 5.5 v 5.5 5.5 h 5.5 5.5 v 5.5 5.5 h 5.5 5.5 v 5.5 5.5 h 5.5 5.5 v 5.5 5.5 h 5.5 5.5 v 5.5 5.5 h 5.5 5.5 v 5.5 5.5 h 5.5 5.5 v 5.5 5.5 h 5.5 5.5 v 5.5 5.5 h 5.5 5.5 v 5.5 5.5 h 5.5 5.5 v 5.5 5.5 h 5.5 5.5 v 5.5 5.5 h 5.5 5.5 v 5.5 5.5 h 5.5 5.5 v 5.5 5.5 h 5.5 5.5 v 5.5 5.5 h 5.5 5.5 v 5.5 5.5 h 5.5 5.5 v 5.5 5.5 h 5.5 5.5 v 5.5 5.5 h 5.5 5.5 v 5.5 5.5 h 5.5 5.5 v 5.5 5.5 h 5.5 5.5 v 5.5 5.5 h 5.5 5.5 v 5.5 5.5 h 5.5 5.5 v 5.5 5.5 h 5.5 5.5 v 5.5 5.5 h 5.5 5.5 v 5.5 5.5 h 5.5 5.5 v 5.5 5.5 h 5.5 5.5 v 5.5 5.5 h 5.5 5.5 v 5.5 5.5 h 5.5 5.5 v 5.5 5.5 h 5.5 5.5 v 5.5 5.5 h 5.5 5.5 v 5.5 5.5 h 5.5 5.5 v 5.5 5.5 h 5.5 5.5 v 5.5 5.5 h 5.5 5.5 v 5.5 5.5 h 5.5 5.5 v 5.4501 5.45009 l 5.75,0.36082 5.75,0.36082 -6.25,0.18909 L 960,592 v -5.5 -5.5 h -5 -5 v 5.5 5.5 h -6 -6 v -6 -6 h 5.5 5.5 v -5 -5 h -5.5 -5.5 v -5.5 -5.5 h -5.5 -5.5 v -5.5 -5.5 h -5 -5 v 5.5 5.5 h -5.5 -5.5 v 5.5 5.5 h -5.5 -5.5 v 5 5 h 5.5 5.5 v 6 6 h -6 -6 v -5.5 -5.5 h -5 -5 v 5.5 5.5 h -6 -6 v -6 -6 h 5.5 5.5 v -5 -5 h -5.5 -5.5 v -6 -6 h 6 6 v 5.5 5.5 h 5 5 v -5.5 -5.5 h 5.5 5.5 v -5.5 -5.5 h 5.5 5.5 v -5 -5 h -5.5 -5.5 v -5.5 -5.5 h -5.5 -5.5 v -5.5 -5.5 h -5 -5 v 5.5 5.5 h -6 -6 v -6 -6 h 5.5 5.5 v -5 -5 h -5.5 -5.5 v -5.5 -5.5 h -5.5 -5.5 v -5.5 -5.5 h -5 -5 v 5.5 5.5 h -6 -6 v -6 -6 h 5.5 5.5 v -5 -5 h -5.5 -5.5 v -5.5 -5.5 h -5.5 -5.5 v -5.5 -5.5 h -5 -5 v 5.5 5.5 h -5.5 -5.5 v 5.5 5.5 h -5.5 -5.5 v 5 5 h 5.5 5.5 v 6 6 h -6 -6 v -5.5 -5.5 h -5 -5 v 5.5 5.5 h -5.5 -5.5 v 5.5 5.5 h -5.5 -5.5 v 5 5 h 5.5 5.5 v 6 6 h -6 -6 v -5.5 -5.5 h -5 -5 v 5.5 5.5 h -5.5 -5.5 v 5.5 5.5 h -5.5 -5.5 v 5 5 h 5.5 5.5 v 5.5 5.5 h 5.5 5.5 v 5.5 5.5 h 5 5 v -5.5 -5.5 h 6 6 v 6 6 h -5.5 -5.5 v 5 5 h 5.5 5.5 v 6 6 h -6 -6 v -5.5 -5.5 h -5 -5 v 5.5 5.5 h -6 -6 v -6 -6 h 5.5 5.5 v -5 -5 h -5.5 -5.5 v -5.5 -5.5 h -5.5 -5.5 v -5.5 -5.5 h -5 -5 v 5.5 5.5 h -5.5 -5.5 v 5.5 5.5 h -5.5 -5.5 v 5 5 h 5.5 5.5 v 6 6 h -6 -6 v -5.5 -5.5 h -5 -5 v 5.5 5.5 h -6 -6 v -6 -6 h 5.5 5.5 v -5 -5 h -5.5 -5.5 v -6 -6 h 6 6 v 5.5 5.5 h 5 5 v -5.5 -5.5 h 5.5 5.5 v -5.5 -5.5 h 5.5 5.5 v -5 -5 h -5.5 -5.5 v -5.5 -5.5 h -5.5 -5.5 v -5.5 -5.5 h -5 -5 v 5.5 5.5 h -6 -6 v -6 -6 h 5.5 5.5 v -5 -5 h -5.5 -5.5 v -6 -6 h 6 6 v 5.5 5.5 h 5 5 v -5.5 -5.5 h 6 6 v 6 6 h -5.5 -5.5 v 5 5 h 5.5 5.5 v 5.5 5.5 h 5.5 5.5 v 5.5 5.5 h 5 5 v -5.5 -5.5 h 5.5 5.5 v -5.5 -5.5 h 5.5 5.5 v -5 -5 h -5.5 -5.5 v -6 -6 h 6 6 v 5.5 5.5 h 5 5 v -5.5 -5.5 h 5.5 5.5 v -5.5 -5.5 h 5.5 5.5 v -5 -5 h -5.5 -5.5 v -6 -6 h 6 6 v 5.5 5.5 h 5 5 v -5.5 -5.5 h 5.5 5.5 v -5.5 -5.5 h 5.5 5.5 v -5 -5 h -5.5 -5.5 v -5.5 -5.5 h -5.5 -5.5 v -5.5 -5.5 h -5 -5 v 5.5 5.5 h -6 -6 v -6 -6 h 5.5 5.5 v -5 -5 h -5.5 -5.5 v -5.5 -5.5 h -5.5 -5.5 v -5.5 -5.5 h -5 -5 v 5.5 5.5 h -6 -6 v -6 -6 h 5.5 5.5 v -5 -5 h -5.5 -5.5 v -5.5 -5.5 h -5.5 -5.5 v -5.5 -5.5 h -5 -5 v 5.5 5.5 h -5.5 -5.5 v 5.5 5.5 h -5.5 -5.5 v 5 5 h 5.5 5.5 v 6 6 h -6 -6 v -5.5 -5.5 h -5 -5 v 5.5 5.5 h -6 -6 v -6 -6 h 5.5 5.5 v -5 -5 h -5.5 -5.5 v -6 -6 h 6 6 v 5.5 5.5 h 5 5 v -5.5 -5.5 h 5.5 5.5 v -5.5 -5.5 h 5.5 5.5 v -5 -5 h -5.5 -5.5 v -5.5 -5.5 h -5.5 -5.5 v -5.5 -5.5 h -5 -5 v 5.5 5.5 h -6 -6 v -6 -6 h 5.5 5.5 v -5 -5 h -5.5 -5.5 v -5.5 -5.5 h -5.5 -5.5 v -5.5 -5.5 h -5 -5 v 5.5 5.5 h -6 -6 v -6 -6 h 5.5 5.5 v -5 -5 h -5.5 -5.5 v -5.5 -5.5 h -5.5 -5.5 v -5.5 -5.5 h -5 -5 v 5.5 5.5 h -5.5 -5.5 v 5.5 5.5 h -5.5 -5.5 v 5 5 h 5.5 5.5 v 6 6 h -6 -6 v -5.5 -5.5 h -5 -5 v 5.5 5.5 h -6 -6 v -6 -6 h 5.5 5.5 v -5 -5 h -5.5 -5.5 v -6 -6 h 6 6 v 5.5 5.5 h 5 5 v -5.5 -5.5 h 5.5 5.5 v -5.5 -5.5 h 5.5 5.5 v -5 -5 h -5.5 -5.5 v -5.5 -5.5 h -5.5 -5.5 v -5.5 -5.5 h -5 -5 v 5.5 5.5 h -6 -6 v -6 -6 h 5.5 5.5 v -5 -5 h -5.5 -5.5 v -5.5 -5.5 h -5.5 -5.5 v -5.5 -5.5 h -5 -5 v 5.5 5.5 h -6 -6 v -6 -6 h 5.5 5.5 v -5 -5 h -5.5 -5.5 v -5.5 -5.5 h -5.5 -5.5 v -5.5 -5.5 h -5 -5 v 5.5 5.5 h -5.5 -5.5 v 5.5 5.5 h -5.5 -5.5 v 5 5 h 5.5 5.5 v 6 6 h -6 -6 v -5.5 -5.5 h -5 -5 v 5.5 5.5 h -5.5 -5.5 v 5.5 5.5 h -5.5 -5.5 v 5 5 h 5.5 5.5 v 6 6 h -6 -6 v -5.5 -5.5 h -5 -5 v 5.5 5.5 h -5.5 -5.5 v 5.5 5.5 h -5.5 -5.5 v 5 5 h 5.5 5.5 v 5.5 5.5 h 5.5 5.5 v 5.5 5.5 h 5 5 v -5.5 -5.5 h 6 6 v 6 6 h -5.5 -5.5 v 5 5 h 5.5 5.5 v 6 6 h -6 -6 v -5.5 -5.5 h -5 -5 v 5.5 5.5 h -6 -6 v -6 -6 h 5.5 5.5 v -5 -5 h -5.5 -5.5 v -5.5 -5.5 h -5.5 -5.5 v -5.5 -5.5 h -5 -5 v 5.5 5.5 h -5.5 -5.5 v 5.5 5.5 h -5.5 -5.5 v 5 5 h 5.5 5.5 v 6 6 h -6 -6 v -5.5 -5.5 h -5 -5 v 5.5 5.5 h -5.5 -5.5 v 5.5 5.5 h -5.5 -5.5 v 5 5 h 5.5 5.5 v 6 6 h -6 -6 v -5.5 -5.5 h -5 -5 v 5.5 5.5 h -5.5 -5.5 v 5.5 5.5 h -5.5 -5.5 v 5 5 h 5.5 5.5 v 5.5 5.5 h 5.5 5.5 v 5.5 5.5 h 5 5 v -5.5 -5.5 h 6 6 v 6 6 h -5.5 -5.5 v 5 5 h 5.5 5.5 v 6 6 h -6 -6 v -5.5 -5.5 h -5 -5 v 5.5 5.5 h -6 -6 v -6 -6 h 5.5 5.5 v -5 -5 h -5.5 -5.5 v -5.5 -5.5 h -5.5 -5.5 v -5.5 -5.5 h -5 -5 v 5.5 5.5 h -5.5 -5.5 v 5.5 5.5 h -5.5 -5.5 v 5 5 h 5.5 5.5 v 6 6 h -6 -6 v -5.5 -5.5 h -5 -5 v 5.5 5.5 h -5.5 -5.5 v 5.5 5.5 h -5.5 -5.5 v 5 5 h 5.5 5.5 v 6 6 h -6 -6 v -5.5 -5.5 h -5 -5 v 5.5 5.5 h -5.5 -5.5 v 5.5 5.5 h -5.5 -5.5 v 5 5 h 5.5 5.5 v 5.5 5.5 h 5.5 5.5 v 5.5 5.5 h 5 5 v -5.5 -5.5 h 6 6 v 6 6 h -5.5 -5.5 v 5 5 h 5.5 5.5 v 5.5 5.5 h 5.5 5.5 v 5.5 5.5 h 5 5 v -5.5 -5.5 h 6 6 v 6 6 h -5.5 -5.5 v 5 5 h 5.5 5.5 v 5.5 5.5 h 5.5 5.5 v 5.5 5.5 h 5 5 v -5.5 -5.5 h 5.5 5.5 v -5.5 -5.5 h 5.5 5.5 v -5 -5 h -5.5 -5.5 v -6 -6 h 6 6 v 5.5 5.5 h 5 5 v -5.5 -5.5 h 6 6 v 6 6 h -5.5 -5.5 v 5 5 h 5.5 5.5 v 6 6 h -6 -6 v -5.5 -5.5 h -5 -5 v 5.5 5.5 h -5.5 -5.5 v 5.5 5.5 h -5.5 -5.5 v 5 5 h 5.5 5.5 v 5.5 5.5 h 5.5 5.5 v 5.5 5.5 h 5 5 v -5.5 -5.5 h 6 6 v 6 6 h -5.5 -5.5 v 5 5 h 5.5 5.5 v 6 6 h -6 -6 v -5.5 -5.5 h -5 -5 v 5.5 5.5 h -6 -6 v -6 -6 h 5.5 5.5 v -5 -5 h -5.5 -5.5 v -5.5 -5.5 h -5.5 -5.5 v -5.5 -5.5 h -5 -5 v 5.5 5.5 h -5.5 -5.5 v 5.5 5.5 h -5.5 -5.5 v 5 5 h 5.5 5.5 v 6 6 h -6 -6 v -5.5 -5.5 h -5 -5 v 5.5 5.5 h -6 -6 v -6 -6 h 5.5 5.5 v -5 -5 h -5.5 -5.5 v -6 -6 h 6 6 v 5.5 5.5 h 5 5 v -5.5 -5.5 h 5.5 5.5 v -5.5 -5.5 h 5.5 5.5 v -5 -5 h -5.5 -5.5 v -5.5 -5.5 h -5.5 -5.5 v -5.5 -5.5 h -5 -5 v 5.5 5.5 h -6 -6 v -6 -6 h 5.5 5.5 v -5 -5 h -5.5 -5.5 v -5.5 -5.5 h -5.5 -5.5 v -5.5 -5.5 h -5 -5 v 5.5 5.5 h -6 -6 v -6 -6 h 5.5 5.5 v -5 -5 h -5.5 -5.5 v -5.5 -5.5 h -5.5 -5.5 v -5.5 -5.5 h -5 -5 v 5.5 5.5 h -5.5 -5.5 v 5.5 5.5 h -5.5 -5.5 v 5 5 h 5.5 5.5 v 6 6 h -6 -6 v -5.5 -5.5 h -5 -5 v 5.5 5.5 h -5.5 -5.5 v 5.5 5.5 h -5.5 -5.5 v 5 5 h 5.5 5.5 v 6 6 h -6 -6 v -5.5 -5.5 h -5 -5 v 5.5 5.5 h -5.5 -5.5 v 5.5 5.5 h -5.5 -5.5 v 5 5 h 5.5 5.5 v 5.5 5.5 h 5.5 5.5 v 5.5 5.5 h 5 5 v -5.5 -5.5 h 6 6 v 6 6 h -5.5 -5.5 v 5 5 h 5.5 5.5 v 6 6 h -6 -6 v -5.5 -5.5 h -5 -5 v 5.5 5.5 h -6 -6 v -6 -6 h 5.5 5.5 v -5 -5 h -5.5 -5.5 v -5.5 -5.5 h -5.5 -5.5 v -5.5 -5.5 h -5 -5 v 5.5 5.5 h -5.5 -5.5 v 5.5 5.5 h -5.5 -5.5 v 5 5 h 5.5 5.5 v 6 6 h -6 -6 v -5.5 -5.5 h -5 -5 v 5.5 5.5 l -6.25,-0.18908 -6.25,-0.18909 z M 113,586 v -5 h -5 -5 v 5 5 h 5 5 z m 44,0 v -5 h -5 -5 v 5 5 h 5 5 z m 22,0 v -5 h -5 -5 v 5 5 h 5 5 z m 110,0 v -5 h -5 -5 v 5 5 h 5 5 z m 22,0 v -5 h -5 -5 v 5 5 h 5 5 z m 44,0 v -5 h -5 -5 v 5 5 h 5 5 z m 22,0 v -5 h -5 -5 v 5 5 h 5 5 z m 308,0 v -5 h -5 -5 v 5 5 h 5 5 z m 22,0 v -5 h -5 -5 v 5 5 h 5 5 z m 44,0 v -5 h -5 -5 v 5 5 h 5 5 z m 22,0 v -5 h -5 -5 v 5 5 h 5 5 z m 110,0 v -5 h -5 -5 v 5 5 h 5 5 z m 22,0 v -5 h -5 -5 v 5 5 h 5 5 z m 44,0 v -5 h -5 -5 v 5 5 h 5 5 z M 168,575 v -5 h -5 -5 v 5 5 h 5 5 z m 132,0 v -5 h -5 -5 v 5 5 h 5 5 z m 66,0 v -5 h -5 -5 v 5 5 h 5 5 z m 330,0 v -5 h -5 -5 v 5 5 h 5 5 z m 66,0 v -5 h -5 -5 v 5 5 h 5 5 z m 132,0 v -5 h -5 -5 v 5 5 h 5 5 z M 157,564 v -5 h -5 -5 v 5 5 h 5 5 z m 22,0 v -5 h -5 -5 v 5 5 h 5 5 z m 110,0 v -5 h -5 -5 v 5 5 h 5 5 z m 22,0 v -5 h -5 -5 v 5 5 h 5 5 z m 44,0 v -5 h -5 -5 v 5 5 h 5 5 z m 22,0 v -5 h -5 -5 v 5 5 h 5 5 z m 308,0 v -5 h -5 -5 v 5 5 h 5 5 z m 22,0 v -5 h -5 -5 v 5 5 h 5 5 z m 44,0 v -5 h -5 -5 v 5 5 h 5 5 z m 22,0 v -5 h -5 -5 v 5 5 h 5 5 z m 110,0 v -5 h -5 -5 v 5 5 h 5 5 z m 22,0 v -5 h -5 -5 v 5 5 h 5 5 z M 146,553 v -5 h -5 -5 v 5 5 h 5 5 z m 176,0 v -5 h -5 -5 v 5 5 h 5 5 z m 22,0 v -5 h -5 -5 v 5 5 h 5 5 z m 374,0 v -5 h -5 -5 v 5 5 h 5 5 z m 22,0 v -5 h -5 -5 v 5 5 h 5 5 z m 176,0 v -5 h -5 -5 v 5 5 h 5 5 z M 333,542 v -5 h -5 -5 v 5 5 h 5 5 z m 396,0 v -5 h -5 -5 v 5 5 h 5 5 z M 322,531 v -5 h -5 -5 v 5 5 h 5 5 z m 22,0 v -5 h -5 -5 v 5 5 h 5 5 z m 374,0 v -5 h -5 -5 v 5 5 h 5 5 z m 22,0 v -5 h -5 -5 v 5 5 h 5 5 z M 179,520 v -5 h -5 -5 v 5 5 h 5 5 z m 110,0 v -5 h -5 -5 v 5 5 h 5 5 z m 22,0 v -5 h -5 -5 v 5 5 h 5 5 z m 44,0 v -5 h -5 -5 v 5 5 h 5 5 z m 22,0 v -5 h -5 -5 v 5 5 h 5 5 z m 308,0 v -5 h -5 -5 v 5 5 h 5 5 z m 22,0 v -5 h -5 -5 v 5 5 h 5 5 z m 44,0 v -5 h -5 -5 v 5 5 h 5 5 z m 22,0 v -5 h -5 -5 v 5 5 h 5 5 z m 110,0 v -5 h -5 -5 v 5 5 h 5 5 z M 300,509 v -5 h -5 -5 v 5 5 h 5 5 z m 66,0 v -5 h -5 -5 v 5 5 h 5 5 z m 330,0 v -5 h -5 -5 v 5 5 h 5 5 z m 66,0 v -5 h -5 -5 v 5 5 h 5 5 z M 289,498 v -5 h -5 -5 v 5 5 h 5 5 z m 22,0 v -5 h -5 -5 v 5 5 h 5 5 z m 44,0 v -5 h -5 -5 v 5 5 h 5 5 z m 22,0 v -5 h -5 -5 v 5 5 h 5 5 z m 308,0 v -5 h -5 -5 v 5 5 h 5 5 z m 22,0 v -5 h -5 -5 v 5 5 h 5 5 z m 44,0 v -5 h -5 -5 v 5 5 h 5 5 z m 22,0 v -5 h -5 -5 v 5 5 h 5 5 z M 212,487 v -5 h -5 -5 v 5 5 h 5 5 z m 44,0 v -5 h -5 -5 v 5 5 h 5 5 z m 22,0 v -5 h -5 -5 v 5 5 h 5 5 z m 506,0 v -5 h -5 -5 v 5 5 h 5 5 z m 22,0 v -5 h -5 -5 v 5 5 h 5 5 z m 44,0 v -5 h -5 -5 v 5 5 h 5 5 z M 267,476 v -5 h -5 -5 v 5 5 h 5 5 z m 528,0 v -5 h -5 -5 v 5 5 h 5 5 z M 256,465 v -5 h -5 -5 v 5 5 h 5 5 z m 22,0 v -5 h -5 -5 v 5 5 h 5 5 z m 506,0 v -5 h -5 -5 v 5 5 h 5 5 z m 22,0 v -5 h -5 -5 v 5 5 h 5 5 z M 245,454 v -5 h -5 -5 v 5 5 h 5 5 z m 572,0 v -5 h -5 -5 v 5 5 h 5 5 z M 278,421 v -5 h -5 -5 v 5 5 h 5 5 z m 506,0 v -5 h -5 -5 v 5 5 h 5 5 z M 311,388 v -5 h -5 -5 v 5 5 h 5 5 z m 44,0 v -5 h -5 -5 v 5 5 h 5 5 z m 22,0 v -5 h -5 -5 v 5 5 h 5 5 z m 308,0 v -5 h -5 -5 v 5 5 h 5 5 z m 22,0 v -5 h -5 -5 v 5 5 h 5 5 z m 44,0 v -5 h -5 -5 v 5 5 h 5 5 z M 366,377 v -5 h -5 -5 v 5 5 h 5 5 z m 330,0 v -5 h -5 -5 v 5 5 h 5 5 z M 355,366 v -5 h -5 -5 v 5 5 h 5 5 z m 22,0 v -5 h -5 -5 v 5 5 h 5 5 z m 308,0 v -5 h -5 -5 v 5 5 h 5 5 z m 22,0 v -5 h -5 -5 v 5 5 h 5 5 z M 344,355 v -5 h -5 -5 v 5 5 h 5 5 z m 374,0 v -5 h -5 -5 v 5 5 h 5 5 z M 377,322 v -5 h -5 -5 v 5 5 h 5 5 z m 308,0 v -5 h -5 -5 v 5 5 h 5 5 z M 410,289 v -5 h -5 -5 v 5 5 h 5 5 z m 44,0 v -5 h -5 -5 v 5 5 h 5 5 z m 22,0 v -5 h -5 -5 v 5 5 h 5 5 z m 110,0 v -5 h -5 -5 v 5 5 h 5 5 z m 22,0 v -5 h -5 -5 v 5 5 h 5 5 z m 44,0 v -5 h -5 -5 v 5 5 h 5 5 z M 465,278 v -5 h -5 -5 v 5 5 h 5 5 z m 132,0 v -5 h -5 -5 v 5 5 h 5 5 z M 454,267 v -5 h -5 -5 v 5 5 h 5 5 z m 22,0 v -5 h -5 -5 v 5 5 h 5 5 z m 110,0 v -5 h -5 -5 v 5 5 h 5 5 z m 22,0 v -5 h -5 -5 v 5 5 h 5 5 z M 443,256 v -5 h -5 -5 v 5 5 h 5 5 z m 176,0 v -5 h -5 -5 v 5 5 h 5 5 z M 476,223 v -5 h -5 -5 v 5 5 h 5 5 z m 110,0 v -5 h -5 -5 v 5 5 h 5 5 z m -77,-33 v -5 h -5 -5 v 5 5 h 5 5 z m 44,0 v -5 h -5 -5 v 5 5 h 5 5 z"
       id="path52"
       inkscape:connector-curvature="0" />
    <path
       style="fill:#494949;fill-opacity:1"
       d="M 85.25,591.26101 91,590.90019 V 585.4501 580 h 5.5 5.5 v -5.5 -5.5 h 5.5 5.5 v -5.5 -5.5 h 5.5 5.5 v -5.5 -5.5 h 5.5 5.5 v -5.5 -5.5 h 5.5 5.5 v -5.5 -5.5 h 5.5 5.5 v -5.5 -5.5 h 5.5 5.5 v -5.5 -5.5 h 5.5 5.5 v -5.5 -5.5 h 5.5 5.5 v -5.5 -5.5 h 5.5 5.5 v -5.5 -5.5 h 5.5 5.5 v -5.5 -5.5 h 5.5 5.5 v -5.5 -5.5 h 5.5 5.5 v -5.5 -5.5 h 5.5 5.5 v -5.5 -5.5 h 5.5 5.5 v -5.5 -5.5 h 5.5 5.5 v -5.5 -5.5 h 5.5 5.5 v -5.5 -5.5 h 5.5 5.5 v -5.5 -5.5 h 5.5 5.5 v -5.5 -5.5 h 5.5 5.5 v -5.5 -5.5 h 5.5 5.5 v -5.5 -5.5 h 5.5 5.5 v -5.5 -5.5 h 5.5 5.5 v -5.5 -5.5 h 5.5 5.5 v -5.5 -5.5 h 5.5 5.5 v -5.5 -5.5 h 5.5 5.5 v -5.5 -5.5 h 5.5 5.5 v -5.5 -5.5 h 5.5 5.5 v -5.5 -5.5 h 5.5 5.5 v -5.5 -5.5 h 5.5 5.5 v -5.5 -5.5 h 5.5 5.5 v -5.5 -5.5 h 5.5 5.5 v -5.5 -5.5 h 5.5 5.5 v -5.5 -5.5 h 5.5 5.5 v -5.5 -5.5 h 5.5 5.5 v -5.5 -5.5 h 5.5 5.5 v -5.5 -5.5 h 5.5 5.5 v -5.5 -5.5 h 5.5 5.5 v -5.5 -5.5 h 5.5 5.5 v -5.5 -5.5 h 6 6 v 5.5 5.5 h 5.5 5.5 v 5.5 5.5 h 5.5 5.5 v 5.5 5.5 h 5.5 5.5 v 5.5 5.5 h 5.5 5.5 v 5.5 5.5 h 5.5 5.5 v 5.5 5.5 h 5.5 5.5 v 5.5 5.5 h 5.5 5.5 v 5.5 5.5 h 5.5 5.5 v 5.5 5.5 h 5.5 5.5 v 5.5 5.5 h 5.5 5.5 v 5.5 5.5 h 5.5 5.5 v 5.5 5.5 h 5.5 5.5 v 5.5 5.5 h 5.5 5.5 v 5.5 5.5 h 5.5 5.5 v 5.5 5.5 h 5.5 5.5 v 5.5 5.5 h 5.5 5.5 v 5.5 5.5 h 5.5 5.5 v 5.5 5.5 h 5.5 5.5 v 5.5 5.5 h 5.5 5.5 v 5.5 5.5 h 5.5 5.5 v 5.5 5.5 h 5.5 5.5 v 5.5 5.5 h 5.5 5.5 v 5.5 5.5 h 5.5 5.5 v 5.5 5.5 h 5.5 5.5 v 5.5 5.5 h 5.5 5.5 v 5.5 5.5 h 5.5 5.5 v 5.5 5.5 h 5.5 5.5 v 5.5 5.5 h 5.5 5.5 v 5.5 5.5 h 5.5 5.5 v 5.5 5.5 h 5.5 5.5 v 5.5 5.5 h 5.5 5.5 v 5.5 5.5 h 5.5 5.5 v 5.5 5.5 h 5.5 5.5 v 5.5 5.5 h 5.5 5.5 v 5.5 5.5 h 5.5 5.5 v 5.5 5.5 h 5.5 5.5 v 5.5 5.5 h 5.5 5.5 v 5.5 5.5 h 5.5 5.5 v 5.5 5.5 h 5.5 5.5 v 5.4501 5.45009 l 5.75,0.36082 5.75,0.36082 -6.25,0.18909 L 960,592 v -5.5 -5.5 h -5 -5 v 5.5 5.5 h -6 -6 v -6 -6 h 5.5 5.5 v -5 -5 h -5.5 -5.5 v -5.5 -5.5 h -5.5 -5.5 v -5.5 -5.5 h -5 -5 v 5.5 5.5 h -5.5 -5.5 v 5.5 5.5 h -5.5 -5.5 v 5 5 h 5.5 5.5 v 6 6 h -6 -6 v -5.5 -5.5 h -5 -5 v 5.5 5.5 h -6 -6 v -6 -6 h 5.5 5.5 v -5 -5 h -5.5 -5.5 v -6 -6 h 6 6 v 5.5 5.5 h 5 5 v -5.5 -5.5 h 5.5 5.5 v -5.5 -5.5 h 5.5 5.5 v -5 -5 h -5.5 -5.5 v -5.5 -5.5 h -5.5 -5.5 v -5.5 -5.5 h -5 -5 v 5.5 5.5 h -6 -6 v -6 -6 h 5.5 5.5 v -5 -5 h -5.5 -5.5 v -5.5 -5.5 h -5.5 -5.5 v -5.5 -5.5 h -5 -5 v 5.5 5.5 h -6 -6 v -6 -6 h 5.5 5.5 v -5 -5 h -5.5 -5.5 v -5.5 -5.5 h -5.5 -5.5 v -5.5 -5.5 h -5 -5 v 5.5 5.5 h -5.5 -5.5 v 5.5 5.5 h -5.5 -5.5 v 5 5 h 5.5 5.5 v 6 6 h -6 -6 v -5.5 -5.5 h -5 -5 v 5.5 5.5 h -5.5 -5.5 v 5.5 5.5 h -5.5 -5.5 v 5 5 h 5.5 5.5 v 6 6 h -6 -6 v -5.5 -5.5 h -5 -5 v 5.5 5.5 h -5.5 -5.5 v 5.5 5.5 h -5.5 -5.5 v 5 5 h 5.5 5.5 v 5.5 5.5 h 5.5 5.5 v 5.5 5.5 h 5 5 v -5.5 -5.5 h 6 6 v 6 6 h -5.5 -5.5 v 5 5 h 5.5 5.5 v 6 6 h -6 -6 v -5.5 -5.5 h -5 -5 v 5.5 5.5 h -6 -6 v -6 -6 h 5.5 5.5 v -5 -5 h -5.5 -5.5 v -5.5 -5.5 h -5.5 -5.5 v -5.5 -5.5 h -5 -5 v 5.5 5.5 h -5.5 -5.5 v 5.5 5.5 h -5.5 -5.5 v 5 5 h 5.5 5.5 v 6 6 h -6 -6 v -5.5 -5.5 h -5 -5 v 5.5 5.5 h -6 -6 v -6 -6 h 5.5 5.5 v -5 -5 h -5.5 -5.5 v -6 -6 h 6 6 v 5.5 5.5 h 5 5 v -5.5 -5.5 h 5.5 5.5 v -5.5 -5.5 h 5.5 5.5 v -5 -5 h -5.5 -5.5 v -5.5 -5.5 h -5.5 -5.5 v -5.5 -5.5 h -5 -5 v 5.5 5.5 h -6 -6 v -6 -6 h 5.5 5.5 v -5 -5 h -5.5 -5.5 v -6 -6 h 6 6 v 5.5 5.5 h 5 5 v -5.5 -5.5 h 6 6 v 6 6 h -5.5 -5.5 v 5 5 h 5.5 5.5 v 5.5 5.5 h 5.5 5.5 v 5.5 5.5 h 5 5 v -5.5 -5.5 h 5.5 5.5 v -5.5 -5.5 h 5.5 5.5 v -5 -5 h -5.5 -5.5 v -6 -6 h 6 6 v 5.5 5.5 h 5 5 v -5.5 -5.5 h 5.5 5.5 v -5.5 -5.5 h 5.5 5.5 v -5 -5 h -5.5 -5.5 v -6 -6 h 6 6 v 5.5 5.5 h 5 5 v -5.5 -5.5 h 5.5 5.5 v -5.5 -5.5 h 5.5 5.5 v -5 -5 h -5.5 -5.5 v -5.5 -5.5 h -5.5 -5.5 v -5.5 -5.5 h -5 -5 v 5.5 5.5 h -6 -6 v -6 -6 h 5.5 5.5 v -5 -5 h -5.5 -5.5 v -5.5 -5.5 h -5.5 -5.5 v -5.5 -5.5 h -5 -5 v 5.5 5.5 h -6 -6 v -6 -6 h 5.5 5.5 v -5 -5 h -5.5 -5.5 v -5.5 -5.5 h -5.5 -5.5 v -5.5 -5.5 h -5 -5 v 5.5 5.5 h -5.5 -5.5 v 5.5 5.5 h -5.5 -5.5 v 5 5 h 5.5 5.5 v 6 6 h -6 -6 v -5.5 -5.5 h -5 -5 v 5.5 5.5 h -6 -6 v -6 -6 h 5.5 5.5 v -5 -5 h -5.5 -5.5 v -6 -6 h 6 6 v 5.5 5.5 h 5 5 v -5.5 -5.5 h 5.5 5.5 v -5.5 -5.5 h 5.5 5.5 v -5 -5 h -5.5 -5.5 v -5.5 -5.5 h -5.5 -5.5 v -5.5 -5.5 h -5 -5 v 5.5 5.5 h -6 -6 v -6 -6 h 5.5 5.5 v -5 -5 h -5.5 -5.5 v -5.5 -5.5 h -5.5 -5.5 v -5.5 -5.5 h -5 -5 v 5.5 5.5 h -6 -6 v -6 -6 h 5.5 5.5 v -5 -5 h -5.5 -5.5 v -5.5 -5.5 h -5.5 -5.5 v -5.5 -5.5 h -5 -5 v 5.5 5.5 h -5.5 -5.5 v 5.5 5.5 h -5.5 -5.5 v 5 5 h 5.5 5.5 v 6 6 h -6 -6 v -5.5 -5.5 h -5 -5 v 5.5 5.5 h -6 -6 v -6 -6 h 5.5 5.5 v -5 -5 h -5.5 -5.5 v -6 -6 h 6 6 v 5.5 5.5 h 5 5 v -5.5 -5.5 h 5.5 5.5 v -5.5 -5.5 h 5.5 5.5 v -5 -5 h -5.5 -5.5 v -5.5 -5.5 h -5.5 -5.5 v -5.5 -5.5 h -5 -5 v 5.5 5.5 h -6 -6 v -6 -6 h 5.5 5.5 v -5 -5 h -5.5 -5.5 v -5.5 -5.5 h -5.5 -5.5 v -5.5 -5.5 h -5 -5 v 5.5 5.5 h -6 -6 v -6 -6 h 5.5 5.5 v -5 -5 h -5.5 -5.5 v -5.5 -5.5 h -5.5 -5.5 v -5.5 -5.5 h -5 -5 v 5.5 5.5 h -5.5 -5.5 v 5.5 5.5 h -5.5 -5.5 v 5 5 h 5.5 5.5 v 6 6 h -6 -6 v -5.5 -5.5 h -5 -5 v 5.5 5.5 h -5.5 -5.5 v 5.5 5.5 h -5.5 -5.5 v 5 5 h 5.5 5.5 v 6 6 h -6 -6 v -5.5 -5.5 h -5 -5 v 5.5 5.5 h -5.5 -5.5 v 5.5 5.5 h -5.5 -5.5 v 5 5 h 5.5 5.5 v 5.5 5.5 h 5.5 5.5 v 5.5 5.5 h 5 5 v -5.5 -5.5 h 6 6 v 6 6 h -5.5 -5.5 v 5 5 h 5.5 5.5 v 6 6 h -6 -6 v -5.5 -5.5 h -5 -5 v 5.5 5.5 h -6 -6 v -6 -6 h 5.5 5.5 v -5 -5 h -5.5 -5.5 v -5.5 -5.5 h -5.5 -5.5 v -5.5 -5.5 h -5 -5 v 5.5 5.5 h -5.5 -5.5 v 5.5 5.5 h -5.5 -5.5 v 5 5 h 5.5 5.5 v 6 6 h -6 -6 v -5.5 -5.5 h -5 -5 v 5.5 5.5 h -5.5 -5.5 v 5.5 5.5 h -5.5 -5.5 v 5 5 h 5.5 5.5 v 6 6 h -6 -6 v -5.5 -5.5 h -5 -5 v 5.5 5.5 h -5.5 -5.5 v 5.5 5.5 h -5.5 -5.5 v 5 5 h 5.5 5.5 v 5.5 5.5 h 5.5 5.5 v 5.5 5.5 h 5 5 v -5.5 -5.5 h 6 6 v 6 6 h -5.5 -5.5 v 5 5 h 5.5 5.5 v 6 6 h -6 -6 v -5.5 -5.5 h -5 -5 v 5.5 5.5 h -6 -6 v -6 -6 h 5.5 5.5 v -5 -5 h -5.5 -5.5 v -5.5 -5.5 h -5.5 -5.5 v -5.5 -5.5 h -5 -5 v 5.5 5.5 h -5.5 -5.5 v 5.5 5.5 h -5.5 -5.5 v 5 5 h 5.5 5.5 v 6 6 h -6 -6 v -5.5 -5.5 h -5 -5 v 5.5 5.5 h -5.5 -5.5 v 5.5 5.5 h -5.5 -5.5 v 5 5 h 5.5 5.5 v 6 6 h -6 -6 v -5.5 -5.5 h -5 -5 v 5.5 5.5 h -5.5 -5.5 v 5.5 5.5 h -5.5 -5.5 v 5 5 h 5.5 5.5 v 5.5 5.5 h 5.5 5.5 v 5.5 5.5 h 5 5 v -5.5 -5.5 h 6 6 v 6 6 h -5.5 -5.5 v 5 5 h 5.5 5.5 v 5.5 5.5 h 5.5 5.5 v 5.5 5.5 h 5 5 v -5.5 -5.5 h 6 6 v 6 6 h -5.5 -5.5 v 5 5 h 5.5 5.5 v 5.5 5.5 h 5.5 5.5 v 5.5 5.5 h 5 5 v -5.5 -5.5 h 5.5 5.5 v -5.5 -5.5 h 5.5 5.5 v -5 -5 h -5.5 -5.5 v -6 -6 h 6 6 v 5.5 5.5 h 5 5 v -5.5 -5.5 h 6 6 v 6 6 h -5.5 -5.5 v 5 5 h 5.5 5.5 v 6 6 h -6 -6 v -5.5 -5.5 h -5 -5 v 5.5 5.5 h -5.5 -5.5 v 5.5 5.5 h -5.5 -5.5 v 5 5 h 5.5 5.5 v 5.5 5.5 h 5.5 5.5 v 5.5 5.5 h 5 5 v -5.5 -5.5 h 6 6 v 6 6 h -5.5 -5.5 v 5 5 h 5.5 5.5 v 6 6 h -6 -6 v -5.5 -5.5 h -5 -5 v 5.5 5.5 h -6 -6 v -6 -6 h 5.5 5.5 v -5 -5 h -5.5 -5.5 v -5.5 -5.5 h -5.5 -5.5 v -5.5 -5.5 h -5 -5 v 5.5 5.5 h -5.5 -5.5 v 5.5 5.5 h -5.5 -5.5 v 5 5 h 5.5 5.5 v 6 6 h -6 -6 v -5.5 -5.5 h -5 -5 v 5.5 5.5 h -6 -6 v -6 -6 h 5.5 5.5 v -5 -5 h -5.5 -5.5 v -6 -6 h 6 6 v 5.5 5.5 h 5 5 v -5.5 -5.5 h 5.5 5.5 v -5.5 -5.5 h 5.5 5.5 v -5 -5 h -5.5 -5.5 v -5.5 -5.5 h -5.5 -5.5 v -5.5 -5.5 h -5 -5 v 5.5 5.5 h -6 -6 v -6 -6 h 5.5 5.5 v -5 -5 h -5.5 -5.5 v -5.5 -5.5 h -5.5 -5.5 v -5.5 -5.5 h -5 -5 v 5.5 5.5 h -6 -6 v -6 -6 h 5.5 5.5 v -5 -5 h -5.5 -5.5 v -5.5 -5.5 h -5.5 -5.5 v -5.5 -5.5 h -5 -5 v 5.5 5.5 h -5.5 -5.5 v 5.5 5.5 h -5.5 -5.5 v 5 5 h 5.5 5.5 v 6 6 h -6 -6 v -5.5 -5.5 h -5 -5 v 5.5 5.5 h -5.5 -5.5 v 5.5 5.5 h -5.5 -5.5 v 5 5 h 5.5 5.5 v 6 6 h -6 -6 v -5.5 -5.5 h -5 -5 v 5.5 5.5 h -5.5 -5.5 v 5.5 5.5 h -5.5 -5.5 v 5 5 h 5.5 5.5 v 5.5 5.5 h 5.5 5.5 v 5.5 5.5 h 5 5 v -5.5 -5.5 h 6 6 v 6 6 h -5.5 -5.5 v 5 5 h 5.5 5.5 v 6 6 h -6 -6 v -5.5 -5.5 h -5 -5 v 5.5 5.5 h -6 -6 v -6 -6 h 5.5 5.5 v -5 -5 h -5.5 -5.5 v -5.5 -5.5 h -5.5 -5.5 v -5.5 -5.5 h -5 -5 v 5.5 5.5 h -5.5 -5.5 v 5.5 5.5 h -5.5 -5.5 v 5 5 h 5.5 5.5 v 6 6 h -6 -6 v -5.5 -5.5 h -5 -5 v 5.5 5.5 l -6.25,-0.18908 -6.25,-0.18909 z M 113,586 v -5 h -5 -5 v 5 5 h 5 5 z m 44,0 v -5 h -5 -5 v 5 5 h 5 5 z m 22,0 v -5 h -5 -5 v 5 5 h 5 5 z m 110,0 v -5 h -5 -5 v 5 5 h 5 5 z m 22,0 v -5 h -5 -5 v 5 5 h 5 5 z m 44,0 v -5 h -5 -5 v 5 5 h 5 5 z m 22,0 v -5 h -5 -5 v 5 5 h 5 5 z m 308,0 v -5 h -5 -5 v 5 5 h 5 5 z m 22,0 v -5 h -5 -5 v 5 5 h 5 5 z m 44,0 v -5 h -5 -5 v 5 5 h 5 5 z m 22,0 v -5 h -5 -5 v 5 5 h 5 5 z m 110,0 v -5 h -5 -5 v 5 5 h 5 5 z m 22,0 v -5 h -5 -5 v 5 5 h 5 5 z m 44,0 v -5 h -5 -5 v 5 5 h 5 5 z M 168,575 v -5 h -5 -5 v 5 5 h 5 5 z m 132,0 v -5 h -5 -5 v 5 5 h 5 5 z m 66,0 v -5 h -5 -5 v 5 5 h 5 5 z m 330,0 v -5 h -5 -5 v 5 5 h 5 5 z m 66,0 v -5 h -5 -5 v 5 5 h 5 5 z m 132,0 v -5 h -5 -5 v 5 5 h 5 5 z M 157,564 v -5 h -5 -5 v 5 5 h 5 5 z m 22,0 v -5 h -5 -5 v 5 5 h 5 5 z m 110,0 v -5 h -5 -5 v 5 5 h 5 5 z m 22,0 v -5 h -5 -5 v 5 5 h 5 5 z m 44,0 v -5 h -5 -5 v 5 5 h 5 5 z m 22,0 v -5 h -5 -5 v 5 5 h 5 5 z m 308,0 v -5 h -5 -5 v 5 5 h 5 5 z m 22,0 v -5 h -5 -5 v 5 5 h 5 5 z m 44,0 v -5 h -5 -5 v 5 5 h 5 5 z m 22,0 v -5 h -5 -5 v 5 5 h 5 5 z m 110,0 v -5 h -5 -5 v 5 5 h 5 5 z m 22,0 v -5 h -5 -5 v 5 5 h 5 5 z M 146,553 v -5 h -5 -5 v 5 5 h 5 5 z m 176,0 v -5 h -5 -5 v 5 5 h 5 5 z m 22,0 v -5 h -5 -5 v 5 5 h 5 5 z m 374,0 v -5 h -5 -5 v 5 5 h 5 5 z m 22,0 v -5 h -5 -5 v 5 5 h 5 5 z m 176,0 v -5 h -5 -5 v 5 5 h 5 5 z M 333,542 v -5 h -5 -5 v 5 5 h 5 5 z m 396,0 v -5 h -5 -5 v 5 5 h 5 5 z M 322,531 v -5 h -5 -5 v 5 5 h 5 5 z m 22,0 v -5 h -5 -5 v 5 5 h 5 5 z m 374,0 v -5 h -5 -5 v 5 5 h 5 5 z m 22,0 v -5 h -5 -5 v 5 5 h 5 5 z M 179,520 v -5 h -5 -5 v 5 5 h 5 5 z m 110,0 v -5 h -5 -5 v 5 5 h 5 5 z m 22,0 v -5 h -5 -5 v 5 5 h 5 5 z m 44,0 v -5 h -5 -5 v 5 5 h 5 5 z m 22,0 v -5 h -5 -5 v 5 5 h 5 5 z m 308,0 v -5 h -5 -5 v 5 5 h 5 5 z m 22,0 v -5 h -5 -5 v 5 5 h 5 5 z m 44,0 v -5 h -5 -5 v 5 5 h 5 5 z m 22,0 v -5 h -5 -5 v 5 5 h 5 5 z m 110,0 v -5 h -5 -5 v 5 5 h 5 5 z M 300,509 v -5 h -5 -5 v 5 5 h 5 5 z m 66,0 v -5 h -5 -5 v 5 5 h 5 5 z m 330,0 v -5 h -5 -5 v 5 5 h 5 5 z m 66,0 v -5 h -5 -5 v 5 5 h 5 5 z M 289,498 v -5 h -5 -5 v 5 5 h 5 5 z m 22,0 v -5 h -5 -5 v 5 5 h 5 5 z m 44,0 v -5 h -5 -5 v 5 5 h 5 5 z m 22,0 v -5 h -5 -5 v 5 5 h 5 5 z m 308,0 v -5 h -5 -5 v 5 5 h 5 5 z m 22,0 v -5 h -5 -5 v 5 5 h 5 5 z m 44,0 v -5 h -5 -5 v 5 5 h 5 5 z m 22,0 v -5 h -5 -5 v 5 5 h 5 5 z M 212,487 v -5 h -5 -5 v 5 5 h 5 5 z m 44,0 v -5 h -5 -5 v 5 5 h 5 5 z m 22,0 v -5 h -5 -5 v 5 5 h 5 5 z m 506,0 v -5 h -5 -5 v 5 5 h 5 5 z m 22,0 v -5 h -5 -5 v 5 5 h 5 5 z m 44,0 v -5 h -5 -5 v 5 5 h 5 5 z M 267,476 v -5 h -5 -5 v 5 5 h 5 5 z m 528,0 v -5 h -5 -5 v 5 5 h 5 5 z M 256,465 v -5 h -5 -5 v 5 5 h 5 5 z m 22,0 v -5 h -5 -5 v 5 5 h 5 5 z m 506,0 v -5 h -5 -5 v 5 5 h 5 5 z m 22,0 v -5 h -5 -5 v 5 5 h 5 5 z M 245,454 v -5 h -5 -5 v 5 5 h 5 5 z m 572,0 v -5 h -5 -5 v 5 5 h 5 5 z M 278,421 v -5 h -5 -5 v 5 5 h 5 5 z m 506,0 v -5 h -5 -5 v 5 5 h 5 5 z M 311,388 v -5 h -5 -5 v 5 5 h 5 5 z m 44,0 v -5 h -5 -5 v 5 5 h 5 5 z m 22,0 v -5 h -5 -5 v 5 5 h 5 5 z m 308,0 v -5 h -5 -5 v 5 5 h 5 5 z m 22,0 v -5 h -5 -5 v 5 5 h 5 5 z m 44,0 v -5 h -5 -5 v 5 5 h 5 5 z M 366,377 v -5 h -5 -5 v 5 5 h 5 5 z m 330,0 v -5 h -5 -5 v 5 5 h 5 5 z M 355,366 v -5 h -5 -5 v 5 5 h 5 5 z m 22,0 v -5 h -5 -5 v 5 5 h 5 5 z m 308,0 v -5 h -5 -5 v 5 5 h 5 5 z m 22,0 v -5 h -5 -5 v 5 5 h 5 5 z M 344,355 v -5 h -5 -5 v 5 5 h 5 5 z m 374,0 v -5 h -5 -5 v 5 5 h 5 5 z M 377,322 v -5 h -5 -5 v 5 5 h 5 5 z m 308,0 v -5 h -5 -5 v 5 5 h 5 5 z M 410,289 v -5 h -5 -5 v 5 5 h 5 5 z m 44,0 v -5 h -5 -5 v 5 5 h 5 5 z m 22,0 v -5 h -5 -5 v 5 5 h 5 5 z m 110,0 v -5 h -5 -5 v 5 5 h 5 5 z m 22,0 v -5 h -5 -5 v 5 5 h 5 5 z m 44,0 v -5 h -5 -5 v 5 5 h 5 5 z M 465,278 v -5 h -5 -5 v 5 5 h 5 5 z m 132,0 v -5 h -5 -5 v 5 5 h 5 5 z M 454,267 v -5 h -5 -5 v 5 5 h 5 5 z m 22,0 v -5 h -5 -5 v 5 5 h 5 5 z m 110,0 v -5 h -5 -5 v 5 5 h 5 5 z m 22,0 v -5 h -5 -5 v 5 5 h 5 5 z M 443,256 v -5 h -5 -5 v 5 5 h 5 5 z m 176,0 v -5 h -5 -5 v 5 5 h 5 5 z M 476,223 v -5 h -5 -5 v 5 5 h 5 5 z m 110,0 v -5 h -5 -5 v 5 5 h 5 5 z m -77,-33 v -5 h -5 -5 v 5 5 h 5 5 z m 44,0 v -5 h -5 -5 v 5 5 h 5 5 z"
       id="path50"
       inkscape:connector-curvature="0" />
    <path
       style="fill:#333333;fill-opacity:1"
       d="M 85.25,591.26101 91,590.90019 V 585.4501 580 h 5.5 5.5 v -5.5 -5.5 h 5.5 5.5 v -5.5 -5.5 h 5.5 5.5 v -5.5 -5.5 h 5.5 5.5 v -5.5 -5.5 h 5.5 5.5 v -5.5 -5.5 h 5.5 5.5 v -5.5 -5.5 h 5.5 5.5 v -5.5 -5.5 h 5.5 5.5 v -5.5 -5.5 h 5.5 5.5 v -5.5 -5.5 h 5.5 5.5 v -5.5 -5.5 h 5.5 5.5 v -5.5 -5.5 h 5.5 5.5 v -5.5 -5.5 h 5.5 5.5 v -5.5 -5.5 h 5.5 5.5 v -5.5 -5.5 h 5.5 5.5 v -5.5 -5.5 h 5.5 5.5 v -5.5 -5.5 h 5.5 5.5 v -5.5 -5.5 h 5.5 5.5 v -5.5 -5.5 h 5.5 5.5 v -5.5 -5.5 h 5.5 5.5 v -5.5 -5.5 h 5.5 5.5 v -5.5 -5.5 h 5.5 5.5 v -5.5 -5.5 h 5.5 5.5 v -5.5 -5.5 h 5.5 5.5 v -5.5 -5.5 h 5.5 5.5 v -5.5 -5.5 h 5.5 5.5 v -5.5 -5.5 h 5.5 5.5 v -5.5 -5.5 h 5.5 5.5 v -5.5 -5.5 h 5.5 5.5 v -5.5 -5.5 h 5.5 5.5 v -5.5 -5.5 h 5.5 5.5 v -5.5 -5.5 h 5.5 5.5 v -5.5 -5.5 h 5.5 5.5 v -5.5 -5.5 h 5.5 5.5 v -5.5 -5.5 h 5.5 5.5 v -5.5 -5.5 h 5.5 5.5 v -5.5 -5.5 h 5.5 5.5 v -5.5 -5.5 h 5.5 5.5 v -5.5 -5.5 h 5.5 5.5 v -5.5 -5.5 h 6 6 v 5.5 5.5 h 5.5 5.5 v 5.5 5.5 h 5.5 5.5 v 5.5 5.5 h 5.5 5.5 v 5.5 5.5 h 5.5 5.5 v 5.5 5.5 h 5.5 5.5 v 5.5 5.5 h 5.5 5.5 v 5.5 5.5 h 5.5 5.5 v 5.5 5.5 h 5.5 5.5 v 5.5 5.5 h 5.5 5.5 v 5.5 5.5 h 5.5 5.5 v 5.5 5.5 h 5.5 5.5 v 5.5 5.5 h 5.5 5.5 v 5.5 5.5 h 5.5 5.5 v 5.5 5.5 h 5.5 5.5 v 5.5 5.5 h 5.5 5.5 v 5.5 5.5 h 5.5 5.5 v 5.5 5.5 h 5.5 5.5 v 5.5 5.5 h 5.5 5.5 v 5.5 5.5 h 5.5 5.5 v 5.5 5.5 h 5.5 5.5 v 5.5 5.5 h 5.5 5.5 v 5.5 5.5 h 5.5 5.5 v 5.5 5.5 h 5.5 5.5 v 5.5 5.5 h 5.5 5.5 v 5.5 5.5 h 5.5 5.5 v 5.5 5.5 h 5.5 5.5 v 5.5 5.5 h 5.5 5.5 v 5.5 5.5 h 5.5 5.5 v 5.5 5.5 h 5.5 5.5 v 5.5 5.5 h 5.5 5.5 v 5.5 5.5 h 5.5 5.5 v 5.5 5.5 h 5.5 5.5 v 5.5 5.5 h 5.5 5.5 v 5.5 5.5 h 5.5 5.5 v 5.5 5.5 h 5.5 5.5 v 5.5 5.5 h 5.5 5.5 v 5.5 5.5 h 5.5 5.5 v 5.5 5.5 h 5.5 5.5 v 5.5 5.5 h 5.5 5.5 v 5.4501 5.45009 l 5.75,0.36082 5.75,0.36082 -6.25,0.18909 L 960,592 v -5.5 -5.5 h -5 -5 v 5.5 5.5 h -6 -6 v -6 -6 h 5.5 5.5 v -5 -5 h -5.5 -5.5 v -5.5 -5.5 h -5.5 -5.5 v -5.5 -5.5 h -5 -5 v 5.5 5.5 h -5.5 -5.5 v 5.5 5.5 h -5.5 -5.5 v 5 5 h 5.5 5.5 v 6 6 h -6 -6 v -5.5 -5.5 h -5 -5 v 5.5 5.5 h -6 -6 v -6 -6 h 5.5 5.5 v -5 -5 h -5.5 -5.5 v -6 -6 h 6 6 v 5.5 5.5 h 5 5 v -5.5 -5.5 h 5.5 5.5 v -5.5 -5.5 h 5.5 5.5 v -5 -5 h -5.5 -5.5 v -5.5 -5.5 h -5.5 -5.5 v -5.5 -5.5 h -5 -5 v 5.5 5.5 h -6 -6 v -6 -6 h 5.5 5.5 v -5 -5 h -5.5 -5.5 v -5.5 -5.5 h -5.5 -5.5 v -5.5 -5.5 h -5 -5 v 5.5 5.5 h -6 -6 v -6 -6 h 5.5 5.5 v -5 -5 h -5.5 -5.5 v -5.5 -5.5 h -5.5 -5.5 v -5.5 -5.5 h -5 -5 v 5.5 5.5 h -5.5 -5.5 v 5.5 5.5 h -5.5 -5.5 v 5 5 h 5.5 5.5 v 6 6 h -6 -6 v -5.5 -5.5 h -5 -5 v 5.5 5.5 h -5.5 -5.5 v 5.5 5.5 h -5.5 -5.5 v 5 5 h 5.5 5.5 v 6 6 h -6 -6 v -5.5 -5.5 h -5 -5 v 5.5 5.5 h -5.5 -5.5 v 5.5 5.5 h -5.5 -5.5 v 5 5 h 5.5 5.5 v 5.5 5.5 h 5.5 5.5 v 5.5 5.5 h 5 5 v -5.5 -5.5 h 6 6 v 6 6 h -5.5 -5.5 v 5 5 h 5.5 5.5 v 6 6 h -6 -6 v -5.5 -5.5 h -5 -5 v 5.5 5.5 h -6 -6 v -6 -6 h 5.5 5.5 v -5 -5 h -5.5 -5.5 v -5.5 -5.5 h -5.5 -5.5 v -5.5 -5.5 h -5 -5 v 5.5 5.5 h -5.5 -5.5 v 5.5 5.5 h -5.5 -5.5 v 5 5 h 5.5 5.5 v 6 6 h -6 -6 v -5.5 -5.5 h -5 -5 v 5.5 5.5 h -6 -6 v -6 -6 h 5.5 5.5 v -5 -5 h -5.5 -5.5 v -6 -6 h 6 6 v 5.5 5.5 h 5 5 v -5.5 -5.5 h 5.5 5.5 v -5.5 -5.5 h 5.5 5.5 v -5 -5 h -5.5 -5.5 v -5.5 -5.5 h -5.5 -5.5 v -5.5 -5.5 h -5 -5 v 5.5 5.5 h -6 -6 v -6 -6 h 5.5 5.5 v -5 -5 h -5.5 -5.5 v -6 -6 h 6 6 v 5.5 5.5 h 5 5 v -5.5 -5.5 h 6 6 v 6 6 h -5.5 -5.5 v 5 5 h 5.5 5.5 v 5.5 5.5 h 5.5 5.5 v 5.5 5.5 h 5 5 v -5.5 -5.5 h 5.5 5.5 v -5.5 -5.5 h 5.5 5.5 v -5 -5 h -5.5 -5.5 v -6 -6 h 6 6 v 5.5 5.5 h 5 5 v -5.5 -5.5 h 5.5 5.5 v -5.5 -5.5 h 5.5 5.5 v -5 -5 h -5.5 -5.5 v -6 -6 h 6 6 v 5.5 5.5 h 5 5 v -5.5 -5.5 h 5.5 5.5 v -5.5 -5.5 h 5.5 5.5 v -5 -5 h -5.5 -5.5 v -5.5 -5.5 h -5.5 -5.5 v -5.5 -5.5 h -5 -5 v 5.5 5.5 h -6 -6 v -6 -6 h 5.5 5.5 v -5 -5 h -5.5 -5.5 v -5.5 -5.5 h -5.5 -5.5 v -5.5 -5.5 h -5 -5 v 5.5 5.5 h -6 -6 v -6 -6 h 5.5 5.5 v -5 -5 h -5.5 -5.5 v -5.5 -5.5 h -5.5 -5.5 v -5.5 -5.5 h -5 -5 v 5.5 5.5 h -5.5 -5.5 v 5.5 5.5 h -5.5 -5.5 v 5 5 h 5.5 5.5 v 6 6 h -6 -6 v -5.5 -5.5 h -5 -5 v 5.5 5.5 h -6 -6 v -6 -6 h 5.5 5.5 v -5 -5 h -5.5 -5.5 v -6 -6 h 6 6 v 5.5 5.5 h 5 5 v -5.5 -5.5 h 5.5 5.5 v -5.5 -5.5 h 5.5 5.5 v -5 -5 h -5.5 -5.5 v -5.5 -5.5 h -5.5 -5.5 v -5.5 -5.5 h -5 -5 v 5.5 5.5 h -6 -6 v -6 -6 h 5.5 5.5 v -5 -5 h -5.5 -5.5 v -5.5 -5.5 h -5.5 -5.5 v -5.5 -5.5 h -5 -5 v 5.5 5.5 h -6 -6 v -6 -6 h 5.5 5.5 v -5 -5 h -5.5 -5.5 v -5.5 -5.5 h -5.5 -5.5 v -5.5 -5.5 h -5 -5 v 5.5 5.5 h -5.5 -5.5 v 5.5 5.5 h -5.5 -5.5 v 5 5 h 5.5 5.5 v 6 6 h -6 -6 v -5.5 -5.5 h -5 -5 v 5.5 5.5 h -6 -6 v -6 -6 h 5.5 5.5 v -5 -5 h -5.5 -5.5 v -6 -6 h 6 6 v 5.5 5.5 h 5 5 v -5.5 -5.5 h 5.5 5.5 v -5.5 -5.5 h 5.5 5.5 v -5 -5 h -5.5 -5.5 v -5.5 -5.5 h -5.5 -5.5 v -5.5 -5.5 h -5 -5 v 5.5 5.5 h -6 -6 v -6 -6 h 5.5 5.5 v -5 -5 h -5.5 -5.5 v -5.5 -5.5 h -5.5 -5.5 v -5.5 -5.5 h -5 -5 v 5.5 5.5 h -6 -6 v -6 -6 h 5.5 5.5 v -5 -5 h -5.5 -5.5 v -5.5 -5.5 h -5.5 -5.5 v -5.5 -5.5 h -5 -5 v 5.5 5.5 h -5.5 -5.5 v 5.5 5.5 h -5.5 -5.5 v 5 5 h 5.5 5.5 v 6 6 h -6 -6 v -5.5 -5.5 h -5 -5 v 5.5 5.5 h -5.5 -5.5 v 5.5 5.5 h -5.5 -5.5 v 5 5 h 5.5 5.5 v 6 6 h -6 -6 v -5.5 -5.5 h -5 -5 v 5.5 5.5 h -5.5 -5.5 v 5.5 5.5 h -5.5 -5.5 v 5 5 h 5.5 5.5 v 5.5 5.5 h 5.5 5.5 v 5.5 5.5 h 5 5 v -5.5 -5.5 h 6 6 v 6 6 h -5.5 -5.5 v 5 5 h 5.5 5.5 v 6 6 h -6 -6 v -5.5 -5.5 h -5 -5 v 5.5 5.5 h -6 -6 v -6 -6 h 5.5 5.5 v -5 -5 h -5.5 -5.5 v -5.5 -5.5 h -5.5 -5.5 v -5.5 -5.5 h -5 -5 v 5.5 5.5 h -5.5 -5.5 v 5.5 5.5 h -5.5 -5.5 v 5 5 h 5.5 5.5 v 6 6 h -6 -6 v -5.5 -5.5 h -5 -5 v 5.5 5.5 h -5.5 -5.5 v 5.5 5.5 h -5.5 -5.5 v 5 5 h 5.5 5.5 v 6 6 h -6 -6 v -5.5 -5.5 h -5 -5 v 5.5 5.5 h -5.5 -5.5 v 5.5 5.5 h -5.5 -5.5 v 5 5 h 5.5 5.5 v 5.5 5.5 h 5.5 5.5 v 5.5 5.5 h 5 5 v -5.5 -5.5 h 6 6 v 6 6 h -5.5 -5.5 v 5 5 h 5.5 5.5 v 6 6 h -6 -6 v -5.5 -5.5 h -5 -5 v 5.5 5.5 h -6 -6 v -6 -6 h 5.5 5.5 v -5 -5 h -5.5 -5.5 v -5.5 -5.5 h -5.5 -5.5 v -5.5 -5.5 h -5 -5 v 5.5 5.5 h -5.5 -5.5 v 5.5 5.5 h -5.5 -5.5 v 5 5 h 5.5 5.5 v 6 6 h -6 -6 v -5.5 -5.5 h -5 -5 v 5.5 5.5 h -5.5 -5.5 v 5.5 5.5 h -5.5 -5.5 v 5 5 h 5.5 5.5 v 6 6 h -6 -6 v -5.5 -5.5 h -5 -5 v 5.5 5.5 h -5.5 -5.5 v 5.5 5.5 h -5.5 -5.5 v 5 5 h 5.5 5.5 v 5.5 5.5 h 5.5 5.5 v 5.5 5.5 h 5 5 v -5.5 -5.5 h 6 6 v 6 6 h -5.5 -5.5 v 5 5 h 5.5 5.5 v 5.5 5.5 h 5.5 5.5 v 5.5 5.5 h 5 5 v -5.5 -5.5 h 6 6 v 6 6 h -5.5 -5.5 v 5 5 h 5.5 5.5 v 5.5 5.5 h 5.5 5.5 v 5.5 5.5 h 5 5 v -5.5 -5.5 h 5.5 5.5 v -5.5 -5.5 h 5.5 5.5 v -5 -5 h -5.5 -5.5 v -6 -6 h 6 6 v 5.5 5.5 h 5 5 v -5.5 -5.5 h 6 6 v 6 6 h -5.5 -5.5 v 5 5 h 5.5 5.5 v 6 6 h -6 -6 v -5.5 -5.5 h -5 -5 v 5.5 5.5 h -5.5 -5.5 v 5.5 5.5 h -5.5 -5.5 v 5 5 h 5.5 5.5 v 5.5 5.5 h 5.5 5.5 v 5.5 5.5 h 5 5 v -5.5 -5.5 h 6 6 v 6 6 h -5.5 -5.5 v 5 5 h 5.5 5.5 v 6 6 h -6 -6 v -5.5 -5.5 h -5 -5 v 5.5 5.5 h -6 -6 v -6 -6 h 5.5 5.5 v -5 -5 h -5.5 -5.5 v -5.5 -5.5 h -5.5 -5.5 v -5.5 -5.5 h -5 -5 v 5.5 5.5 h -5.5 -5.5 v 5.5 5.5 h -5.5 -5.5 v 5 5 h 5.5 5.5 v 6 6 h -6 -6 v -5.5 -5.5 h -5 -5 v 5.5 5.5 h -6 -6 v -6 -6 h 5.5 5.5 v -5 -5 h -5.5 -5.5 v -6 -6 h 6 6 v 5.5 5.5 h 5 5 v -5.5 -5.5 h 5.5 5.5 v -5.5 -5.5 h 5.5 5.5 v -5 -5 h -5.5 -5.5 v -5.5 -5.5 h -5.5 -5.5 v -5.5 -5.5 h -5 -5 v 5.5 5.5 h -6 -6 v -6 -6 h 5.5 5.5 v -5 -5 h -5.5 -5.5 v -5.5 -5.5 h -5.5 -5.5 v -5.5 -5.5 h -5 -5 v 5.5 5.5 h -6 -6 v -6 -6 h 5.5 5.5 v -5 -5 h -5.5 -5.5 v -5.5 -5.5 h -5.5 -5.5 v -5.5 -5.5 h -5 -5 v 5.5 5.5 h -5.5 -5.5 v 5.5 5.5 h -5.5 -5.5 v 5 5 h 5.5 5.5 v 6 6 h -6 -6 v -5.5 -5.5 h -5 -5 v 5.5 5.5 h -5.5 -5.5 v 5.5 5.5 h -5.5 -5.5 v 5 5 h 5.5 5.5 v 6 6 h -6 -6 v -5.5 -5.5 h -5 -5 v 5.5 5.5 h -5.5 -5.5 v 5.5 5.5 h -5.5 -5.5 v 5 5 h 5.5 5.5 v 5.5 5.5 h 5.5 5.5 v 5.5 5.5 h 5 5 v -5.5 -5.5 h 6 6 v 6 6 h -5.5 -5.5 v 5 5 h 5.5 5.5 v 6 6 h -6 -6 v -5.5 -5.5 h -5 -5 v 5.5 5.5 h -6 -6 v -6 -6 h 5.5 5.5 v -5 -5 h -5.5 -5.5 v -5.5 -5.5 h -5.5 -5.5 v -5.5 -5.5 h -5 -5 v 5.5 5.5 h -5.5 -5.5 v 5.5 5.5 h -5.5 -5.5 v 5 5 h 5.5 5.5 v 6 6 h -6 -6 v -5.5 -5.5 h -5 -5 v 5.5 5.5 l -6.25,-0.18908 -6.25,-0.18909 z M 113,586 v -5 h -5 -5 v 5 5 h 5 5 z m 44,0 v -5 h -5 -5 v 5 5 h 5 5 z m 22,0 v -5 h -5 -5 v 5 5 h 5 5 z m 110,0 v -5 h -5 -5 v 5 5 h 5 5 z m 22,0 v -5 h -5 -5 v 5 5 h 5 5 z m 44,0 v -5 h -5 -5 v 5 5 h 5 5 z m 22,0 v -5 h -5 -5 v 5 5 h 5 5 z m 308,0 v -5 h -5 -5 v 5 5 h 5 5 z m 22,0 v -5 h -5 -5 v 5 5 h 5 5 z m 44,0 v -5 h -5 -5 v 5 5 h 5 5 z m 22,0 v -5 h -5 -5 v 5 5 h 5 5 z m 110,0 v -5 h -5 -5 v 5 5 h 5 5 z m 22,0 v -5 h -5 -5 v 5 5 h 5 5 z m 44,0 v -5 h -5 -5 v 5 5 h 5 5 z M 168,575 v -5 h -5 -5 v 5 5 h 5 5 z m 132,0 v -5 h -5 -5 v 5 5 h 5 5 z m 66,0 v -5 h -5 -5 v 5 5 h 5 5 z m 330,0 v -5 h -5 -5 v 5 5 h 5 5 z m 66,0 v -5 h -5 -5 v 5 5 h 5 5 z m 132,0 v -5 h -5 -5 v 5 5 h 5 5 z M 157,564 v -5 h -5 -5 v 5 5 h 5 5 z m 22,0 v -5 h -5 -5 v 5 5 h 5 5 z m 110,0 v -5 h -5 -5 v 5 5 h 5 5 z m 22,0 v -5 h -5 -5 v 5 5 h 5 5 z m 44,0 v -5 h -5 -5 v 5 5 h 5 5 z m 22,0 v -5 h -5 -5 v 5 5 h 5 5 z m 308,0 v -5 h -5 -5 v 5 5 h 5 5 z m 22,0 v -5 h -5 -5 v 5 5 h 5 5 z m 44,0 v -5 h -5 -5 v 5 5 h 5 5 z m 22,0 v -5 h -5 -5 v 5 5 h 5 5 z m 110,0 v -5 h -5 -5 v 5 5 h 5 5 z m 22,0 v -5 h -5 -5 v 5 5 h 5 5 z M 146,553 v -5 h -5 -5 v 5 5 h 5 5 z m 176,0 v -5 h -5 -5 v 5 5 h 5 5 z m 22,0 v -5 h -5 -5 v 5 5 h 5 5 z m 374,0 v -5 h -5 -5 v 5 5 h 5 5 z m 22,0 v -5 h -5 -5 v 5 5 h 5 5 z m 176,0 v -5 h -5 -5 v 5 5 h 5 5 z M 333,542 v -5 h -5 -5 v 5 5 h 5 5 z m 396,0 v -5 h -5 -5 v 5 5 h 5 5 z M 322,531 v -5 h -5 -5 v 5 5 h 5 5 z m 22,0 v -5 h -5 -5 v 5 5 h 5 5 z m 374,0 v -5 h -5 -5 v 5 5 h 5 5 z m 22,0 v -5 h -5 -5 v 5 5 h 5 5 z M 179,520 v -5 h -5 -5 v 5 5 h 5 5 z m 110,0 v -5 h -5 -5 v 5 5 h 5 5 z m 22,0 v -5 h -5 -5 v 5 5 h 5 5 z m 44,0 v -5 h -5 -5 v 5 5 h 5 5 z m 22,0 v -5 h -5 -5 v 5 5 h 5 5 z m 308,0 v -5 h -5 -5 v 5 5 h 5 5 z m 22,0 v -5 h -5 -5 v 5 5 h 5 5 z m 44,0 v -5 h -5 -5 v 5 5 h 5 5 z m 22,0 v -5 h -5 -5 v 5 5 h 5 5 z m 110,0 v -5 h -5 -5 v 5 5 h 5 5 z M 300,509 v -5 h -5 -5 v 5 5 h 5 5 z m 66,0 v -5 h -5 -5 v 5 5 h 5 5 z m 330,0 v -5 h -5 -5 v 5 5 h 5 5 z m 66,0 v -5 h -5 -5 v 5 5 h 5 5 z M 289,498 v -5 h -5 -5 v 5 5 h 5 5 z m 22,0 v -5 h -5 -5 v 5 5 h 5 5 z m 44,0 v -5 h -5 -5 v 5 5 h 5 5 z m 22,0 v -5 h -5 -5 v 5 5 h 5 5 z m 308,0 v -5 h -5 -5 v 5 5 h 5 5 z m 22,0 v -5 h -5 -5 v 5 5 h 5 5 z m 44,0 v -5 h -5 -5 v 5 5 h 5 5 z m 22,0 v -5 h -5 -5 v 5 5 h 5 5 z M 212,487 v -5 h -5 -5 v 5 5 h 5 5 z m 44,0 v -5 h -5 -5 v 5 5 h 5 5 z m 22,0 v -5 h -5 -5 v 5 5 h 5 5 z m 506,0 v -5 h -5 -5 v 5 5 h 5 5 z m 22,0 v -5 h -5 -5 v 5 5 h 5 5 z m 44,0 v -5 h -5 -5 v 5 5 h 5 5 z M 267,476 v -5 h -5 -5 v 5 5 h 5 5 z m 528,0 v -5 h -5 -5 v 5 5 h 5 5 z M 256,465 v -5 h -5 -5 v 5 5 h 5 5 z m 22,0 v -5 h -5 -5 v 5 5 h 5 5 z m 506,0 v -5 h -5 -5 v 5 5 h 5 5 z m 22,0 v -5 h -5 -5 v 5 5 h 5 5 z M 245,454 v -5 h -5 -5 v 5 5 h 5 5 z m 572,0 v -5 h -5 -5 v 5 5 h 5 5 z M 278,421 v -5 h -5 -5 v 5 5 h 5 5 z m 506,0 v -5 h -5 -5 v 5 5 h 5 5 z M 311,388 v -5 h -5 -5 v 5 5 h 5 5 z m 44,0 v -5 h -5 -5 v 5 5 h 5 5 z m 22,0 v -5 h -5 -5 v 5 5 h 5 5 z m 308,0 v -5 h -5 -5 v 5 5 h 5 5 z m 22,0 v -5 h -5 -5 v 5 5 h 5 5 z m 44,0 v -5 h -5 -5 v 5 5 h 5 5 z M 366,377 v -5 h -5 -5 v 5 5 h 5 5 z m 330,0 v -5 h -5 -5 v 5 5 h 5 5 z M 355,366 v -5 h -5 -5 v 5 5 h 5 5 z m 22,0 v -5 h -5 -5 v 5 5 h 5 5 z m 308,0 v -5 h -5 -5 v 5 5 h 5 5 z m 22,0 v -5 h -5 -5 v 5 5 h 5 5 z M 344,355 v -5 h -5 -5 v 5 5 h 5 5 z m 374,0 v -5 h -5 -5 v 5 5 h 5 5 z M 377,322 v -5 h -5 -5 v 5 5 h 5 5 z m 308,0 v -5 h -5 -5 v 5 5 h 5 5 z M 410,289 v -5 h -5 -5 v 5 5 h 5 5 z m 44,0 v -5 h -5 -5 v 5 5 h 5 5 z m 22,0 v -5 h -5 -5 v 5 5 h 5 5 z m 110,0 v -5 h -5 -5 v 5 5 h 5 5 z m 22,0 v -5 h -5 -5 v 5 5 h 5 5 z m 44,0 v -5 h -5 -5 v 5 5 h 5 5 z M 465,278 v -5 h -5 -5 v 5 5 h 5 5 z m 132,0 v -5 h -5 -5 v 5 5 h 5 5 z M 454,267 v -5 h -5 -5 v 5 5 h 5 5 z m 22,0 v -5 h -5 -5 v 5 5 h 5 5 z m 110,0 v -5 h -5 -5 v 5 5 h 5 5 z m 22,0 v -5 h -5 -5 v 5 5 h 5 5 z M 443,256 v -5 h -5 -5 v 5 5 h 5 5 z m 176,0 v -5 h -5 -5 v 5 5 h 5 5 z M 476,223 v -5 h -5 -5 v 5 5 h 5 5 z m 110,0 v -5 h -5 -5 v 5 5 h 5 5 z m -77,-33 v -5 h -5 -5 v 5 5 h 5 5 z m 44,0 v -5 h -5 -5 v 5 5 h 5 5 z"
       id="path48"
       inkscape:connector-curvature="0" />
  </g>
</svg>
