<?xml version="1.0" encoding="UTF-8" standalone="no"?>
<!-- Created with Inkscape (http://www.inkscape.org/) -->

<svg
   xmlns:dc="http://purl.org/dc/elements/1.1/"
   xmlns:cc="http://creativecommons.org/ns#"
   xmlns:rdf="http://www.w3.org/1999/02/22-rdf-syntax-ns#"
   xmlns:svg="http://www.w3.org/2000/svg"
   xmlns="http://www.w3.org/2000/svg"
   xmlns:sodipodi="http://sodipodi.sourceforge.net/DTD/sodipodi-0.dtd"
   xmlns:inkscape="http://www.inkscape.org/namespaces/inkscape"
   version="1.1"
   id="svg10"
   width="1023"
   height="652"
   viewBox="0 0 1023 652"
   sodipodi:docname="3.svg"
   inkscape:version="0.92.3 (2405546, 2018-03-11)">
  <metadata
     id="metadata16">
    <rdf:RDF>
      <cc:Work
         rdf:about="">
        <dc:format>image/svg+xml</dc:format>
        <dc:type
           rdf:resource="http://purl.org/dc/dcmitype/StillImage" />
        <dc:title></dc:title>
      </cc:Work>
    </rdf:RDF>
  </metadata>
  <defs
     id="defs14" />
  <sodipodi:namedview
     pagecolor="#ffffff"
     bordercolor="#666666"
     borderopacity="1"
     objecttolerance="10"
     gridtolerance="10"
     guidetolerance="10"
     inkscape:pageopacity="0"
     inkscape:pageshadow="2"
     inkscape:window-width="1920"
     inkscape:window-height="1027"
     id="namedview12"
     showgrid="false"
     inkscape:zoom="0.93051782"
     inkscape:cx="510.39602"
     inkscape:cy="407.94815"
     inkscape:window-x="1358"
     inkscape:window-y="-8"
     inkscape:window-maximized="1"
     inkscape:current-layer="svg10" />
  <path
     style="fill:#000000"
     d="m 403.67787,589.03879 v -5.5 h -5.5 -5.5 v -5.5 -5.5 h -5.5 -5.5 v -5.5 -5.5 h -5.5 -5.5 v -5.5 -5.5 h -5.5 -5.5 v -5.5 -5.5 h -5.5 -5.5 v -5.5 -5.5 h -5.5 -5.5 v -5.5 -5.5 h -5.5 -5.5 v -5.5 -5.5 h -5.5 -5.5 v -5.5 -5.5 h -5.5 -5.5 v -5.5 -5.5 h -5.5 -5.5 v -5.5 -5.5 h -5.5 -5.5 v -5.5 -5.5 h -5.5 -5.5 v -5.5 -5.5 h -5.49999 -5.5 v -5.5 -5.5 h -5.5 -5.5 v -5.5 -5.5 h -5.5 -5.5 v -88.5 -88.5 h 5.5 5.5 v -5.5 -5.5 h 5.5 5.5 v -5.5 -5.5 h 5.5 5.49999 v -5.5 -5.5 h 5.5 5.5 v -5.5 -5.5 h 5.5 5.5 v -5.5 -5.5 h 5.5 5.5 v -5.5 -5.5 h 5.5 5.5 v -5.5 -5.5 h 5.5 5.5 v -5.5 -5.5 h 5.5 5.5 v -5.5 -5.5 h 5.5 5.5 v -5.5 -5.5 h 5.5 5.5 v -5.5 -5.5 h 5.5 5.5 v -5.5 -5.5 h 5.5 5.5 v -5.5 -5.5 h 5.5 5.5 v -5.5 -5.499996 h 5.5 5.5 v -5.5 -5.5 h 88.5 88.5 v 5.5 5.5 h 5.5 5.5 v 5.499996 5.5 h 5.5 5.5 v 5.5 5.5 h 5.5 5.5 v 5.5 5.5 h 5.5 5.5 v 5.5 5.5 h 5.5 5.5 v 5.5 5.5 h 5.5 5.5 v 5.5 5.5 h 5.5 5.5 v 5.5 5.5 h 5.5 5.5 v 5.5 5.5 h 5.5 5.5 v 5.5 5.5 h 5.5 5.5 v 5.5 5.5 h 5.5 5.49997 v 5.5 5.5 h 5.5 5.5 v 5.5 5.5 h 5.5 5.5 v 5.5 5.5 h 5.5 5.5 v 5.5 5.5 h 5.5 5.5 v 88.5 88.5 h -5.5 -5.5 v 5.5 5.5 h -5.5 -5.5 v 5.5 5.5 h -5.5 -5.5 v 5.5 5.5 h -5.5 -5.5 v 5.5 5.5 h -5.49997 -5.5 v 5.5 5.5 h -5.5 -5.5 v 5.5 5.5 h -5.5 -5.5 v 5.5 5.5 h -5.5 -5.5 v 5.5 5.5 h -5.5 -5.5 v 5.5 5.5 h -5.5 -5.5 v 5.5 5.5 h -5.5 -5.5 v 5.5 5.5 h -5.5 -5.5 v 5.5 5.5 h -5.5 -5.5 v 5.5 5.5 h -5.5 -5.5 v 5.5 5.5 h -5.5 -5.5 v 5.5 5.5 h -88.5 -88.5 z m 22.18498,-0.75 0.18498,-5.25 0.36728,5.25 0.36728,5.25 h 10.44774 10.44774 v -5 -5 h -5.53275 -5.53275 l 0.28275,-11.25 0.28275,-11.25 10.73059,-0.28363 10.73059,-0.28364 0.26941,-21.71636 0.26941,-21.71637 5.19949,-0.30051 5.19949,-0.30051 0.30051,-5.19949 0.30051,-5.19949 22.25,-0.26913 22.25,-0.26913 v 5.51913 5.51913 h 5.5 5.5 v 22 22 h 11 11 v 11.5 11.5 h -5.5 -5.5 v 5 5 h 10.5 10.5 l 0.18498,-5.25 0.18498,-5.25 0.36728,5.25 0.36728,5.25 h 10.39548 10.39548 l 0.30226,-5.25 0.30226,-5.25 5.25,-0.30226 5.25,-0.30226 v -4.94774 -4.94774 h -5.5499 -5.54991 l 0.29991,-5.75 0.2999,-5.75 5.75,-0.2999 5.75,-0.29991 v 5.54991 5.5499 h 4.94774 4.94774 l 0.30226,-5.25 0.30226,-5.25 5.25,-0.30226 5.25,-0.30226 v -4.94774 -4.94774 h -16.5 -16.5 v -5.5 -5.5 h -5.53275 -5.53275 l 0.28275,-11.25 0.28275,-11.25 5.25,-0.30226 5.25,-0.30226 v -10.44774 -10.44774 h -5.5 -5.5 v -5.5 -5.5 h -5.5 -5.5 v -5.5 -5.5 h -5.51913 -5.51913 l 0.26913,-22.25 0.26913,-22.25 5.19949,-0.30051 5.19949,-0.30051 0.30051,-5.19949 0.30051,-5.19949 5.19949,-0.30051 5.19949,-0.30051 0.30051,-5.19949 0.30051,-5.19949 5.19949,-0.30051 5.19949,-0.30051 0.30051,-5.19949 0.30051,-5.19949 22.25,-0.26913 22.25,-0.26913 v 5.51913 5.51913 h 5.5 5.5 v 5.5 5.5 h 5.5 5.5 v 5.5 5.5 h 10.44774 10.44774 l 0.30226,-5.25 0.30226,-5.25 11.25,-0.28275 11.25,-0.28275 v 5.53275 5.53275 h 5.5 5.49997 v 16.5 16.5 h 4.9478 4.9477 l 0.3023,-5.25 0.3022,-5.25 5.25,-0.30226 5.25,-0.30226 v -4.94774 -4.94774 h -5.5499 -5.5499 l 0.2999,-5.75 0.2999,-5.75 5.75,-0.2999 5.75,-0.29991 v 5.54991 5.5499 h 4.9478 4.9477 l 0.3023,-5.25 0.3022,-5.25 5.25,-0.30226 5.25,-0.30226 v -10.44774 -10.44774 l -5.25,-0.18498 -5.25,-0.18498 5.25,-0.36728 5.25,-0.36728 v -10.44774 -10.44774 h -5 -5 v 5.5 5.5 h -11.5 -11.5 v -11 -11 h -21.99997 -22 v -5.5 -5.5 h -5.5 -5.5 v -22.5 -22.5 h 5.5 5.5 v -5.5 -5.5 h 22 21.99997 v -11 -11 h 11.5 11.5 v 5.5 5.5 h 5 5 v -10.5 -10.5 l -5.75,-0.18908 -5.75,-0.18909 5.75,-0.36082 5.75,-0.36082 v -10.45009 -10.4501 h -5.5 -5.5 v -5.5 -5.5 h -5 -5 v 5.5 5.5 h -6 -6 v -6 -6 h 5.5 5.5 v -5 -5 h -5.5 -5.5 v -5.5 -5.5 h -5 -5 v 16.5 16.5 h -5.49997 -5.5 v 5.5 5.5 h -11.5 -11.5 v -5.5 -5.5 h -10.5 -10.5 v 5.5 5.5 h -5.5 -5.5 v 5.5 5.5 h -5.5 -5.5 v 5.5 5.5 h -22.5 -22.5 v -5.5 -5.5 h -5.5 -5.5 v -5.5 -5.5 h -5.5 -5.5 v -5.5 -5.5 h -5.5 -5.5 v -22.5 -22.5 h 5.5 5.5 v -5.5 -5.5 h 5.5 5.5 v -5.5 -5.5 h 5.5 5.5 v -10.5 -10.5 h -5.5 -5.5 v -11.5 -11.5 h 5.5 5.5 v -5.5 -5.5 h 16.5 16.5 v -5 -5 h -5.5 -5.5 v -5.5 -5.5 h -5 -5 v 5.5 5.5 h -6 -6 v -6 -6 h 5.5 5.5 v -5 -4.999996 h -5.5 -5.5 v -5.5 -5.5 h -10.5 -10.5 l -0.18908,5.75 -0.18909,5.749996 -0.36082,-5.749996 -0.36082,-5.75 h -10.45009 -10.4501 v 5 5 h 5.5 5.5 v 11.499996 11.5 h -11 -11 v 22 22 h -5.5 -5.5 v 5.5 5.5 h -22.5 -22.5 v -5.5 -5.5 h -5.5 -5.5 v -22 -22 h -11 -11 v -11.5 -11.499996 h 5.5 5.5 v -5 -5 h -10.5 -10.5 l -0.18908,5.75 -0.18909,5.749996 -0.36082,-5.749996 -0.36082,-5.75 h -10.45009 -10.4501 v 5.5 5.5 h -5.5 -5.5 v 4.999996 5 h 5.5 5.5 v 6 6 h -6 -6 v -5.5 -5.5 h -5 -5 v 5.5 5.5 h -5.5 -5.5 v 5 5 h 16.5 16.5 v 5.5 5.5 h 5.5 5.5 v 11.5 11.5 h -5.5 -5.5 v 10.5 10.5 h 5.5 5.5 v 5.5 5.5 h 5.5 5.5 v 5.5 5.5 h 5.5 5.5 v 22.5 22.5 h -5.5 -5.5 v 5.5 5.5 h -5.5 -5.5 v 5.5 5.5 h -5.5 -5.5 v 5.5 5.5 h -22.5 -22.5 v -5.5 -5.5 h -5.5 -5.5 v -5.5 -5.5 h -5.5 -5.5 v -5.5 -5.5 h -10.5 -10.5 v 5.5 5.5 h -11.5 -11.5 v -5.5 -5.5 h -5.5 -5.5 v -16.5 -16.5 h -5 -5 v 5.5 5.5 h -5.5 -5.49999 v 5 5 h 5.49999 5.5 v 6 6 h -6 -5.99999 v -5.5 -5.5 h -5 -5 v 5.5 5.5 h -5.5 -5.5 v 10.5 10.5 l 5.75,0.18908 5.75,0.18909 -5.75,0.36082 -5.75,0.36082 v 10.45009 10.4501 h 5 5 v -5.5 -5.5 h 11.5 11.49999 v 11 11 h 22 22 v 5.5 5.5 h 5.5 5.5 v 22.5 22.5 h -5.5 -5.5 v 5.5 5.5 h -22 -22 v 11 11 h -11.49999 -11.5 v -5.5 -5.5 h -5 -5 v 10.5 10.5 l 5.75,0.18908 5.75,0.18909 -5.75,0.36082 -5.75,0.36082 v 10.45009 10.4501 h 5.5 5.5 v 5.5 5.5 h 4.94774 4.94774 l 0.30226,-5.25 0.30226,-5.25 5.74999,-0.2999 5.75,-0.29991 v 6.04991 6.0499 h -5.5 -5.49999 v 5 5 h 5.49999 5.5 v 5.5 5.5 h 4.97523 4.97523 l 0.27477,-16.25 0.27477,-16.25 5.19949,-0.30051 5.19949,-0.30051 0.30051,-5.19949 0.30051,-5.19949 11.25,-0.28275 11.25,-0.28275 v 5.53275 5.53275 h 10.44774 10.44774 l 0.30226,-5.25 0.30226,-5.25 5.19949,-0.30051 5.19949,-0.30051 0.30051,-5.19949 0.30051,-5.19949 5.19949,-0.30051 5.19949,-0.30051 0.30051,-5.19949 0.30051,-5.19949 22.25,-0.26913 22.25,-0.26913 v 5.51913 5.51913 h 5.5 5.5 v 5.5 5.5 h 5.5 5.5 v 5.5 5.5 h 5.5 5.5 v 22.5 22.5 h -5.5 -5.5 v 5.5 5.5 h -5.5 -5.5 v 5.5 5.5 h -5.5 -5.5 v 10.5 10.5 h 5.5 5.5 v 11.5 11.5 h -5.5 -5.5 v 5.5 5.5 h -16.5 -16.5 v 5 5 h 5.5 5.5 v 5.5 5.5 h 4.94774 4.94774 l 0.30226,-5.25 0.30226,-5.25 5.75,-0.2999 5.75,-0.29991 v 6.04991 6.0499 h -5.5 -5.5 v 5 5 h 5.5 5.5 v 5.5 5.5 h 10.5 10.5 z m 44,0 0.18498,-5.25 0.36728,5.25 0.36728,5.25 h 10.44774 10.44774 v -5 -5 h -5.5 -5.5 v -5.5 -5.5 h -5.5 -5.5 v -5.5 -5.5 h -5 -5 v 11 11 h -5.5 -5.5 v 5 5 h 10.5 10.5 z m 44,0 0.18498,-5.25 0.36728,5.25 0.36728,5.25 h 10.44774 10.44774 v -5 -5 h -5.5 -5.5 v -11 -11 h -5 -5 v 5.5 5.5 h -5.5 -5.5 v 5.5 5.5 h -5.5 -5.5 v 5 5 h 10.5 10.5 z m -55.18498,-16.25 v -10.5 h -10.5 -10.5 v 10.5 10.5 h 10.5 10.5 z m 44,5.5 v -5 h -10.5 -10.5 v 5 5 h 10.5 10.5 z m 44,-5.5 v -10.5 h -10.5 -10.5 v 10.5 10.5 h 10.5 10.5 z m -143,-5.5 v -5 h -5 -5 v 5 5 h 5 5 z m 77.19774,-0.25 0.30226,-5.25 11.25,-0.28275 11.25,-0.28275 v 5.53275 5.53275 h 4.94774 4.94774 l 0.30226,-5.25 0.30226,-5.25 5.25,-0.30226 5.25,-0.30226 v -10.44774 -10.44774 l -5.25,-0.18498 -5.25,-0.18498 5.25,-0.36728 5.25,-0.36728 v -10.44774 -10.44774 h -5.5 -5.5 v -5.5 -5.5 h -10.5 -10.5 l -0.18908,5.75 -0.18909,5.75 -0.36082,-5.75 -0.36082,-5.75 h -10.45009 -10.4501 v 5.5 5.5 h -5.5 -5.5 v 10.5 10.5 l 5.75,0.18908 5.75,0.18909 -5.75,0.36082 -5.75,0.36082 v 10.45009 10.4501 h 5.5 5.5 v 5.5 5.5 h 4.94774 4.94774 z m 10.80226,0.25 v -5 h -5 -5 v 5 5 h 5 5 z m 11,0 v -5 h -5 -5 v 5 5 h 5 5 z m 88,0 v -5 h -5 -5 v 5 5 h 5 5 z m -219.77477,-33.25 0.27477,-16.25 5.25,-0.30226 5.25,-0.30226 v -4.94774 -4.94774 h -27 -27 v 5 5 h 5.5 5.5 v 5.5 5.5 h 4.94774 4.94774 l 0.30226,-5.25 0.30226,-5.25 5.75,-0.2999 5.75,-0.29991 v 6.04991 6.0499 h -5.5 -5.5 v 5 5 h 5.5 5.5 v 5.5 5.5 h 4.97523 4.97523 z m 10.77477,11.25 v -5 h -5 -5 v 5 5 h 5 5 z m 22.19774,-0.25 0.30226,-5.25 5.25,-0.30226 5.25,-0.30226 v -10.44774 -10.44774 h -5.5 -5.5 v -5.5 -5.5 h -10.5 -10.5 v 5.5 5.5 h -5.5 -5.5 v 10.5 10.5 h 5.5 5.5 v 5.5 5.5 h 10.44774 10.44774 z m 198,0 0.30226,-5.25 5.25,-0.30226 5.25,-0.30226 v -10.44774 -10.44774 h -5.5 -5.5 v -5.5 -5.5 h -10.5 -10.5 v 5.5 5.5 h -5.5 -5.5 v 10.5 10.5 h 5.5 5.5 v 5.5 5.5 h 10.44774 10.44774 z m 10.80226,0.25 v -5 h -5 -5 v 5 5 h 5 5 z m 11.19774,-0.25 0.30226,-5.25 5.25,-0.30226 5.25,-0.30226 v -4.94774 -4.94774 h -5.5499 -5.54991 l 0.29991,-5.75 0.2999,-5.75 5.75,-0.2999 5.75,-0.29991 v 5.54991 5.5499 h 4.94774 4.94774 l 0.30226,-5.25 0.30226,-5.25 5.25,-0.30226 5.25,-0.30226 v -4.94774 -4.94774 h -27 -27 v 5 5 h 5.5 5.5 v 16.5 16.5 h 4.94774 4.94774 z m -264.19774,-21.75 v -5 h -5 -5 v 5 5 h 5 5 z m 275,0 v -5 h -5 -5 v 5 5 h 5 5 z m -308,-44 v -27 h -5 -5 v 5.5 5.5 h -16.5 -16.5 v 5 5 h 5.5 5.5 v 5.5 5.5 h 4.94774 4.94774 l 0.30226,-5.25 0.30226,-5.25 5.75,-0.2999 5.75,-0.29991 v 6.04991 6.0499 h -5.5 -5.5 v 5 5 h 5.5 5.5 v 5.5 5.5 h 5 5 z m 11,22 v -5 h -5 -5 v 5 5 h 5 5 z m 22,0 v -5 h -5.5 -5.5 v -5.5 -5.5 h -5.5 -5.5 v -5.5 -5.5 h -5 -5 v 10.5 10.5 h 5.5 5.5 v 5.5 5.5 h 10.5 10.5 z m 22.18498,-0.25 0.18498,-5.25 0.36728,5.25 0.36728,5.25 h 10.39548 10.39548 l 0.30226,-5.25 0.30226,-5.25 5.25,-0.30226 5.25,-0.30226 v -4.94774 -4.94774 h -5.5499 -5.54991 l 0.29991,-5.75 0.2999,-5.75 5.75,-0.2999 5.75,-0.29991 v 5.54991 5.5499 h 4.94774 4.94774 l 0.30226,-5.25 0.30226,-5.25 5.25,-0.30226 5.25,-0.30226 v -10.44774 -10.44774 l -5.25,-0.18498 -5.25,-0.18498 5.25,-0.36728 5.25,-0.36728 v -10.44774 -10.44774 h -5.5 -5.5 v -5.5 -5.5 h -5 -5 v 5.5 5.5 h -6.0499 -6.04991 l 0.29991,-5.75 0.2999,-5.75 5.25,-0.30226 5.25,-0.30226 v -4.94774 -4.94774 h -5.5 -5.5 v -5.5 -5.5 h -10.5 -10.5 l -0.18908,5.75 -0.18909,5.75 -0.36082,-5.75 -0.36082,-5.75 h -10.45009 -10.4501 v 5.5 5.5 h -5.5 -5.5 v 5 5 h 5.5 5.5 v 6 6 h -6 -6 v -5.5 -5.5 h -5 -5 v 5.5 5.5 h -5.5 -5.5 v 10.5 10.5 l 5.75,0.18908 5.75,0.18909 -5.75,0.36082 -5.75,0.36082 v 10.45009 10.4501 h 4.94774 4.94774 l 0.30226,-5.25 0.30226,-5.25 11.25,-0.28275 11.25,-0.28275 v 5.53275 5.53275 h 5.5 5.5 v 11.5 11.5 h -5.5 -5.5 v 5 5 h 10.5 10.5 z m 220,0 0.18498,-5.25 0.36728,5.25 0.36728,5.25 h 10.44774 10.44774 v -5 -5 h -5.53275 -5.53275 l 0.28275,-11.25 0.28275,-11.25 5.19949,-0.30051 5.19949,-0.30051 0.30051,-5.19949 0.30051,-5.19949 11.25,-0.28275 11.25,-0.28275 v 5.53275 5.53275 h 5 5 v -10.5 -10.5 l -5.25,-0.18498 -5.25,-0.18498 5.25,-0.36728 5.25,-0.36728 v -10.44774 -10.44774 h -5.5 -5.5 v -5.5 -5.5 h -5 -5 v 5.5 5.5 h -6.0499 -6.04991 l 0.29991,-5.75 0.2999,-5.75 5.25,-0.30226 5.25,-0.30226 v -4.94774 -4.94774 h -5.5 -5.5 v -5.5 -5.5 h -10.5 -10.5 l -0.18908,5.75 -0.18909,5.75 -0.36082,-5.75 -0.36082,-5.75 h -10.45009 -10.4501 v 5.5 5.5 h -5.5 -5.5 v 5 5 h 5.5 5.5 v 6 6 h -6 -6 v -5.5 -5.5 h -5 -5 v 5.5 5.5 h -5.5 -5.5 v 10.5 10.5 l 5.75,0.18908 5.75,0.18909 -5.75,0.36082 -5.75,0.36082 v 10.45009 10.4501 h 5.5 5.5 v 5.5 5.5 h 4.94774 4.94774 l 0.30226,-5.25 0.30226,-5.25 5.75,-0.2999 5.75,-0.29991 v 6.04991 6.0499 h -5.5 -5.5 v 5 5 h 5.5 5.5 v 5.5 5.5 h 10.5 10.5 z m 44.01276,0 0.30226,-5.25 5.25,-0.30226 5.25,-0.30226 v -10.44774 -10.44774 h -5 -5 v 5.5 5.5 h -5.5 -5.5 v 5.5 5.5 h -5.5 -5.5 v 5 5 h 10.44774 10.44774 z m 10.80226,0.25 v -5 h -5 -5 v 5 5 h 5 5 z m 11.19774,-0.25 0.30226,-5.25 5.25,-0.30226 5.25,-0.30226 v -4.94774 -4.94774 h -5.5499 -5.54991 l 0.29991,-5.75 0.2999,-5.75 5.75,-0.2999 5.75,-0.29991 v 5.54991 5.5499 h 4.94774 4.94774 l 0.30226,-5.25 0.30226,-5.25 5.25,-0.30226 5.24997,-0.30226 v -4.94774 -4.94774 h -16.49997 -16.5 v -5.5 -5.5 h -5 -5 v 27 27 h 4.94774 4.94774 z m -297.19774,-16.25 v -10.5 h -5 -5 v 5.5 5.5 h -5.5 -5.5 v 5 5 h 10.5 10.5 z m 264,5.5 v -5 h -5.5 -5.5 v -5.5 -5.5 h -5 -5 v 10.5 10.5 h 10.5 10.5 z m -319,-11 v -5 h -5 -5 v 5 5 h 5 5 z m 33.19774,-0.25 0.30226,-5.25 5.25,-0.30226 5.25,-0.30226 v -4.94774 -4.94774 h -10.5 -10.5 v 10.5 10.5 h 4.94774 4.94774 z m 10.80226,0.25 v -5 h -5 -5 v 5 5 h 5 5 z m 55,0 v -5 h -5 -5 v 5 5 h 5 5 z m 165,0 v -5 h -5 -5 v 5 5 h 5 5 z m 55,0 v -5 h -5 -5 v 5 5 h 5 5 z m 11,-5.5 v -10.5 h -10.5 -10.5 v 5 5 h 5.5 5.5 v 5.5 5.5 h 5 5 z m 33,5.5 v -5 h -5 -5 v 5 5 h 5 5 z m -385,-22 v -5 h -5 -5 v 5 5 h 5 5 z m 22.19774,-0.25 0.30226,-5.25 5.25,-0.30226 5.25,-0.30226 v -10.44774 -10.44774 h -5.5 -5.5 v -5.5 -5.5 h -10.5 -10.5 v 5.5 5.5 h -5.5 -5.5 v 10.5 10.5 h 5.5 5.5 v 5.5 5.5 h 10.44774 10.44774 z m 374,0 0.30226,-5.25 5.25,-0.30226 5.24997,-0.30226 v -10.44774 -10.44774 h -5.49997 -5.5 v -5.5 -5.5 h -10.5 -10.5 v 5.5 5.5 h -5.5 -5.5 v 10.5 10.5 h 5.5 5.5 v 5.5 5.5 h 10.44774 10.44774 z m 10.80223,0.25 v -5 h -4.99997 -5 v 5 5 h 5 4.99997 z m -428.99997,-22 v -5 h -5 -4.99999 v 5 5 h 4.99999 5 z m 450.99997,0 v -5 h -5 -5 v 5 5 h 5 5 z m -362.99997,-11 v -5 h -5 -5 v 5 5 h 5 5 z m 55,0 v -5 h -5 -5 v 5 5 h 5 5 z m 165,0 v -5 h -5 -5 v 5 5 h 5 5 z m 55,0 v -5 h -5 -5 v 5 5 h 5 5 z m -363,-38.5 v -10.5 h -10.49999 -10.5 v 10.5 10.5 h 10.5 10.49999 z m 461.99997,0 v -10.5 h -10.5 -10.5 v 10.5 10.5 h 10.5 10.5 z m -483.80222,-5.75 0.30226,-5.25 10.75,-0.28383 10.74999,-0.28383 v -4.96617 -4.96617 h -5.49999 -5.5 v -5.5 -5.5 h -5.5 -5.5 v -5.5 -5.5 h -5 -5 v 10.5 10.5 l 5.75,0.18908 5.75,0.18909 -5.75,0.36082 -5.75,0.36082 v 10.45009 10.4501 h 4.94774 4.94774 z m 494.80222,-5.25 v -10.5 l -5.25,-0.18498 -5.25,-0.18498 5.25,-0.36728 5.25,-0.36728 v -10.44774 -10.44774 h -5 -5 v 5.5 5.5 h -5.5 -5.5 v 5.5 5.5 h -5.5 -5.5 v 5 5 h 11 11 v 5.5 5.5 h 5 5 z m -450.81499,-5.75 0.18498,-5.25 0.36728,5.25 0.36728,5.25 h 10.39548 10.39548 l 0.30226,-5.25 0.30226,-5.25 5.25,-0.30226 5.25,-0.30226 v -10.44774 -10.44774 l -5.25,-0.18498 -5.25,-0.18498 5.25,-0.36728 5.25,-0.36728 v -10.44774 -10.44774 h -5.5 -5.5 v -5.5 -5.5 h -10.5 -10.5 l -0.18908,5.75 -0.18909,5.75 -0.36082,-5.75 -0.36082,-5.75 h -10.45009 -10.4501 v 5.5 5.5 h -5.5 -5.49999 v 5 5 h 5.49999 5.5 v 11.5 11.5 h -5.5 -5.49999 v 5 5 h 5.49999 5.5 v 5.5 5.5 h 10.5 10.5 z m 396.0041,-0.5 0.18909,-5.75 0.36082,5.75 0.36082,5.75 h 10.45006 10.4501 v -5.5 -5.5 h 5.5 5.5 v -5 -5 h -5.5327 -5.5328 l 0.2828,-11.25 0.2827,-11.25 5.25,-0.30226 5.25,-0.30226 v -4.94774 -4.94774 h -5.5 -5.5 v -5.5 -5.5 h -10.5 -10.49997 l -0.18908,5.75 -0.18909,5.75 -0.36082,-5.75 -0.36082,-5.75 h -10.45009 -10.4501 v 5.5 5.5 h -5.5 -5.5 v 10.5 10.5 l 5.75,0.18908 5.75,0.18909 -5.75,0.36082 -5.75,0.36082 v 10.45009 10.4501 h 5.5 5.5 v 5.5 5.5 h 10.5 10.5 z m -429.18907,-26.75 v -10.5 h -5 -5 v 10.5 10.5 h 5 5 z m 10.99999,5.5 v -5 h -5 -4.99999 v 5 5 h 4.99999 5 z m 450.99997,0 v -5 h -5 -5 v 5 5 h 5 5 z m 11,-5.5 v -10.5 h -5 -5 v 10.5 10.5 h 5 5 z m -483.80222,-5.75 0.30226,-5.25 5.19949,-0.30051 5.19949,-0.30051 0.30051,-5.19949 0.30051,-5.19949 5.25,-0.30226 5.24999,-0.30226 v -4.94774 -4.94774 h -10.99999 -11 v -5.5 -5.5 h -5 -5 v 10.5 10.5 l 5.75,0.18908 5.75,0.18909 -5.75,0.36082 -5.75,0.36082 v 10.45009 10.4501 h 4.94774 4.94774 z m 21.80225,0.25 v -5 h -5 -4.99999 v 5 5 h 4.99999 5 z m 450.99997,0 v -5 h -5 -5 v 5 5 h 5 5 z m 22,-5.5 v -10.5 l -5.75,-0.18908 -5.75,-0.18909 5.75,-0.36082 5.75,-0.36082 v -10.45009 -10.4501 h -5 -5 v 5.5 5.5 h -11 -11 v 5 5 h 5.5 5.5 v 5.5 5.5 h 5.5 5.5 v 5.5 5.5 h 5 5 z m -472.99997,-33 v -10.5 h -10.49999 -10.5 v 10.5 10.5 h 10.5 10.49999 z m 461.99997,0 v -10.5 h -10.5 -10.5 v 10.5 10.5 h 10.5 10.5 z m -351.81089,-17.25 0.18909,-5.75 0.36082,5.75 0.36082,5.75 h 10.45009 10.4501 v -5.5 -5.5 h 5.5 5.5 v -5 -5 h -5.5 -5.5 v -6 -6 h 6 6 v 5.5 5.5 h 5 5 v -5.5 -5.5 h 5.5 5.5 v -10.5 -10.5 l -5.75,-0.18908 -5.75,-0.18909 5.75,-0.36082 5.75,-0.36082 v -10.45009 -10.4501 h -5.5 -5.5 v -5.5 -5.5 h -5 -5 v 5.5 5.5 h -6 -6 v -6 -6 h 5.5 5.5 v -5 -5 h -5.5 -5.5 v -5.5 -5.5 h -10.5 -10.5 l -0.18908,5.75 -0.18909,5.75 -0.36082,-5.75 -0.36082,-5.75 h -10.45009 -10.4501 v 5 5 h 5.5 5.5 v 11.5 11.5 h -5.5 -5.5 v 5.5 5.5 h -11.5 -11.5 v -5.5 -5.5 h -5 -5 v 10.5 10.5 l 5.75,0.18908 5.75,0.18909 -5.75,0.36082 -5.75,0.36082 v 10.45009 10.4501 h 5.5 5.5 v 5.5 5.5 h 5 5 v -5.5 -5.5 h 6 6 v 6 6 h -5.5 -5.5 v 5 5 h 5.5 5.5 v 5.5 5.5 h 10.5 10.5 z m 220,0 0.18909,-5.75 0.36082,5.75 0.36082,5.75 h 10.45009 10.4501 v -5.5 -5.5 h 5.5 5.5 v -5 -5 h -5.5 -5.5 v -6 -6 h 6 6 v 5.5 5.5 h 5 5 v -5.5 -5.5 h 5.5 5.5 v -10.5 -10.5 l -5.75,-0.18908 -5.75,-0.18909 5.75,-0.36082 5.75,-0.36082 v -10.45009 -10.4501 h -5 -5 v 5.5 5.5 h -11.5 -11.5 v -5.5 -5.5 h -5.5 -5.5 v -11.5 -11.5 h 5.5 5.5 v -5 -5 h -10.5 -10.5 l -0.18908,5.75 -0.18909,5.75 -0.36082,-5.75 -0.36082,-5.75 h -10.45009 -10.4501 v 5.5 5.5 h -5.5 -5.5 v 5 5 h 5.5 5.5 v 6 6 h -6 -6 v -5.5 -5.5 h -5 -5 v 5.5 5.5 h -5.5 -5.5 v 10.5 10.5 l 5.75,0.18908 5.75,0.18909 -5.75,0.36082 -5.75,0.36082 v 10.45009 10.4501 h 5.5 5.5 v 5.5 5.5 h 5 5 v -5.5 -5.5 h 6 6 v 6 6 h -5.5 -5.5 v 5 5 h 5.5 5.5 v 5.5 5.5 h 10.5 10.5 z m -286.18908,-21.75 v -5.5 h 5.5 5.5 v -10.5 -10.5 h -5.5 -5.5 v -5.5 -5.5 h -10.5 -10.5 v 5.5 5.5 h -5.5 -5.5 v 10.5 10.5 h 5.5 5.5 v 5.5 5.5 h 10.5 10.5 z m 44,0.5 v -5 h -5 -5 v 5 5 h 5 5 z m 55,0 v -5 h -5 -5 v 5 5 h 5 5 z m 165,0 v -5 h -5 -5 v 5 5 h 5 5 z m 55,0 v -5 h -5 -5 v 5 5 h 5 5 z m 55,-0.5 v -5.5 h 5.5 5.49997 v -10.5 -10.5 h -5.49997 -5.5 v -5.5 -5.5 h -10.5 -10.5 v 5.5 5.5 h -5.5 -5.5 v 10.5 10.5 h 5.5 5.5 v 5.5 5.5 h 10.5 10.5 z m -418,-10.5 v -5 h -5 -4.99999 v 5 5 h 4.99999 5 z m 450.99997,0 v -5 h -5 -5 v 5 5 h 5 5 z m -428.99997,-22 v -5 h -5 -5 v 5 5 h 5 5 z m 33,-22 v -27 h -5 -5 v 5.5 5.5 h -5.5 -5.5 v 5 5 h 5.5 5.5 v 6 6 h -6 -6 v -5.5 -5.5 h -5 -5 v 5.5 5.5 h -5.5 -5.5 v 5 5 h 16.5 16.5 v 5.5 5.5 h 5 5 z m 341,21.5 v -5.5 h 16.5 16.49997 v -5 -5 h -5.49997 -5.5 v -5.5 -5.5 h -5 -5 v 5.5 5.5 h -6 -6 v -6 -6 h 5.5 5.5 v -5 -5 h -5.5 -5.5 v -5.5 -5.5 h -5 -5 v 27 27 h 5 5 z m 32.99997,0.5 v -5 h -4.99997 -5 v 5 5 h 5 4.99997 z m -340.99997,-11 v -5 h -5.5 -5.5 v -5.5 -5.5 h -5 -5 v 10.5 10.5 h 10.5 10.5 z m 286,-5.5 v -10.5 h -5 -5 v 5.5 5.5 h -5.5 -5.5 v 5 5 h 10.5 10.5 z m -330,-5.5 v -5 h -5 -5 v 5 5 h 5 5 z m 22,-0.5 v -5.5 h 5.5 5.5 v -5.5 -5.5 h 5.5 5.5 v -5 -5 h -10.5 -10.5 v 5.5 5.5 h -5.5 -5.5 v 10.5 10.5 h 5 5 z m 22,0.5 v -5 h -5 -5 v 5 5 h 5 5 z m 11,-5.5 v -10.5 h -10.5 -10.5 v 5 5 h 5.5 5.5 v 5.5 5.5 h 5 5 z m 44,5.5 v -5 h -5 -5 v 5 5 h 5 5 z m 165,0 v -5 h -5 -5 v 5 5 h 5 5 z m 44,-0.5 v -5.5 h 5.5 5.5 v -5 -5 h -10.5 -10.5 v 10.5 10.5 h 5 5 z m 11,0.5 v -5 h -5 -5 v 5 5 h 5 5 z m 22,-5.5 v -10.5 h -5.5 -5.5 v -5.5 -5.5 h -10.5 -10.5 v 5 5 h 5.5 5.5 v 5.5 5.5 h 5.5 5.5 v 5.5 5.5 h 5 5 z m 22,5.5 v -5 h -5 -5 v 5 5 h 5 5 z m -341,-22 v -5 h -5 -5 v 5 5 h 5 5 z m 319,0 v -5 h -5 -5 v 5 5 h 5 5 z m -275,-11 v -5 h -5.5 -5.5 v -16.5 -16.5 h -5 -5 v 5.5 5.5 h -5.5 -5.5 v 5 5 h 5.5 5.5 v 6 6 h -6 -6 v -5.5 -5.5 h -5 -5 v 5.5 5.5 h -5.5 -5.5 v 5 5 h 27 27 z m 22,-0.5 v -5.5 h 5.5 5.5 v -10.5 -10.5 h -5.5 -5.5 v -5.5 -5.5 h -10.5 -10.5 v 5.5 5.5 h -5.5 -5.5 v 10.5 10.5 h 5.5 5.5 v 5.5 5.5 h 10.5 10.5 z m 88.18908,-0.25 0.18909,-5.75 0.36082,5.75 0.36082,5.75 h 10.45009 10.4501 v -5.5 -5.5 h 5.5 5.5 v -10.5 -10.5 l -5.75,-0.18908 -5.75,-0.18909 5.75,-0.36082 5.75,-0.36082 v -10.45009 -10.4501 h -5.5 -5.5 v -5.5 -5.5 h -5 -5 v 5.5 5.5 h -11.5 -11.5 v -5.5 -5.5 h -5 -5 v 5.5 5.5 h -5.5 -5.5 v 10.5 10.5 l 5.75,0.18908 5.75,0.18909 -5.75,0.36082 -5.75,0.36082 v 10.45009 10.4501 h 5.5 5.5 v 5.5 5.5 h 10.5 10.5 z m 109.81092,0.25 v -5.5 h 5.5 5.5 v -10.5 -10.5 h -5.5 -5.5 v -5.5 -5.5 h -10.5 -10.5 v 5.5 5.5 h -5.5 -5.5 v 10.5 10.5 h 5.5 5.5 v 5.5 5.5 h 10.5 10.5 z m 55,0.5 v -5 h -5.5 -5.5 v -5.5 -5.5 h -5 -5 v 5.5 5.5 h -6 -6 v -6 -6 h 5.5 5.5 v -5 -5 h -5.5 -5.5 v -5.5 -5.5 h -5 -5 v 16.5 16.5 h -5.5 -5.5 v 5 5 h 27 27 z m -297,-11 v -5 h -5 -5 v 5 5 h 5 5 z m 275,0 v -5 h -5 -5 v 5 5 h 5 5 z m -253,-22 v -5 h -5 -5 v 5 5 h 5 5 z m 231,0 v -5 h -5 -5 v 5 5 h 5 5 z m -209,-22 v -5 h -5 -5 v 5 5 h 5 5 z m 55,-5.5 V 99.538794 h -10.5 -10.5 v 10.499996 10.5 h 10.5 10.5 z m 11,5 v -5.5 h 5.5 5.5 v -5.5 -5.499996 h 5.5 5.5 v -5 -5 h -10.5 -10.5 l -0.18908,5.75 -0.18909,5.749996 -0.36082,-5.749996 -0.36082,-5.75 h -10.45009 -10.4501 v 5 5 h 5.5 5.5 v 10.999996 11 h 5 5 z m 22,0.5 v -5 h -5 -5 v 5 5 h 5 5 z m 11,0 v -5 h -5 -5 v 5 5 h 5 5 z m 22,-6 V 98.538794 h 5.5 5.5 v -5 -5 h -10.5 -10.5 l -0.18908,5.75 -0.18909,5.749996 -0.36082,-5.749996 -0.36082,-5.75 h -10.45009 -10.4501 v 5 5 h 5.5 5.5 v 5.499996 5.5 h 5.5 5.5 v 5.5 5.5 h 5 5 z m 22,0.5 V 99.538794 h -10.5 -10.5 v 10.499996 10.5 h 10.5 10.5 z m 44,5.5 v -5 h -5 -5 v 5 5 h 5 5 z m -88,-11 v -4.999996 h -10.5 -10.5 v 4.999996 5 h 10.5 10.5 z"
     id="path52"
     inkscape:connector-curvature="0" />
</svg>
