<?xml version="1.0" encoding="UTF-8" standalone="no"?>
<!-- Created with Inkscape (http://www.inkscape.org/) -->

<svg
   xmlns:dc="http://purl.org/dc/elements/1.1/"
   xmlns:cc="http://creativecommons.org/ns#"
   xmlns:rdf="http://www.w3.org/1999/02/22-rdf-syntax-ns#"
   xmlns:svg="http://www.w3.org/2000/svg"
   xmlns="http://www.w3.org/2000/svg"
   xmlns:sodipodi="http://sodipodi.sourceforge.net/DTD/sodipodi-0.dtd"
   xmlns:inkscape="http://www.inkscape.org/namespaces/inkscape"
   version="1.1"
   id="svg10"
   width="1023"
   height="652"
   viewBox="0 0 1023 652"
   sodipodi:docname="5.svg"
   inkscape:version="0.92.3 (2405546, 2018-03-11)">
  <metadata
     id="metadata16">
    <rdf:RDF>
      <cc:Work
         rdf:about="">
        <dc:format>image/svg+xml</dc:format>
        <dc:type
           rdf:resource="http://purl.org/dc/dcmitype/StillImage" />
        <dc:title></dc:title>
      </cc:Work>
    </rdf:RDF>
  </metadata>
  <defs
     id="defs14" />
  <sodipodi:namedview
     pagecolor="#ffffff"
     bordercolor="#666666"
     borderopacity="1"
     objecttolerance="10"
     gridtolerance="10"
     guidetolerance="10"
     inkscape:pageopacity="0"
     inkscape:pageshadow="2"
     inkscape:window-width="1366"
     inkscape:window-height="715"
     id="namedview12"
     showgrid="false"
     inkscape:zoom="0.83742331"
     inkscape:cx="511.5"
     inkscape:cy="326"
     inkscape:window-x="-8"
     inkscape:window-y="-8"
     inkscape:window-maximized="1"
     inkscape:current-layer="svg10" />
  <g
     id="g20">
    <path
       style="fill:#8c8c8c;fill-opacity:1"
       d="M 426.66667,527.33333 C 426.3,526.96667 426,524.74132 426,522.38812 v -4.27854 l -4.75,-0.30479 -4.75,-0.30479 -0.30264,-4.69736 -0.30264,-4.69736 -4.69736,-0.30264 L 406.5,507.5 l -0.30264,-4.69736 -0.30264,-4.69736 -4.69736,-0.30264 L 396.5,497.5 l -0.30264,-4.69736 -0.30264,-4.69736 -4.69736,-0.30264 L 386.5,487.5 l -0.30264,-4.69736 -0.30264,-4.69736 -4.69736,-0.30264 L 376.5,477.5 376.19521,472.75 375.89042,468 H 372.027 C 365.85032,468 365,467.32151 365,462.39301 365,458.05911 364.954,458 361.58179,458 355.88224,458 355,457.24842 355,452.39301 355,448.05911 354.954,448 351.58179,448 345.88224,448 345,447.24842 345,442.39301 345,438.05911 344.954,438 341.58179,438 335.88224,438 335,437.24842 335,432.39301 335,428.05911 334.954,428 331.58179,428 325.88224,428 325,427.24842 325,422.39301 325,418.05911 324.954,418 321.58179,418 315.88224,418 315,417.24842 315,412.39301 315,408.05911 314.954,408 311.58179,408 305.88224,408 305,407.24842 305,402.39301 305,398.05911 304.954,398 301.58179,398 295.88224,398 295,397.24842 295,392.39301 295,388.05911 294.954,388 291.58179,388 285.88224,388 285,387.24842 285,382.39301 285,378.05911 284.954,378 281.58179,378 274.39592,378 275,385.40469 275,297.32158 275,209.5804 274.57678,215 281.42857,215 284.85714,215 285,214.85714 285,211.42857 285,206.90289 286.90289,205 291.42857,205 294.85714,205 295,204.85714 295,201.42857 295,196.90289 296.90289,195 301.42857,195 304.85714,195 305,194.85714 305,191.42857 305,186.90289 306.90289,185 311.42857,185 314.85714,185 315,184.85714 315,181.42857 315,176.90289 316.90289,175 321.42857,175 324.85714,175 325,174.85714 325,171.42857 325,166.90289 326.90289,165 331.42857,165 334.85714,165 335,164.85714 335,161.42857 335,156.90289 336.90289,155 341.42857,155 344.85714,155 345,154.85714 345,151.42857 345,146.90289 346.90289,145 351.42857,145 354.98182,145 355,144.97764 355,140.60699 355,135.75158 355.88224,135 361.58179,135 364.954,135 365,134.94089 365,130.60699 365,125.75158 365.88224,125 371.58179,125 374.954,125 375,124.94089 375,120.60699 375,115.75158 375.88224,115 381.58179,115 384.954,115 385,114.94089 385,110.60699 385,105.75158 385.88224,105 391.58179,105 394.954,105 395,104.94089 395,100.60699 395,95.751575 395.88224,95 401.58179,95 404.954,95 405,94.940885 405,90.606989 405,85.751575 405.88224,85 411.58179,85 414.954,85 415,84.940885 415,80.606989 415,75.751575 415.88224,75 421.58179,75 424.96418,75 425,74.953047 425,70.519052 c 0,-3.818957 0.3324,-4.561365 2.25,-5.025285 1.2375,-0.299386 37.8,-0.420459 81.25,-0.269052 l 79,0.275285 0.30264,4.697359 0.30264,4.697358 4.69736,0.302642 L 597.5,75.5 l 0.30264,4.697359 0.30264,4.697358 4.69736,0.302642 L 607.5,85.5 l 0.30264,4.697359 0.30264,4.697358 4.69736,0.302642 L 617.5,95.5 l 0.30264,4.69736 0.30264,4.69736 4.69736,0.30264 4.69736,0.30264 0.30264,4.69736 0.30264,4.69736 4.69736,0.30264 4.69736,0.30264 0.30264,4.69736 0.30264,4.69736 4.69736,0.30264 4.69736,0.30264 0.30264,4.69736 0.30264,4.69736 4.69736,0.30264 4.69736,0.30264 0.30479,4.75 0.30479,4.75 h 3.86342 c 6.17668,0 7.027,0.67849 7.027,5.60699 0,4.3339 0.046,4.39301 3.41821,4.39301 5.69955,0 6.58179,0.75158 6.58179,5.60699 0,4.3339 0.046,4.39301 3.41821,4.39301 5.69955,0 6.58179,0.75158 6.58179,5.60699 0,4.3339 0.046,4.39301 3.41821,4.39301 5.69955,0 6.58179,0.75158 6.58179,5.60699 0,4.3339 0.046,4.39301 3.41821,4.39301 5.69955,0 6.58179,0.75158 6.58179,5.60699 0,4.3339 0.046,4.39301 3.41821,4.39301 5.69955,0 6.58179,0.75158 6.58179,5.60699 0,4.3339 0.046,4.39301 3.41821,4.39301 5.69955,0 6.58179,0.75158 6.58179,5.60699 0,4.3339 0.046,4.39301 3.41821,4.39301 C 739.60408,215 739,207.59531 739,295.67842 739,383.4196 739.42322,378 732.57143,378 729.14286,378 729,378.14286 729,381.57143 729,386.09711 727.09711,388 722.57143,388 719.14286,388 719,388.14286 719,391.57143 719,396.09711 717.09711,398 712.57143,398 709.14286,398 709,398.14286 709,401.57143 709,406.09711 707.09711,408 702.57143,408 699.14286,408 699,408.14286 699,411.57143 699,416.09711 697.09711,418 692.57143,418 689.14286,418 689,418.14286 689,421.57143 689,426.09711 687.09711,428 682.57143,428 679.14286,428 679,428.14286 679,431.57143 679,436.09711 677.09711,438 672.57143,438 669.14286,438 669,438.14286 669,441.57143 669,446.09711 667.09711,448 662.57143,448 659.14286,448 659,448.14286 659,451.57143 659,456.09711 657.09711,458 652.57143,458 649.14286,458 649,458.14286 649,461.57143 649,466.09711 647.09711,468 642.57143,468 639.14286,468 639,468.14286 639,471.57143 639,476.09711 637.09711,478 632.57143,478 629.01818,478 629,478.02236 629,482.39301 629,487.24842 628.11776,488 622.41821,488 619.046,488 619,488.05911 619,492.39301 619,497.24842 618.11776,498 612.41821,498 609.046,498 609,498.05911 609,502.39301 609,507.24842 608.11776,508 602.41821,508 599.046,508 599,508.05911 599,512.39301 599,517.24842 598.11776,518 592.41821,518 589.046,518 589,518.05911 589,522.39301 c 0,3.08336 -0.47156,4.57397 -1.58179,5 -2.16759,0.83178 -159.91865,0.77322 -160.75154,-0.0597 z M 446,521 c 0,-2.88889 0.41667,-4 1.5,-4 1.08333,0 1.5,1.11111 1.5,4 v 4 h 8.5 8.5 v -3.44521 c 0,-3.40063 -0.0615,-3.44915 -4.75,-3.75 L 456.5,517.5 l -0.29407,-9 C 455.74662,494.4431 455.32118,495 466.51905,495 H 476 v -18.41821 c 0,-10.13002 0.27314,-19.13002 0.60699,-20 0.42603,-1.11023 1.91664,-1.58179 5,-1.58179 C 485.94089,455 486,454.954 486,451.58179 486,444.74322 485.19324,445 506.67842,445 528.3612,445 529,445.18397 529,451.42857 529,454.85714 529.14286,455 532.57143,455 538.78288,455 539,455.72374 539,476.42857 V 495 h 8.57143 C 558.78339,495 559,495.23353 559,507.32158 559,517.74356 558.84194,518 552.41821,518 549.17835,518 549,518.18262 549,521.5 v 3.5 h 8.5 8.5 v -4 c 0,-2.88889 0.41667,-4 1.5,-4 1.08333,0 1.5,1.11111 1.5,4 v 4 h 8.5 8.5 v -3.41821 C 586,515.88224 586.75158,515 591.60699,515 595.9476,515 596,514.9589 596,511.55479 c 0,-3.40063 -0.0615,-3.44915 -4.75,-3.75 -4.74071,-0.30419 -4.75063,-0.31243 -5.06959,-4.20947 -0.59253,-7.2395 0.26085,-8.59532 5.41007,-8.59532 5.51005,0 7.40952,1.648 7.40952,6.42857 0,3.41497 0.15333,3.57143 3.5,3.57143 3.31738,0 3.5,-0.17835 3.5,-3.41821 C 606,495.88224 606.75158,495 611.60699,495 615.95447,495 616,494.964 616,491.52673 v -3.47326 L 601.25,487.77673 586.5,487.5 l -0.30264,-4.69736 -0.30264,-4.69736 -4.69736,-0.30264 L 576.5,477.5 l -0.29407,-9 C 575.78787,455.70568 576.0626,455 581.46155,455 h 4.42345 l 0.3075,-4.25 c 0.16913,-2.3375 0.15151,-6.13962 -0.0391,-8.44916 l -0.34665,-4.19915 -4.65335,-0.30085 L 576.5,437.5 l -0.30264,-4.69736 -0.30264,-4.69736 -4.69736,-0.30264 L 566.5,427.5 l -0.30264,-4.69736 -0.30264,-4.69736 -4.69736,-0.30264 L 556.5,417.5 l -0.28398,-19 c -0.15618,-10.45 -0.0351,-20.0125 0.26905,-21.25 0.46975,-1.91114 1.21963,-2.25 4.97919,-2.25 h 4.42616 l 0.30479,-4.75 0.30479,-4.75 4.69736,-0.30264 4.69736,-0.30264 0.30264,-4.69736 L 576.5,355.5 l 4.69736,-0.30264 4.69736,-0.30264 0.30264,-4.69736 L 586.5,345.5 l 19,-0.28398 c 10.45,-0.15618 20.0125,-0.0351 21.25,0.26905 1.9163,0.47101 2.25,1.2176 2.25,5.03398 0,4.434 0.0358,4.48095 3.41821,4.48095 5.69955,0 6.58179,0.75158 6.58179,5.60699 0,4.3339 0.046,4.39301 3.41821,4.39301 5.69955,0 6.58179,0.75158 6.58179,5.60699 V 375 h 8.44521 8.44521 l 0.30479,-4.75 0.30479,-4.75 9,-0.29407 c 12.82017,-0.4189 13.5,-0.15134 13.5,5.31312 0,4.434 0.0358,4.48095 3.41821,4.48095 C 699.11024,375 699,374.7386 699,390.60699 V 405 h 3.44521 c 3.40063,0 3.44915,-0.0615 3.75,-4.75 l 0.30479,-4.75 4.75,-0.30479 c 4.68854,-0.30085 4.75,-0.34937 4.75,-3.75 C 716,388.03084 715.9599,388 711.51905,388 c -5.07001,0 -5.92895,-1.38291 -5.33864,-8.59532 0.30726,-3.75405 0.47022,-3.91701 4.22427,-4.22427 7.21241,-0.59031 8.59532,0.26863 8.59532,5.33864 0,4.44084 0.0308,4.48095 3.44521,4.48095 3.40063,0 3.44915,-0.0615 3.75,-4.75 l 0.30479,-4.75 4.75,-0.30479 4.75,-0.30479 V 366.44521 358 h -4.5 c -3.33333,0 -4.5,-0.38889 -4.5,-1.5 0,-1.11111 1.16667,-1.5 4.5,-1.5 h 4.5 v -8.5 -8.5 h -3.5 c -3.34667,0 -3.5,0.15646 -3.5,3.57143 0,5.62386 -1.54238,6.42857 -12.32158,6.42857 -7.70784,0 -9.5771,-0.29358 -10.07143,-1.58179 -0.33385,-0.86998 -0.60699,-5.36998 -0.60699,-10 V 328 H 686.60699 C 665.20098,328 666,328.25521 666,321.41821 666,318.03582 665.95305,318 661.51905,318 c -3.81638,0 -4.56297,-0.3337 -5.03398,-2.25 -0.30416,-1.2375 -0.42523,-10.8 -0.26905,-21.25 l 0.28398,-19 4.69736,-0.30264 4.69736,-0.30264 0.30264,-4.69736 L 666.5,265.5 l 19.71404,-0.27102 19.71404,-0.27102 0.28596,-9.72898 L 706.5,245.5 l 9,-0.29407 c 12.82017,-0.4189 13.5,-0.15134 13.5,5.31312 0,4.45442 0.0207,4.48095 3.5,4.48095 h 3.5 v -8.5 -8.5 h -4.5 c -3.33333,0 -4.5,-0.38889 -4.5,-1.5 0,-1.11111 1.16667,-1.5 4.5,-1.5 h 4.5 v -8.5 -8.5 h -4.39301 C 726.75158,218 726,217.11776 726,211.41821 726,208.17835 725.81738,208 722.5,208 c -3.34667,0 -3.5,0.15646 -3.5,3.57143 0,4.78057 -1.89947,6.42857 -7.40952,6.42857 -5.14922,0 -6.0026,-1.35582 -5.41007,-8.59532 0.31896,-3.89704 0.32888,-3.90528 5.06959,-4.20947 4.68854,-0.30085 4.75,-0.34937 4.75,-3.75 C 716,198.0411 715.9476,198 711.60699,198 706.75158,198 706,197.11776 706,191.41821 706,188.17835 705.81738,188 702.5,188 H 699 v 13.57143 C 699,216.81288 698.53548,218 692.57143,218 689.14286,218 689,218.14286 689,221.57143 689,227.19529 687.45762,228 676.67842,228 666.25644,228 666,227.84194 666,221.41821 V 218 h -8.5 -8.5 v 3.57143 C 649,226.09711 647.09711,228 642.57143,228 639.14286,228 639,228.14286 639,231.57143 639,236.09711 637.09711,238 632.57143,238 629.14286,238 629,238.14286 629,241.57143 629,247.81603 628.3612,248 606.67842,248 585.19324,248 586,248.25678 586,241.41821 586,238.046 585.94089,238 581.60699,238 576.75158,238 576,237.11776 576,231.41821 576,228.08697 575.89641,228 571.92857,228 566.91603,228 565,226.22224 565,221.57143 565,218.14286 564.85714,218 561.42857,218 555.18397,218 555,217.3612 555,195.67842 555,174.19324 554.74322,175 561.58179,175 564.954,175 565,174.94089 565,170.60699 565,165.67849 565.85032,165 572.027,165 h 3.86342 l 0.30479,-4.75 0.30479,-4.75 4.75,-0.30479 c 5.3705,-0.34461 5.25796,-0.0419 4.10754,-11.04852 L 584.71509,138 h -3.42897 C 575.81423,138 575,136.40401 575,125.67842 575,115.25644 575.15806,115 581.58179,115 584.954,115 585,114.94089 585,110.60699 c 0,-3.08336 0.47156,-4.57397 1.58179,-5 0.86998,-0.33385 7.61998,-0.60699 15,-0.60699 H 615 v -3.5 C 615,98.153333 614.84354,98 611.42857,98 606.90289,98 605,96.097109 605,91.571429 605,88.156463 604.84667,88 601.5,88 598.18262,88 598,88.178351 598,91.418213 598,97.136235 597.25479,98 592.32158,98 586.65621,98 585,96.343794 585,90.678417 585,85.745211 585.86377,85 591.58179,85 594.82165,85 595,84.817382 595,81.5 595,78.153333 594.84354,78 591.42857,78 586.90289,78 585,76.097109 585,71.571429 V 68 h -8.5 -8.5 v 4 c 0,2.888889 -0.41667,4 -1.5,4 -1.08333,0 -1.5,-1.111111 -1.5,-4 v -4 h -8.5 -8.5 v 3.445209 c 0,3.400629 0.0615,3.449152 4.75,3.75 L 557.5,75.5 l 0.29407,9 C 558.25338,98.556904 558.67882,98 547.48095,98 H 538 v 18.41821 c 0,10.13002 -0.27314,19.13002 -0.60699,20 -0.42603,1.11023 -1.91664,1.58179 -5,1.58179 C 528.05911,138 528,138.046 528,141.41821 528,148.25678 528.80676,148 507.32158,148 485.6388,148 485,147.81603 485,141.57143 485,138.14286 484.85714,138 481.42857,138 475.21712,138 475,137.27626 475,116.57143 V 98 h -8.57143 C 455.21661,98 455,97.766468 455,85.678417 455,75.256438 455.15806,75 461.58179,75 464.82165,75 465,74.817382 465,71.5 V 68 h -8.5 -8.5 v 4 c 0,2.888889 -0.41667,4 -1.5,4 -1.08333,0 -1.5,-1.111111 -1.5,-4 v -4 h -8.5 -8.5 v 3.418213 C 428,77.117761 427.24842,78 422.39301,78 418.0524,78 418,78.041096 418,81.445209 c 0,3.400629 0.0615,3.449152 4.75,3.75 4.74071,0.304195 4.75063,0.312431 5.06959,4.209468 C 428.41212,96.644181 427.55874,98 422.40952,98 416.89947,98 415,96.352005 415,91.571429 415,88.156463 414.84667,88 411.5,88 408.18262,88 408,88.178351 408,91.418213 408,97.117761 407.24842,98 402.39301,98 398.04553,98 398,98.036001 398,101.47327 v 3.47326 l 14.75,0.27674 14.75,0.27673 0.30264,4.69736 0.30264,4.69736 4.69736,0.30264 4.69736,0.30264 0.29407,9 c 0.4189,12.82017 0.15134,13.5 -5.31312,13.5 H 428 v 8.44521 8.44521 l 4.75,0.30479 4.75,0.30479 0.30264,4.69736 0.30264,4.69736 4.69736,0.30264 4.69736,0.30264 0.30264,4.69736 0.30264,4.69736 4.69736,0.30264 4.69736,0.30264 0.28398,19 c 0.15618,10.45 0.0351,20.0125 -0.26905,21.25 -0.47101,1.9163 -1.2176,2.25 -5.03398,2.25 C 448.04695,218 448,218.03582 448,221.41821 448,227.11776 447.24842,228 442.39301,228 438.05911,228 438,228.046 438,231.41821 438,237.11776 437.24842,238 432.39301,238 428.05911,238 428,238.046 428,241.41821 428,248.25678 428.80676,248 407.32158,248 385.6388,248 385,247.81603 385,241.57143 385,238.14286 384.85714,238 381.42857,238 376.90289,238 375,236.09711 375,231.57143 375,228.14286 374.85714,228 371.42857,228 366.90289,228 365,226.09711 365,221.57143 V 218 h -8.44521 -8.44521 l -0.30479,4.75 -0.30479,4.75 -9,0.29407 C 325.67983,228.21297 325,227.94541 325,222.48095 325,218.04695 324.96418,218 321.58179,218 314.88976,218 315,218.2614 315,202.39301 V 188 h -3.44521 c -3.40063,0 -3.44915,0.0615 -3.75,4.75 l -0.30479,4.75 -4.75,0.30479 c -4.68854,0.30085 -4.75,0.34937 -4.75,3.75 0,3.41437 0.0401,3.44521 4.48095,3.44521 5.07001,0 5.92895,1.38291 5.33864,8.59532 -0.30726,3.75405 -0.47022,3.91701 -4.22427,4.22427 C 296.38291,218.4099 295,217.55096 295,212.48095 295,208.04011 294.96916,208 291.55479,208 c -3.40063,0 -3.44915,0.0615 -3.75,4.75 l -0.30479,4.75 -4.75,0.30479 -4.75,0.30479 V 226.55479 235 h 4.5 c 3.33333,0 4.5,0.38889 4.5,1.5 0,1.11111 -1.16667,1.5 -4.5,1.5 H 278 v 8.5 8.5 h 3.5 c 3.34667,0 3.5,-0.15646 3.5,-3.57143 0,-5.62386 1.54238,-6.42857 12.32158,-6.42857 7.70784,0 9.5771,0.29358 10.07143,1.58179 0.33385,0.86998 0.60699,5.36998 0.60699,10 V 265 h 19.39301 C 348.79902,265 348,264.74479 348,271.58179 c 0,3.38239 0.0469,3.41821 4.48095,3.41821 3.81638,0 4.56297,0.3337 5.03398,2.25 0.30416,1.2375 0.42523,10.8 0.26905,21.25 l -0.28398,19 -4.69736,0.30264 -4.69736,0.30264 -0.30264,4.69736 L 347.5,327.5 l -19.71404,0.27102 -19.71404,0.27102 -0.28596,9.72898 L 307.5,347.5 l -9,0.29407 C 285.67983,348.21297 285,347.94541 285,342.48095 285,338.02653 284.97928,338 281.5,338 H 278 v 8.5 8.5 h 4.5 c 3.33333,0 4.5,0.38889 4.5,1.5 0,1.11111 -1.16667,1.5 -4.5,1.5 H 278 v 8.5 8.5 h 4.39301 c 4.85541,0 5.60699,0.88224 5.60699,6.58179 0,3.23986 0.18262,3.41821 3.5,3.41821 3.34667,0 3.5,-0.15646 3.5,-3.57143 C 295,376.648 296.89947,375 302.40952,375 c 5.14922,0 6.0026,1.35582 5.41007,8.59532 -0.31896,3.89704 -0.32888,3.90528 -5.06959,4.20947 -4.68854,0.30085 -4.75,0.34937 -4.75,3.75 0,3.40411 0.0524,3.44521 4.39301,3.44521 4.85541,0 5.60699,0.88224 5.60699,6.58179 0,3.23986 0.18262,3.41821 3.5,3.41821 H 315 V 391.42857 C 315,376.18712 315.46452,375 321.42857,375 324.85714,375 325,374.85714 325,371.42857 325,365.80471 326.54238,365 337.32158,365 347.74356,365 348,365.15806 348,371.58179 V 375 h 8.5 8.5 v -3.57143 C 365,366.90289 366.90289,365 371.42857,365 374.85714,365 375,364.85714 375,361.42857 375,356.90289 376.90289,355 381.42857,355 384.85714,355 385,354.85714 385,351.42857 385,345.18397 385.6388,345 407.32158,345 428.80676,345 428,344.74322 428,351.58179 428,354.954 428.05911,355 432.39301,355 437.24842,355 438,355.88224 438,361.58179 438,364.954 438.05911,365 442.39301,365 c 4.85541,0 5.60699,0.88224 5.60699,6.58179 0,3.38239 0.0469,3.41821 4.48095,3.41821 3.81638,0 4.56297,0.3337 5.03398,2.25 0.30416,1.2375 0.42523,10.8 0.26905,21.25 l -0.28398,19 -4.69736,0.30264 -4.69736,0.30264 -0.30264,4.69736 L 447.5,427.5 l -4.69736,0.30264 -4.69736,0.30264 -0.30264,4.69736 L 437.5,437.5 l -4.75,0.30479 c -5.3705,0.34461 -5.25796,0.0419 -4.10754,11.04852 L 429.28491,455 h 3.42897 C 438.18577,455 439,456.59599 439,467.32158 439,477.74356 438.84194,478 432.41821,478 429.046,478 429,478.05911 429,482.39301 c 0,3.08336 -0.47156,4.57397 -1.58179,5 -0.86998,0.33385 -7.61998,0.60699 -15,0.60699 H 399 v 3.5 c 0,3.34667 0.15646,3.5 3.57143,3.5 4.52568,0 6.42857,1.90289 6.42857,6.42857 0,3.41497 0.15333,3.57143 3.5,3.57143 3.31738,0 3.5,-0.17835 3.5,-3.41821 C 416,495.86377 416.74521,495 421.67842,495 427.34379,495 429,496.65621 429,502.32158 429,507.25479 428.13623,508 422.41821,508 419.17835,508 419,508.18262 419,511.5 c 0,3.34667 0.15646,3.5 3.57143,3.5 1.96428,0 4.21428,0.64286 5,1.42857 0.78571,0.78572 1.42857,3.03572 1.42857,5 V 525 h 8.5 8.5 z m 40,0 c 0,-2.88889 0.41667,-4 1.5,-4 1.08333,0 1.5,1.11111 1.5,4 v 4 h 8.5 8.5 v -3.44521 c 0,-3.40063 -0.0615,-3.44915 -4.75,-3.75 L 496.5,517.5 l -0.30264,-4.69736 -0.30264,-4.69736 -4.69736,-0.30264 L 486.5,507.5 l -0.30479,-4.75 c -0.30085,-4.68854 -0.34937,-4.75 -3.75,-4.75 H 479 v 9.39301 C 479,517.73622 478.83632,518 472.41821,518 469.17835,518 469,518.18262 469,521.5 v 3.5 h 8.5 8.5 z m 40,0 c 0,-2.88889 0.41667,-4 1.5,-4 1.08333,0 1.5,1.11111 1.5,4 v 4 h 8.5 8.5 v -3.44521 c 0,-3.40063 -0.0615,-3.44915 -4.75,-3.75 L 536.5,517.5 536.21379,507.75 535.92758,498 h -3.46379 C 529.03772,498 529,498.04784 529,502.39301 529,507.24842 528.11776,508 522.41821,508 519.046,508 519,508.05911 519,512.39301 519,517.24842 518.11776,518 512.41821,518 509.17835,518 509,518.18262 509,521.5 v 3.5 h 8.5 8.5 z M 476,506.5 V 498 h -8.5 -8.5 v 8.5 8.5 h 8.5 8.5 z m 40,5 V 508 h -8.5 -8.5 v 3.5 3.5 h 8.5 8.5 z m 40,-5 V 498 h -8.5 -8.5 v 8.5 8.5 h 8.5 8.5 z m -130,-5 c 0,-3.33333 -0.16667,-3.5 -3.5,-3.5 -3.33333,0 -3.5,0.16667 -3.5,3.5 0,3.33333 0.16667,3.5 3.5,3.5 3.33333,0 3.5,-0.16667 3.5,-3.5 z m 70,0.0818 C 496,495.15806 496.25644,495 506.67842,495 517.45762,495 519,495.80471 519,501.42857 c 0,3.41497 0.15333,3.57143 3.5,3.57143 3.31738,0 3.5,-0.17835 3.5,-3.41821 C 526,495.88224 526.75158,495 531.60699,495 H 536 v -8.5 -8.5 h -4.5 c -3.33333,0 -4.5,-0.38889 -4.5,-1.5 0,-1.11111 1.16667,-1.5 4.5,-1.5 h 4.5 v -8.44521 -8.44521 L 531.25,457.80479 526.5,457.5 526.19521,452.75 525.89042,448 H 517.44521 509 v 4.5 c 0,3.33333 -0.38889,4.5 -1.5,4.5 -1.11111,0 -1.5,-1.16667 -1.5,-4.5 V 448 h -8.5 -8.5 v 4.39301 C 489,457.24842 488.11776,458 482.41821,458 H 479 v 8.5 8.5 h 4 c 2.88889,0 4,0.41667 4,1.5 0,1.08333 -1.11111,1.5 -4,1.5 h -4 v 8.5 8.5 h 3.57143 c 4.52568,0 6.42857,1.90289 6.42857,6.42857 0,3.41497 0.15333,3.57143 3.5,3.57143 3.31738,0 3.5,-0.17835 3.5,-3.41821 z M 506,501.5 c 0,-3.33333 -0.16667,-3.5 -3.5,-3.5 -3.33333,0 -3.5,0.16667 -3.5,3.5 0,3.33333 0.16667,3.5 3.5,3.5 3.33333,0 3.5,-0.16667 3.5,-3.5 z m 10,0 c 0,-3.33333 -0.16667,-3.5 -3.5,-3.5 -3.33333,0 -3.5,0.16667 -3.5,3.5 0,3.33333 0.16667,3.5 3.5,3.5 3.33333,0 3.5,-0.16667 3.5,-3.5 z m 80,0 c 0,-3.33333 -0.16667,-3.5 -3.5,-3.5 -3.33333,0 -3.5,0.16667 -3.5,3.5 0,3.33333 0.16667,3.5 3.5,3.5 3.33333,0 3.5,-0.16667 3.5,-3.5 z M 396,471.58179 c 0,-7.38002 0.27314,-14.13002 0.60699,-15 0.40966,-1.06756 1.87257,-1.58179 4.5,-1.58179 C 404.88948,455 405,454.9006 405,451.5 V 448 H 381.5 358 v 3.5 c 0,3.46885 0.0391,3.5 4.39301,3.5 4.85541,0 5.60699,0.88224 5.60699,6.58179 0,3.23986 0.18262,3.41821 3.5,3.41821 3.34667,0 3.5,-0.15646 3.5,-3.57143 C 375,456.648 376.89947,455 382.40952,455 c 5.14922,0 6.0026,1.35582 5.41007,8.59532 -0.3127,3.8205 -0.41121,3.91131 -4.56959,4.21218 -4.11741,0.2979 -4.25,0.4149 -4.25,3.75 0,3.28073 0.16782,3.4425 3.57143,3.4425 4.52568,0 6.42857,1.90289 6.42857,6.42857 0,3.41497 0.15333,3.57143 3.5,3.57143 H 396 Z M 406,481.5 c 0,-3.33333 -0.16667,-3.5 -3.5,-3.5 -3.33333,0 -3.5,0.16667 -3.5,3.5 0,3.33333 0.16667,3.5 3.5,3.5 3.33333,0 3.5,-0.16667 3.5,-3.5 z m 20,0.0818 C 426,475.88224 426.75158,475 431.60699,475 H 436 v -8.44521 -8.44521 L 431.25,457.80479 426.5,457.5 426.19521,452.75 425.89042,448 H 417 408.10958 l -0.30479,4.75 -0.30479,4.75 -4.25,0.3075 -4.25,0.3075 V 466.5575 475 h 3.57143 C 407.09711,475 409,476.90289 409,481.42857 V 485 h 8.5 8.5 v -3.41821 z m 180,0 C 606,475.88224 606.75158,475 611.60699,475 H 616 v -8.44521 -8.44521 L 611.25,457.80479 606.5,457.5 606.19521,452.75 605.89042,448 H 597.44521 589 v 4.39301 C 589,457.24842 588.11776,458 582.41821,458 H 579 v 8.5 8.5 h 3.57143 C 587.09711,475 589,476.90289 589,481.42857 V 485 h 8.5 8.5 v -3.41821 z M 616,481.5 c 0,-3.33333 -0.16667,-3.5 -3.5,-3.5 -3.33333,0 -3.5,0.16667 -3.5,3.5 0,3.33333 0.16667,3.5 3.5,3.5 3.33333,0 3.5,-0.16667 3.5,-3.5 z m 10,0.0818 C 626,475.88224 626.75158,475 631.60699,475 635.9476,475 636,474.9589 636,471.55479 c 0,-3.40063 -0.0615,-3.44915 -4.75,-3.75 -4.74071,-0.30419 -4.75063,-0.31243 -5.06959,-4.20947 C 625.5927,456.41465 626.45789,455 631.43726,455 638.18933,455 639,455.60103 639,460.60699 639,464.9476 639.0411,465 642.44521,465 c 3.40063,0 3.44915,-0.0615 3.75,-4.75 l 0.30479,-4.75 4.75,-0.30479 c 4.68854,-0.30085 4.75,-0.34937 4.75,-3.75 V 448 H 632.5 609 v 3.5 c 0,3.34667 0.15646,3.5 3.57143,3.5 5.96405,0 6.42857,1.18712 6.42857,16.42857 V 485 h 3.5 c 3.31738,0 3.5,-0.17835 3.5,-3.41821 z M 385,461.5 c 0,-3.33333 -0.16667,-3.5 -3.5,-3.5 -3.33333,0 -3.5,0.16667 -3.5,3.5 0,3.33333 0.16667,3.5 3.5,3.5 3.33333,0 3.5,-0.16667 3.5,-3.5 z m 251,0 c 0,-3.33333 -0.16667,-3.5 -3.5,-3.5 -3.33333,0 -3.5,0.16667 -3.5,3.5 0,3.33333 0.16667,3.5 3.5,3.5 3.33333,0 3.5,-0.16667 3.5,-3.5 z m -281,-40 V 398 h -3.44521 c -3.40063,0 -3.44915,0.0615 -3.75,4.75 L 347.5,407.5 332.75,407.77673 318,408.05347 v 3.47326 c 0,3.43727 0.0455,3.47327 4.39301,3.47327 4.85541,0 5.60699,0.88224 5.60699,6.58179 0,3.23986 0.18262,3.41821 3.5,3.41821 3.34667,0 3.5,-0.15646 3.5,-3.57143 C 335,416.648 336.89947,415 342.40952,415 c 5.14922,0 6.0026,1.35582 5.41007,8.59532 -0.31896,3.89704 -0.32888,3.90528 -5.06959,4.20947 -4.68854,0.30085 -4.75,0.34937 -4.75,3.75 0,3.40411 0.0524,3.44521 4.39301,3.44521 4.85541,0 5.60699,0.88224 5.60699,6.58179 0,3.23986 0.18262,3.41821 3.5,3.41821 h 3.5 z m 10,20 c 0,-3.33333 -0.16667,-3.5 -3.5,-3.5 -3.33333,0 -3.5,0.16667 -3.5,3.5 0,3.33333 0.16667,3.5 3.5,3.5 3.33333,0 3.5,-0.16667 3.5,-3.5 z m 20,0 c 0,-3.31738 -0.17835,-3.5 -3.41821,-3.5 C 375.88224,438 375,437.24842 375,432.39301 375,428.05911 374.954,428 371.58179,428 365.88224,428 365,427.24842 365,422.39301 365,418.03909 364.96885,418 361.5,418 H 358 v 8.5 8.5 h 4.39301 C 367.24842,435 368,435.88224 368,441.58179 V 445 h 8.5 8.5 z m 20,-0.5 c 0,-2.88889 0.41667,-4 1.5,-4 1.08333,0 1.5,1.11111 1.5,4 v 4 h 8.5 8.5 v -3.57143 C 425,436.90289 426.90289,435 431.42857,435 434.84354,435 435,434.84667 435,431.5 435,428.18262 434.82165,428 431.58179,428 425.86377,428 425,427.25479 425,422.32158 425,416.65621 426.65621,415 432.32158,415 c 4.93321,0 5.67842,0.86377 5.67842,6.58179 0,3.23986 0.18262,3.41821 3.5,3.41821 3.34667,0 3.5,-0.15646 3.5,-3.57143 C 445,416.90289 446.90289,415 451.42857,415 H 455 v -8.5 -8.5 h -4 c -2.88889,0 -4,-0.41667 -4,-1.5 0,-1.08333 1.11111,-1.5 4,-1.5 h 4 v -8.5 -8.5 h -3.41821 C 445.88224,378 445,377.24842 445,372.39301 445,368.0524 444.9589,368 441.55479,368 c -3.40063,0 -3.44915,0.0615 -3.75,4.75 -0.30419,4.74071 -0.31243,4.75063 -4.20947,5.06959 C 426.35582,378.41212 425,377.55874 425,372.40952 425,366.89947 426.648,365 431.42857,365 434.84354,365 435,364.84667 435,361.5 435,358.18262 434.82165,358 431.58179,358 425.88224,358 425,357.24842 425,352.39301 V 348 h -8.5 -8.5 v 4.5 c 0,3.33333 -0.38889,4.5 -1.5,4.5 -1.11111,0 -1.5,-1.16667 -1.5,-4.5 V 348 h -8.44521 -8.44521 l -0.30479,4.75 -0.30479,4.75 -4.75,0.30479 c -4.68854,0.30085 -4.75,0.34937 -4.75,3.75 0,3.41437 0.0401,3.44521 4.48095,3.44521 5.07001,0 5.92895,1.38291 5.33864,8.59532 -0.30726,3.75405 -0.47022,3.91701 -4.22427,4.22427 C 376.38291,378.4099 375,377.55096 375,372.48095 375,368.04011 374.96916,368 371.55479,368 c -3.40063,0 -3.44915,0.0615 -3.75,4.75 l -0.30479,4.75 -4.75,0.30479 -4.75,0.30479 V 386.55479 395 h 4.5 c 3.33333,0 4.5,0.38889 4.5,1.5 0,1.11111 -1.16667,1.5 -4.5,1.5 H 358 v 8.5 8.5 h 3.5 c 3.34667,0 3.5,-0.15646 3.5,-3.57143 C 365,405.80471 366.54238,405 377.32158,405 387.74356,405 388,405.15806 388,411.58179 c 0,3.38239 0.0469,3.41821 4.48095,3.41821 5.46446,0 5.73202,0.67983 5.31312,13.5 l -0.29407,9 -4.75,0.30479 c -4.68854,0.30085 -4.75,0.34937 -4.75,3.75 V 445 h 8.5 8.5 z m 201,-0.5 c 0,-3.33333 0.38889,-4.5 1.5,-4.5 1.11111,0 1.5,1.16667 1.5,4.5 v 4.5 h 8.5 8.5 v -3.5 c 0,-3.47928 -0.0265,-3.5 -4.48095,-3.5 -5.46446,0 -5.73202,-0.67983 -5.31312,-13.5 l 0.29407,-9 4.69736,-0.30264 4.69736,-0.30264 0.30264,-4.69736 L 626.5,405.5 l 9,-0.29407 c 12.82017,-0.4189 13.5,-0.15134 13.5,5.31312 0,4.45442 0.0207,4.48095 3.5,4.48095 h 3.5 v -8.5 -8.5 h -4.5 c -3.33333,0 -4.5,-0.38889 -4.5,-1.5 0,-1.11111 1.16667,-1.5 4.5,-1.5 h 4.5 v -8.5 -8.5 h -4.39301 C 646.75158,378 646,377.11776 646,371.41821 646,368.17835 645.81738,368 642.5,368 c -3.34667,0 -3.5,0.15646 -3.5,3.57143 0,4.78057 -1.89947,6.42857 -7.40952,6.42857 -5.14922,0 -6.0026,-1.35582 -5.41007,-8.59532 0.31896,-3.89704 0.32888,-3.90528 5.06959,-4.20947 4.68854,-0.30085 4.75,-0.34937 4.75,-3.75 C 636,358.0411 635.9476,358 631.60699,358 626.75158,358 626,357.11776 626,351.41821 V 348 h -8.5 -8.5 v 4 c 0,2.88889 -0.41667,4 -1.5,4 -1.08333,0 -1.5,-1.11111 -1.5,-4 v -4 h -8.5 -8.5 v 3.57143 C 589,356.09711 587.09711,358 582.57143,358 579.15646,358 579,358.15333 579,361.5 c 0,3.31738 0.17835,3.5 3.41821,3.5 C 588.13623,365 589,365.74521 589,370.67842 589,376.34379 587.34379,378 581.67842,378 576.74521,378 576,377.13623 576,371.41821 576,368.17835 575.81738,368 572.5,368 c -3.34667,0 -3.5,0.15646 -3.5,3.57143 C 569,376.09711 567.09711,378 562.57143,378 H 559 v 8.5 8.5 h 4 c 2.88889,0 4,0.41667 4,1.5 0,1.08333 -1.11111,1.5 -4,1.5 h -4 v 8.5 8.5 h 3.57143 c 4.52568,0 6.42857,1.90289 6.42857,6.42857 0,3.41497 0.15333,3.57143 3.5,3.57143 3.31738,0 3.5,-0.17835 3.5,-3.41821 C 576,415.90394 576.75883,415 581.5252,415 588.20241,415 589,415.60591 589,420.67842 589,426.09533 587.32765,428 582.57143,428 579.15646,428 579,428.15333 579,431.5 c 0,3.31738 0.17835,3.5 3.41821,3.5 5.69955,0 6.58179,0.75158 6.58179,5.60699 V 445 h 8.5 8.5 z m 40.19521,-0.25 0.30479,-4.75 4.75,-0.30479 4.75,-0.30479 V 426.44521 418 h -3.5 c -3.34667,0 -3.5,0.15646 -3.5,3.57143 C 649,426.09711 647.09711,428 642.57143,428 639.14286,428 639,428.14286 639,431.57143 639,436.09711 637.09711,438 632.57143,438 629.15646,438 629,438.15333 629,441.5 v 3.5 h 8.44521 8.44521 z M 656,441.5 c 0,-3.33333 -0.16667,-3.5 -3.5,-3.5 -3.33333,0 -3.5,0.16667 -3.5,3.5 0,3.33333 0.16667,3.5 3.5,3.5 3.33333,0 3.5,-0.16667 3.5,-3.5 z m 10.19521,-1.25 0.30479,-4.75 4.75,-0.30479 c 4.68854,-0.30085 4.75,-0.34937 4.75,-3.75 C 676,428.03084 675.9599,428 671.51905,428 c -5.07001,0 -5.92895,-1.38291 -5.33864,-8.59532 0.30726,-3.75405 0.47022,-3.91701 4.22427,-4.22427 7.21241,-0.59031 8.59532,0.26863 8.59532,5.33864 0,4.44084 0.0308,4.48095 3.44521,4.48095 3.40063,0 3.44915,-0.0615 3.75,-4.75 l 0.30479,-4.75 4.75,-0.30479 c 4.68854,-0.30085 4.75,-0.34937 4.75,-3.75 V 408 H 681.60699 C 665.7386,408 666,408.11024 666,401.41821 666,398.17835 665.81738,398 662.5,398 H 659 v 23.5 23.5 h 3.44521 c 3.40063,0 3.44915,-0.0615 3.75,-4.75 z M 395,426.5 V 418 h -3.44521 c -3.40063,0 -3.44915,0.0615 -3.75,4.75 l -0.30479,4.75 -4.75,0.30479 c -4.68854,0.30085 -4.75,0.34937 -4.75,3.75 V 435 h 8.5 8.5 z m 241,5 c 0,-3.46885 -0.0391,-3.5 -4.39301,-3.5 C 626.75158,428 626,427.11776 626,421.41821 626,418.17835 625.81738,418 622.5,418 H 619 v 8.5 8.5 h 8.5 8.5 z m -291,-10 c 0,-3.33333 -0.16667,-3.5 -3.5,-3.5 -3.33333,0 -3.5,0.16667 -3.5,3.5 0,3.33333 0.16667,3.5 3.5,3.5 3.33333,0 3.5,-0.16667 3.5,-3.5 z m 30,-0.0714 C 375,416.90289 376.90289,415 381.42857,415 384.84354,415 385,414.84667 385,411.5 V 408 h -8.5 -8.5 v 8.5 8.5 h 3.5 c 3.34667,0 3.5,-0.15646 3.5,-3.57143 z m 10,0.0714 c 0,-3.33333 -0.16667,-3.5 -3.5,-3.5 -3.33333,0 -3.5,0.16667 -3.5,3.5 0,3.33333 0.16667,3.5 3.5,3.5 3.33333,0 3.5,-0.16667 3.5,-3.5 z m 50,0 c 0,-3.33333 -0.16667,-3.5 -3.5,-3.5 -3.33333,0 -3.5,0.16667 -3.5,3.5 0,3.33333 0.16667,3.5 3.5,3.5 3.33333,0 3.5,-0.16667 3.5,-3.5 z m 151,0 c 0,-3.33333 -0.16667,-3.5 -3.5,-3.5 -3.33333,0 -3.5,0.16667 -3.5,3.5 0,3.33333 0.16667,3.5 3.5,3.5 3.33333,0 3.5,-0.16667 3.5,-3.5 z m 50,0 c 0,-3.33333 -0.16667,-3.5 -3.5,-3.5 -3.33333,0 -3.5,0.16667 -3.5,3.5 0,3.33333 0.16667,3.5 3.5,3.5 3.33333,0 3.5,-0.16667 3.5,-3.5 z m 10,-5 V 408 h -8.5 -8.5 v 3.5 c 0,3.31738 0.17835,3.5 3.41821,3.5 5.69955,0 6.58179,0.75158 6.58179,5.60699 0,4.35392 0.0312,4.39301 3.5,4.39301 h 3.5 z m 30,5 c 0,-3.33333 -0.16667,-3.5 -3.5,-3.5 -3.33333,0 -3.5,0.16667 -3.5,3.5 0,3.33333 0.16667,3.5 3.5,3.5 3.33333,0 3.5,-0.16667 3.5,-3.5 z m -351,-20 c 0,-3.33333 -0.16667,-3.5 -3.5,-3.5 -3.33333,0 -3.5,0.16667 -3.5,3.5 0,3.33333 0.16667,3.5 3.5,3.5 3.33333,0 3.5,-0.16667 3.5,-3.5 z m 20,-0.0714 C 345,396.90289 346.90289,395 351.42857,395 H 355 v -8.5 -8.5 h -3.41821 C 345.88224,378 345,377.24842 345,372.39301 V 368 h -8.44521 -8.44521 l -0.30479,4.75 -0.30479,4.75 -4.75,0.30479 -4.75,0.30479 V 386.55479 395 h 4.39301 C 327.24842,395 328,395.88224 328,401.58179 V 405 h 8.5 8.5 v -3.57143 z M 686.19521,400.25 686.5,395.5 l 4.75,-0.30479 4.75,-0.30479 V 386.44521 378 h -4.39301 C 686.75158,378 686,377.11776 686,371.41821 V 368 h -8.5 -8.5 v 3.57143 C 669,376.09711 667.09711,378 662.57143,378 H 659 v 8.5 8.5 h 3.41821 C 668.11776,395 669,395.75158 669,400.60699 V 405 h 8.44521 8.44521 z M 696,401.5 c 0,-3.33333 -0.16667,-3.5 -3.5,-3.5 -3.33333,0 -3.5,0.16667 -3.5,3.5 0,3.33333 0.16667,3.5 3.5,3.5 3.33333,0 3.5,-0.16667 3.5,-3.5 z m -391,-20 c 0,-3.33333 -0.16667,-3.5 -3.5,-3.5 -3.33333,0 -3.5,0.16667 -3.5,3.5 0,3.33333 0.16667,3.5 3.5,3.5 3.33333,0 3.5,-0.16667 3.5,-3.5 z m 411,0 c 0,-3.33333 -0.16667,-3.5 -3.5,-3.5 -3.33333,0 -3.5,0.16667 -3.5,3.5 0,3.33333 0.16667,3.5 3.5,3.5 3.33333,0 3.5,-0.16667 3.5,-3.5 z m -331,-10 c 0,-3.33333 -0.16667,-3.5 -3.5,-3.5 -3.33333,0 -3.5,0.16667 -3.5,3.5 0,3.33333 0.16667,3.5 3.5,3.5 3.33333,0 3.5,-0.16667 3.5,-3.5 z m 50,0 c 0,-3.33333 -0.16667,-3.5 -3.5,-3.5 -3.33333,0 -3.5,0.16667 -3.5,3.5 0,3.33333 0.16667,3.5 3.5,3.5 3.33333,0 3.5,-0.16667 3.5,-3.5 z m 151,0 c 0,-3.33333 -0.16667,-3.5 -3.5,-3.5 -3.33333,0 -3.5,0.16667 -3.5,3.5 0,3.33333 0.16667,3.5 3.5,3.5 3.33333,0 3.5,-0.16667 3.5,-3.5 z m 50,0 c 0,-3.33333 -0.16667,-3.5 -3.5,-3.5 -3.33333,0 -3.5,0.16667 -3.5,3.5 0,3.33333 0.16667,3.5 3.5,3.5 3.33333,0 3.5,-0.16667 3.5,-3.5 z m -331,-35 V 328 h -8.5 -8.5 v 8.5 8.5 h 8.5 8.5 z m 421,0 V 328 h -8.5 -8.5 v 8.5 8.5 h 8.5 8.5 z M 285,331.42857 C 285,325.9082 286.61457,325 296.42857,325 H 305 v -3.5 c 0,-3.31738 -0.17835,-3.5 -3.41821,-3.5 C 295.88224,318 295,317.24842 295,312.39301 295,308.05911 294.954,308 291.58179,308 285.88224,308 285,307.24842 285,302.39301 285,298.03909 284.96885,298 281.5,298 H 278 v 8.5 8.5 h 4.5 c 3.33333,0 4.5,0.38889 4.5,1.5 0,1.11111 -1.16667,1.5 -4.5,1.5 H 278 v 8.5 8.5 h 3.5 c 3.34667,0 3.5,-0.15646 3.5,-3.57143 z M 736,326.5 V 318 h -4.5 c -3.33333,0 -4.5,-0.38889 -4.5,-1.5 0,-1.11111 1.16667,-1.5 4.5,-1.5 h 4.5 v -8.5 -8.5 h -3.5 c -3.34667,0 -3.5,0.15646 -3.5,3.57143 C 729,306.09711 727.09711,308 722.57143,308 719.14286,308 719,308.14286 719,311.57143 c 0,1.96428 -0.64286,4.21428 -1.42857,5 -0.78572,0.78571 -3.03572,1.42857 -5,1.42857 C 709.15646,318 709,318.15333 709,321.5 v 3.5 h 8.41821 C 728.51359,325 729,325.23548 729,330.60699 729,334.96091 729.03115,335 732.5,335 H 736 Z M 325,321 c 0,-2.88889 0.41667,-4 1.5,-4 1.08333,0 1.5,1.11111 1.5,4 v 4 h 8.5 8.5 v -3.57143 C 345,316.90289 346.90289,315 351.42857,315 H 355 v -8.5 -8.5 h -4 c -2.88889,0 -4,-0.41667 -4,-1.5 0,-1.08333 1.11111,-1.5 4,-1.5 h 4 v -8.5 -8.5 h -3.41821 C 345.88224,278 345,277.24842 345,272.39301 V 268 h -8.5 -8.5 v 4.5 c 0,3.33333 -0.38889,4.5 -1.5,4.5 -1.11111,0 -1.5,-1.16667 -1.5,-4.5 V 268 h -8.44521 -8.44521 l -0.30479,4.75 -0.30479,4.75 -4.75,0.30479 c -4.68854,0.30085 -4.75,0.34937 -4.75,3.75 0,3.41437 0.0401,3.44521 4.48095,3.44521 5.46446,0 5.73202,0.67983 5.31312,13.5 l -0.29407,9 -4.75,0.30479 c -4.68854,0.30085 -4.75,0.34937 -4.75,3.75 0,3.40411 0.0524,3.44521 4.39301,3.44521 4.85541,0 5.60699,0.88224 5.60699,6.58179 V 325 h 8.5 8.5 z m 361,-0.5 c 0,-3.33333 0.38889,-4.5 1.5,-4.5 1.11111,0 1.5,1.16667 1.5,4.5 v 4.5 h 8.44521 8.44521 l 0.30479,-4.75 0.30479,-4.75 4.75,-0.30479 c 4.68854,-0.30085 4.75,-0.34937 4.75,-3.75 C 716,308.03084 715.9599,308 711.51905,308 c -5.46446,0 -5.73202,-0.67983 -5.31312,-13.5 l 0.29407,-9 4.75,-0.30479 c 4.68854,-0.30085 4.75,-0.34937 4.75,-3.75 C 716,278.0411 715.9476,278 711.60699,278 706.75158,278 706,277.11776 706,271.41821 V 268 h -8.5 -8.5 v 4 c 0,2.88889 -0.41667,4 -1.5,4 -1.08333,0 -1.5,-1.11111 -1.5,-4 v -4 h -8.5 -8.5 v 3.57143 C 669,276.09711 667.09711,278 662.57143,278 H 659 v 8.5 8.5 h 4 c 2.88889,0 4,0.41667 4,1.5 0,1.08333 -1.11111,1.5 -4,1.5 h -4 v 8.5 8.5 h 3.41821 C 668.11776,315 669,315.75158 669,320.60699 V 325 h 8.5 8.5 z m -391,-24 V 288 h -3.5 -3.5 v 8.5 8.5 h 3.5 3.5 z m 10,5 c 0,-3.33333 -0.16667,-3.5 -3.5,-3.5 -3.33333,0 -3.5,0.16667 -3.5,3.5 0,3.33333 0.16667,3.5 3.5,3.5 3.33333,0 3.5,-0.16667 3.5,-3.5 z m 411,0 c 0,-3.33333 -0.16667,-3.5 -3.5,-3.5 -3.33333,0 -3.5,0.16667 -3.5,3.5 0,3.33333 0.16667,3.5 3.5,3.5 3.33333,0 3.5,-0.16667 3.5,-3.5 z m 10,-5 V 288 h -3.5 -3.5 v 8.5 8.5 h 3.5 3.5 z M 285,291.42857 C 285,286.90289 286.90289,285 291.42857,285 294.85714,285 295,284.85714 295,281.42857 c 0,-1.96428 0.64286,-4.21428 1.42857,-5 0.78572,-0.78571 3.03572,-1.42857 5,-1.42857 C 304.84354,275 305,274.84667 305,271.5 V 268 h -8.41821 C 285.48641,268 285,267.76452 285,262.39301 285,258.03909 284.96885,258 281.5,258 H 278 v 8.5 8.5 h 4.5 c 3.33333,0 4.5,0.38889 4.5,1.5 0,1.11111 -1.16667,1.5 -4.5,1.5 H 278 v 8.5 8.5 h 3.5 c 3.34667,0 3.5,-0.15646 3.5,-3.57143 z m 20,0.0714 c 0,-3.33333 -0.16667,-3.5 -3.5,-3.5 -3.33333,0 -3.5,0.16667 -3.5,3.5 0,3.33333 0.16667,3.5 3.5,3.5 3.33333,0 3.5,-0.16667 3.5,-3.5 z m 411,0 c 0,-3.33333 -0.16667,-3.5 -3.5,-3.5 -3.33333,0 -3.5,0.16667 -3.5,3.5 0,3.33333 0.16667,3.5 3.5,3.5 3.33333,0 3.5,-0.16667 3.5,-3.5 z m 20,-5 v -8.5 h -4.5 c -3.33333,0 -4.5,-0.38889 -4.5,-1.5 0,-1.11111 1.16667,-1.5 4.5,-1.5 h 4.5 v -8.5 -8.5 h -3.5 c -3.34667,0 -3.5,0.15646 -3.5,3.57143 0,5.5204 -1.61457,6.4286 -11.42857,6.4286 H 709 v 3.5 c 0,3.31738 0.17835,3.5 3.41821,3.5 5.69955,0 6.58179,0.75158 6.58179,5.60699 0,4.3339 0.046,4.39301 3.41821,4.39301 5.69955,0 6.58179,0.75158 6.58179,5.60699 0,4.35392 0.0312,4.39301 3.5,4.39301 h 3.5 v -8.5 z m -431,-30 v -8.5 h -8.5 -8.5 v 8.5 8.5 h 8.5 8.5 z m 421,0 v -8.5 h -8.5 -8.5 v 8.5 8.5 h 8.5 8.5 z m -321,-16 c 0,-3.33333 0.38889,-4.5 1.5,-4.5 1.11111,0 1.5,1.16667 1.5,4.5 v 4.5 h 8.5 8.5 v -4.39301 C 425,235.75158 425.88224,235 431.58179,235 434.82165,235 435,234.81738 435,231.5 435,228.15333 434.84354,228 431.42857,228 426.648,228 425,226.10053 425,220.59048 c 0,-5.14922 1.35582,-6.0026 8.59532,-5.41007 3.89704,0.31896 3.90528,0.32888 4.20947,5.06959 0.30085,4.68854 0.34937,4.75 3.75,4.75 C 444.9589,225 445,224.9476 445,220.60699 445,215.75158 445.88224,215 451.58179,215 H 455 v -8.5 -8.5 h -4 c -2.88889,0 -4,-0.41667 -4,-1.5 0,-1.08333 1.11111,-1.5 4,-1.5 h 4 v -8.5 -8.5 h -3.57143 C 446.90289,178 445,176.09711 445,171.57143 445,168.15646 444.84667,168 441.5,168 c -3.31738,0 -3.5,0.17835 -3.5,3.41821 C 438,177.13623 437.25479,178 432.32158,178 426.65621,178 425,176.34379 425,170.67842 425,165.74521 425.86377,165 431.58179,165 434.82165,165 435,164.81738 435,161.5 435,158.15333 434.84354,158 431.42857,158 426.90289,158 425,156.09711 425,151.57143 V 148 h -8.5 -8.5 v 4 c 0,2.88889 -0.41667,4 -1.5,4 -1.08333,0 -1.5,-1.11111 -1.5,-4 v -4 h -8.5 -8.5 v 3.44521 c 0,3.40063 0.0615,3.44915 4.75,3.75 l 4.75,0.30479 0.29407,9 c 0.4189,12.82017 0.15134,13.5 -5.31312,13.5 C 388.04695,178 388,178.03582 388,181.41821 388,187.84194 387.74356,188 377.32158,188 366.54238,188 365,187.19529 365,181.57143 365,178.15646 364.84667,178 361.5,178 H 358 v 8.5 8.5 h 4.5 c 3.33333,0 4.5,0.38889 4.5,1.5 0,1.11111 -1.16667,1.5 -4.5,1.5 H 358 v 8.44521 8.44521 l 4.75,0.30479 4.75,0.30479 0.30479,4.75 c 0.30085,4.68854 0.34937,4.75 3.75,4.75 3.41437,0 3.44521,-0.0401 3.44521,-4.48095 0,-5.07001 1.38291,-5.92895 8.59532,-5.33864 3.75405,0.30726 3.91701,0.47022 4.22427,4.22427 C 388.4099,226.61709 387.55096,228 382.48095,228 378.04011,228 378,228.03084 378,231.44521 c 0,3.40063 0.0615,3.44915 4.75,3.75 l 4.75,0.30479 0.30479,4.75 0.30479,4.75 H 396.55479 405 v -4.5 z m 201,0 c 0,-3.33333 0.38889,-4.5 1.5,-4.5 1.11111,0 1.5,1.16667 1.5,4.5 v 4.5 h 8.44521 8.44521 l 0.30479,-4.75 0.30479,-4.75 4.75,-0.30479 c 4.68854,-0.30085 4.75,-0.34937 4.75,-3.75 0,-3.41437 -0.0401,-3.44521 -4.48095,-3.44521 -5.07001,0 -5.92895,-1.38291 -5.33864,-8.59532 0.30726,-3.75405 0.47022,-3.91701 4.22427,-4.22427 7.21241,-0.59031 8.59532,0.26863 8.59532,5.33864 0,4.44084 0.0308,4.48095 3.44521,4.48095 3.40063,0 3.44915,-0.0615 3.75,-4.75 l 0.30479,-4.75 4.75,-0.30479 4.75,-0.30479 v -8.44521 -8.44521 h -4.5 c -3.33333,0 -4.5,-0.38889 -4.5,-1.5 0,-1.11111 1.16667,-1.5 4.5,-1.5 h 4.5 v -8.5 -8.5 h -3.5 c -3.34667,0 -3.5,0.15646 -3.5,3.57143 C 649,187.19529 647.45762,188 636.67842,188 626.25644,188 626,187.84194 626,181.41821 626,178.03582 625.95305,178 621.51905,178 c -5.46446,0 -5.73202,-0.67983 -5.31312,-13.5 l 0.29407,-9 4.75,-0.30479 c 4.68854,-0.30085 4.75,-0.34937 4.75,-3.75 V 148 h -8.5 -8.5 v 4 c 0,2.88889 -0.41667,4 -1.5,4 -1.08333,0 -1.5,-1.11111 -1.5,-4 v -4 h -8.5 -8.5 v 3.57143 C 589,156.09711 587.09711,158 582.57143,158 579.15646,158 579,158.15333 579,161.5 c 0,3.38596 0.12381,3.5 3.8,3.5 4.80557,0 6.2,1.41049 6.2,6.27143 C 589,176.32627 587.17875,178 581.67842,178 576.74521,178 576,177.13623 576,171.41821 576,168.09696 575.88653,168 572,168 c -3.88653,0 -4,0.097 -4,3.41821 C 568,177.11776 567.24842,178 562.39301,178 H 558 v 8.5 8.5 h 4.5 c 3.33333,0 4.5,0.38889 4.5,1.5 0,1.11111 -1.16667,1.5 -4.5,1.5 H 558 v 8.44521 8.44521 l 4.75,0.30479 4.75,0.30479 0.30479,4.75 0.30479,4.75 H 572 h 3.89042 l 0.30479,-4.75 c 0.30419,-4.74071 0.31243,-4.75063 4.20947,-5.06959 C 587.64418,214.58788 589,215.44126 589,220.59048 589,226.10053 587.352,228 582.57143,228 579.15646,228 579,228.15333 579,231.5 c 0,3.31738 0.17835,3.5 3.41821,3.5 5.69955,0 6.58179,0.75158 6.58179,5.60699 V 245 h 8.5 8.5 v -4.5 z M 345,221.42857 C 345,216.90289 346.90289,215 351.42857,215 H 355 v -8.5 -8.5 h -3.41821 C 345.88224,198 345,197.24842 345,192.39301 V 188 h -8.44521 -8.44521 l -0.30479,4.75 -0.30479,4.75 -4.75,0.30479 -4.75,0.30479 V 206.55479 215 h 4.39301 C 327.24842,215 328,215.88224 328,221.58179 V 225 h 8.5 8.5 z m 40,0.0714 c 0,-3.33333 -0.16667,-3.5 -3.5,-3.5 -3.33333,0 -3.5,0.16667 -3.5,3.5 0,3.33333 0.16667,3.5 3.5,3.5 3.33333,0 3.5,-0.16667 3.5,-3.5 z m 50,0 c 0,-3.33333 -0.16667,-3.5 -3.5,-3.5 -3.33333,0 -3.5,0.16667 -3.5,3.5 0,3.33333 0.16667,3.5 3.5,3.5 3.33333,0 3.5,-0.16667 3.5,-3.5 z m 151,0 c 0,-3.33333 -0.16667,-3.5 -3.5,-3.5 -3.33333,0 -3.5,0.16667 -3.5,3.5 0,3.33333 0.16667,3.5 3.5,3.5 3.33333,0 3.5,-0.16667 3.5,-3.5 z m 50,0 c 0,-3.33333 -0.16667,-3.5 -3.5,-3.5 -3.33333,0 -3.5,0.16667 -3.5,3.5 0,3.33333 0.16667,3.5 3.5,3.5 3.33333,0 3.5,-0.16667 3.5,-3.5 z m 50.19521,-1.25 0.30479,-4.75 4.75,-0.30479 4.75,-0.30479 v -8.44521 -8.44521 h -4.39301 C 686.75158,198 686,197.11776 686,191.41821 V 188 h -8.5 -8.5 v 3.57143 C 669,196.09711 667.09711,198 662.57143,198 H 659 v 8.5 8.5 h 3.41821 C 668.11776,215 669,215.75158 669,220.60699 V 225 h 8.44521 8.44521 l 0.30479,-4.75 z M 305,211.5 c 0,-3.33333 -0.16667,-3.5 -3.5,-3.5 -3.33333,0 -3.5,0.16667 -3.5,3.5 0,3.33333 0.16667,3.5 3.5,3.5 3.33333,0 3.5,-0.16667 3.5,-3.5 z m 411,0 c 0,-3.33333 -0.16667,-3.5 -3.5,-3.5 -3.33333,0 -3.5,0.16667 -3.5,3.5 0,3.33333 0.16667,3.5 3.5,3.5 3.33333,0 3.5,-0.16667 3.5,-3.5 z m -391,-20 c 0,-3.33333 -0.16667,-3.5 -3.5,-3.5 -3.33333,0 -3.5,0.16667 -3.5,3.5 0,3.33333 0.16667,3.5 3.5,3.5 3.33333,0 3.5,-0.16667 3.5,-3.5 z m 30,-20 V 148 h -3.44521 c -3.40063,0 -3.44915,0.0615 -3.75,4.75 l -0.30479,4.75 -4.75,0.30479 c -4.68854,0.30085 -4.75,0.34937 -4.75,3.75 0,3.41437 0.0401,3.44521 4.48095,3.44521 5.07001,0 5.92895,1.38291 5.33864,8.59532 -0.30726,3.75405 -0.47022,3.91701 -4.22427,4.22427 C 336.38291,178.4099 335,177.55096 335,172.48095 335,168.04011 334.96916,168 331.55479,168 c -3.40063,0 -3.44915,0.0615 -3.75,4.75 l -0.30479,4.75 -4.75,0.30479 c -4.68854,0.30085 -4.75,0.34937 -4.75,3.75 V 185 h 14.39301 C 348.2614,185 348,184.88976 348,191.58179 348,194.82165 348.18262,195 351.5,195 h 3.5 z m 311.19521,18.75 0.30479,-4.75 14.75,-0.27673 14.75,-0.27674 v -3.47326 C 696,178.036 695.95447,178 691.60699,178 686.75158,178 686,177.11776 686,171.41821 686,168.17835 685.81738,168 682.5,168 c -3.34667,0 -3.5,0.15646 -3.5,3.57143 0,4.78057 -1.89947,6.42857 -7.40952,6.42857 -5.14922,0 -6.0026,-1.35582 -5.41007,-8.59532 0.31896,-3.89704 0.32888,-3.90528 5.06959,-4.20947 4.68854,-0.30085 4.75,-0.34937 4.75,-3.75 C 676,158.0411 675.9476,158 671.60699,158 666.75158,158 666,157.11776 666,151.41821 666,148.07709 665.90653,148 661.8554,148 h -4.14461 l 0.6375,6.75 c 0.35062,3.7125 0.64069,14.2875 0.6446,23.5 L 659,195 h 3.44521 c 3.40063,0 3.44915,-0.0615 3.75,-4.75 z M 696,191.5 c 0,-3.33333 -0.16667,-3.5 -3.5,-3.5 -3.33333,0 -3.5,0.16667 -3.5,3.5 0,3.33333 0.16667,3.5 3.5,3.5 3.33333,0 3.5,-0.16667 3.5,-3.5 z m -311,-10 c 0,-3.31738 -0.17835,-3.5 -3.41821,-3.5 C 375.88224,178 375,177.24842 375,172.39301 375,168.03909 374.96885,168 371.5,168 H 368 v 8.5 8.5 h 8.5 8.5 z m 261,-5 V 168 h -3.5 c -3.34667,0 -3.5,0.15646 -3.5,3.57143 C 639,176.09711 637.09711,178 632.57143,178 629.15646,178 629,178.15333 629,181.5 v 3.5 h 8.5 8.5 z m -301,-5 c 0,-3.33333 -0.16667,-3.5 -3.5,-3.5 -3.33333,0 -3.5,0.16667 -3.5,3.5 0,3.33333 0.16667,3.5 3.5,3.5 3.33333,0 3.5,-0.16667 3.5,-3.5 z m 20,-0.89301 C 365,165.75158 365.88224,165 371.58179,165 374.83467,165 375,164.82726 375,161.42857 375,156.90289 376.90289,155 381.42857,155 384.84354,155 385,154.84667 385,151.5 V 148 h -8.44521 -8.44521 l -0.30479,4.75 -0.30479,4.75 -4.75,0.30479 -4.75,0.30479 V 166.55479 175 h 3.5 c 3.46885,0 3.5,-0.0391 3.5,-4.39301 z M 385,171.5 c 0,-3.33333 -0.16667,-3.5 -3.5,-3.5 -3.33333,0 -3.5,0.16667 -3.5,3.5 0,3.33333 0.16667,3.5 3.5,3.5 3.33333,0 3.5,-0.16667 3.5,-3.5 z m 10,-5 V 158 h -8.5 -8.5 v 3.44521 c 0,3.40063 0.0615,3.44915 4.75,3.75 l 4.75,0.30479 0.30479,4.75 c 0.30085,4.68854 0.34937,4.75 3.75,4.75 H 395 Z m 40,5 c 0,-3.33333 -0.16667,-3.5 -3.5,-3.5 -3.33333,0 -3.5,0.16667 -3.5,3.5 0,3.33333 0.16667,3.5 3.5,3.5 3.33333,0 3.5,-0.16667 3.5,-3.5 z m 151,0 c 0,-3.33333 -0.16667,-3.5 -3.5,-3.5 -3.33333,0 -3.5,0.16667 -3.5,3.5 0,3.33333 0.16667,3.5 3.5,3.5 3.33333,0 3.5,-0.16667 3.5,-3.5 z m 40.19521,-1.25 0.30479,-4.75 4.75,-0.30479 c 4.68854,-0.30085 4.75,-0.34937 4.75,-3.75 V 158 h -8.5 -8.5 v 8.5 8.5 h 3.44521 c 3.40063,0 3.44915,-0.0615 3.75,-4.75 z M 636,171.5 c 0,-3.33333 -0.16667,-3.5 -3.5,-3.5 -3.33333,0 -3.5,0.16667 -3.5,3.5 0,3.33333 0.16667,3.5 3.5,3.5 3.33333,0 3.5,-0.16667 3.5,-3.5 z m 20,-5 V 158 h -4.39301 C 646.75158,158 646,157.11776 646,151.41821 V 148 h -8.5 -8.5 v 3.5 c 0,3.31738 0.17835,3.5 3.41821,3.5 5.69955,0 6.58179,0.75158 6.58179,5.60699 0,4.3339 0.046,4.39301 3.41821,4.39301 5.69955,0 6.58179,0.75158 6.58179,5.60699 0,4.35392 0.0312,4.39301 3.5,4.39301 h 3.5 z m 20,5 c 0,-3.33333 -0.16667,-3.5 -3.5,-3.5 -3.33333,0 -3.5,0.16667 -3.5,3.5 0,3.33333 0.16667,3.5 3.5,3.5 3.33333,0 3.5,-0.16667 3.5,-3.5 z m -311,-20 c 0,-3.33333 -0.16667,-3.5 -3.5,-3.5 -3.33333,0 -3.5,0.16667 -3.5,3.5 0,3.33333 0.16667,3.5 3.5,3.5 3.33333,0 3.5,-0.16667 3.5,-3.5 z m 290,0 c 0,-3.22222 -0.2381,-3.5 -3,-3.5 -2.7619,0 -3,0.27778 -3,3.5 0,3.22222 0.2381,3.5 3,3.5 2.7619,0 3,-0.27778 3,-3.5 z m -250,-10 c 0,-3.34667 -0.15646,-3.5 -3.57143,-3.5 C 395.46452,138 395,136.81288 395,121.57143 V 108 h -3.5 c -3.31738,0 -3.5,0.17835 -3.5,3.41821 C 388,117.11776 387.24842,118 382.39301,118 378.0524,118 378,118.0411 378,121.44521 c 0,3.40063 0.0615,3.44915 4.75,3.75 4.74071,0.30419 4.75063,0.31243 5.06959,4.20947 C 388.41212,136.64418 387.55874,138 382.40952,138 376.89947,138 375,136.352 375,131.57143 375,128.15646 374.84667,128 371.5,128 c -3.31738,0 -3.5,0.17835 -3.5,3.41821 C 368,137.11776 367.24842,138 362.39301,138 358.03909,138 358,138.03115 358,141.5 v 3.5 h 23.5 23.5 z m 20,-0.89301 C 425,135.75158 425.88224,135 431.58179,135 H 435 v -8.5 -8.5 h -3.57143 C 426.90289,118 425,116.09711 425,111.57143 V 108 h -8.5 -8.5 v 3.41821 C 408,117.11776 407.24842,118 402.39301,118 H 398 v 8.44521 8.44521 l 4.75,0.30479 4.75,0.30479 0.30479,4.75 0.30479,4.75 H 416.55479 425 Z M 505,140.5 c 0,-3.33333 0.38889,-4.5 1.5,-4.5 1.11111,0 1.5,1.16667 1.5,4.5 v 4.5 h 8.5 8.5 v -4.39301 C 525,135.75158 525.88224,135 531.58179,135 H 535 v -8.5 -8.5 h -4 c -2.88889,0 -4,-0.41667 -4,-1.5 0,-1.08333 1.11111,-1.5 4,-1.5 h 4 V 106.5 98 h -3.57143 C 526.90289,98 525,96.097109 525,91.571429 525,88.156463 524.84667,88 521.5,88 518.18262,88 518,88.178351 518,91.418213 518,97.841941 517.74356,98 507.32158,98 496.54238,98 495,97.195292 495,91.571429 495,88.156463 494.84667,88 491.5,88 488.18262,88 488,88.178351 488,91.418213 488,97.117761 487.24842,98 482.39301,98 H 478 v 8.5 8.5 h 4.5 c 3.33333,0 4.5,0.38889 4.5,1.5 0,1.11111 -1.16667,1.5 -4.5,1.5 H 478 v 8.44521 8.44521 l 4.75,0.30479 4.75,0.30479 0.30479,4.75 0.30479,4.75 H 496.55479 505 Z m 100,0.10699 C 605,135.75158 605.88224,135 611.58179,135 H 615 v -8.5 -8.5 h -3.57143 C 606.90289,118 605,116.09711 605,111.57143 V 108 h -8.5 -8.5 v 3.41821 C 588,117.11776 587.24842,118 582.39301,118 H 578 v 8.44521 8.44521 l 4.75,0.30479 4.75,0.30479 0.30479,4.75 0.30479,4.75 H 596.55479 605 Z M 655,141.5 c 0,-3.34667 -0.15646,-3.5 -3.57143,-3.5 C 646.90289,138 645,136.09711 645,131.57143 645,128.15646 644.84667,128 641.5,128 c -3.31738,0 -3.5,0.17835 -3.5,3.41821 C 638,137.13623 637.25479,138 632.32158,138 626.65621,138 625,136.34379 625,130.67842 625,125.74521 625.86377,125 631.58179,125 634.82165,125 635,124.81738 635,121.5 635,118.15333 634.84354,118 631.42857,118 626.90289,118 625,116.09711 625,111.57143 625,108.15646 624.84667,108 621.5,108 H 618 v 13.41821 c 0,7.38002 -0.27314,14.13002 -0.60699,15 -0.42603,1.11023 -1.91664,1.58179 -5,1.58179 C 608.03909,138 608,138.0311 608,141.5 v 3.5 h 23.5 23.5 z m -270,-10 c 0,-3.33333 -0.16667,-3.5 -3.5,-3.5 -3.33333,0 -3.5,0.16667 -3.5,3.5 0,3.33333 0.16667,3.5 3.5,3.5 3.33333,0 3.5,-0.16667 3.5,-3.5 z m 250,0 c 0,-3.33333 -0.16667,-3.5 -3.5,-3.5 -3.33333,0 -3.5,0.16667 -3.5,3.5 0,3.33333 0.16667,3.5 3.5,3.5 3.33333,0 3.5,-0.16667 3.5,-3.5 z m -230,-20 c 0,-3.33333 -0.16667,-3.5 -3.5,-3.5 -3.33333,0 -3.5,0.16667 -3.5,3.5 0,3.33333 0.16667,3.5 3.5,3.5 3.33333,0 3.5,-0.16667 3.5,-3.5 z m 210,0 c 0,-3.33333 -0.16667,-3.5 -3.5,-3.5 -3.33333,0 -3.5,0.16667 -3.5,3.5 0,3.33333 0.16667,3.5 3.5,3.5 3.33333,0 3.5,-0.16667 3.5,-3.5 z m -190,-20 c 0,-3.333333 -0.16667,-3.5 -3.5,-3.5 -3.33333,0 -3.5,0.166667 -3.5,3.5 0,3.333333 0.16667,3.5 3.5,3.5 3.33333,0 3.5,-0.166667 3.5,-3.5 z m 50,-5 V 78 h -8.5 -8.5 v 8.5 8.5 h 8.5 8.5 z m 10,4.106989 C 485,85.751575 485.88224,85 491.58179,85 494.954,85 495,84.940885 495,80.606989 495,75.751575 495.88224,75 501.58179,75 504.82165,75 505,74.817382 505,71.5 V 68 h -8.5 -8.5 v 4 c 0,2.888889 -0.41667,4 -1.5,4 -1.08333,0 -1.5,-1.111111 -1.5,-4 v -4 h -8.5 -8.5 v 3.445209 c 0,3.400629 0.0615,3.449152 4.75,3.75 L 477.5,75.5 l 0.28621,9.75 0.28621,9.75 h 3.46379 C 484.96228,95 485,94.952158 485,90.606989 Z M 505,91.5 c 0,-3.333333 -0.16667,-3.5 -3.5,-3.5 -3.33333,0 -3.5,0.166667 -3.5,3.5 0,3.333333 0.16667,3.5 3.5,3.5 3.33333,0 3.5,-0.166667 3.5,-3.5 z m 10,0 c 0,-3.333333 -0.16667,-3.5 -3.5,-3.5 -3.33333,0 -3.5,0.166667 -3.5,3.5 0,3.333333 0.16667,3.5 3.5,3.5 3.33333,0 3.5,-0.166667 3.5,-3.5 z m 20,-5.893011 C 535,75.263784 535.16368,75 541.58179,75 544.82165,75 545,74.817382 545,71.5 V 68 h -8.5 -8.5 v 4 c 0,2.888889 -0.41667,4 -1.5,4 -1.08333,0 -1.5,-1.111111 -1.5,-4 v -4 h -8.5 -8.5 v 3.445209 c 0,3.400629 0.0615,3.449152 4.75,3.75 L 517.5,75.5 l 0.30264,4.697359 0.30264,4.697358 4.69736,0.302642 L 527.5,85.5 l 0.30479,4.75 c 0.30085,4.688537 0.34937,4.75 3.75,4.75 H 535 Z M 555,86.5 V 78 h -8.5 -8.5 v 8.5 8.5 h 8.5 8.5 z m 40,5 c 0,-3.333333 -0.16667,-3.5 -3.5,-3.5 -3.33333,0 -3.5,0.166667 -3.5,3.5 0,3.333333 0.16667,3.5 3.5,3.5 3.33333,0 3.5,-0.166667 3.5,-3.5 z m -80,-10 V 78 h -8.5 -8.5 v 3.5 3.5 h 8.5 8.5 z"
       id="path24"
       inkscape:connector-curvature="0" />
    <path
       style="fill:#333333;fill-opacity:1"
       d="M 426.66667,527.33333 C 426.3,526.96667 426,524.74132 426,522.38812 v -4.27854 l -4.75,-0.30479 -4.75,-0.30479 -0.30264,-4.69736 -0.30264,-4.69736 -4.69736,-0.30264 L 406.5,507.5 l -0.30264,-4.69736 -0.30264,-4.69736 -4.69736,-0.30264 L 396.5,497.5 l -0.30264,-4.69736 -0.30264,-4.69736 -4.69736,-0.30264 L 386.5,487.5 l -0.30264,-4.69736 -0.30264,-4.69736 -4.69736,-0.30264 L 376.5,477.5 376.19521,472.75 375.89042,468 H 372.027 C 365.85032,468 365,467.32151 365,462.39301 365,458.05911 364.954,458 361.58179,458 355.88224,458 355,457.24842 355,452.39301 355,448.05911 354.954,448 351.58179,448 345.88224,448 345,447.24842 345,442.39301 345,438.05911 344.954,438 341.58179,438 335.88224,438 335,437.24842 335,432.39301 335,428.05911 334.954,428 331.58179,428 325.88224,428 325,427.24842 325,422.39301 325,418.05911 324.954,418 321.58179,418 315.88224,418 315,417.24842 315,412.39301 315,408.05911 314.954,408 311.58179,408 305.88224,408 305,407.24842 305,402.39301 305,398.05911 304.954,398 301.58179,398 295.88224,398 295,397.24842 295,392.39301 295,388.05911 294.954,388 291.58179,388 285.88224,388 285,387.24842 285,382.39301 285,378.05911 284.954,378 281.58179,378 274.39592,378 275,385.40469 275,297.32158 275,209.5804 274.57678,215 281.42857,215 284.85714,215 285,214.85714 285,211.42857 285,206.90289 286.90289,205 291.42857,205 294.85714,205 295,204.85714 295,201.42857 295,196.90289 296.90289,195 301.42857,195 304.85714,195 305,194.85714 305,191.42857 305,186.90289 306.90289,185 311.42857,185 314.85714,185 315,184.85714 315,181.42857 315,176.90289 316.90289,175 321.42857,175 324.85714,175 325,174.85714 325,171.42857 325,166.90289 326.90289,165 331.42857,165 334.85714,165 335,164.85714 335,161.42857 335,156.90289 336.90289,155 341.42857,155 344.85714,155 345,154.85714 345,151.42857 345,146.90289 346.90289,145 351.42857,145 354.98182,145 355,144.97764 355,140.60699 355,135.75158 355.88224,135 361.58179,135 364.954,135 365,134.94089 365,130.60699 365,125.75158 365.88224,125 371.58179,125 374.954,125 375,124.94089 375,120.60699 375,115.75158 375.88224,115 381.58179,115 384.954,115 385,114.94089 385,110.60699 385,105.75158 385.88224,105 391.58179,105 394.954,105 395,104.94089 395,100.60699 395,95.751575 395.88224,95 401.58179,95 404.954,95 405,94.940885 405,90.606989 405,85.751575 405.88224,85 411.58179,85 414.954,85 415,84.940885 415,80.606989 415,75.751575 415.88224,75 421.58179,75 424.96418,75 425,74.953047 425,70.519052 c 0,-3.818957 0.3324,-4.561365 2.25,-5.025285 1.2375,-0.299386 37.8,-0.420459 81.25,-0.269052 l 79,0.275285 0.30264,4.697359 0.30264,4.697358 4.69736,0.302642 L 597.5,75.5 l 0.30264,4.697359 0.30264,4.697358 4.69736,0.302642 L 607.5,85.5 l 0.30264,4.697359 0.30264,4.697358 4.69736,0.302642 L 617.5,95.5 l 0.30264,4.69736 0.30264,4.69736 4.69736,0.30264 4.69736,0.30264 0.30264,4.69736 0.30264,4.69736 4.69736,0.30264 4.69736,0.30264 0.30264,4.69736 0.30264,4.69736 4.69736,0.30264 4.69736,0.30264 0.30264,4.69736 0.30264,4.69736 4.69736,0.30264 4.69736,0.30264 0.30479,4.75 0.30479,4.75 h 3.86342 c 6.17668,0 7.027,0.67849 7.027,5.60699 0,4.3339 0.046,4.39301 3.41821,4.39301 5.69955,0 6.58179,0.75158 6.58179,5.60699 0,4.3339 0.046,4.39301 3.41821,4.39301 5.69955,0 6.58179,0.75158 6.58179,5.60699 0,4.3339 0.046,4.39301 3.41821,4.39301 5.69955,0 6.58179,0.75158 6.58179,5.60699 0,4.3339 0.046,4.39301 3.41821,4.39301 5.69955,0 6.58179,0.75158 6.58179,5.60699 0,4.3339 0.046,4.39301 3.41821,4.39301 5.69955,0 6.58179,0.75158 6.58179,5.60699 0,4.3339 0.046,4.39301 3.41821,4.39301 5.69955,0 6.58179,0.75158 6.58179,5.60699 0,4.3339 0.046,4.39301 3.41821,4.39301 C 739.60408,215 739,207.59531 739,295.67842 739,383.4196 739.42322,378 732.57143,378 729.14286,378 729,378.14286 729,381.57143 729,386.09711 727.09711,388 722.57143,388 719.14286,388 719,388.14286 719,391.57143 719,396.09711 717.09711,398 712.57143,398 709.14286,398 709,398.14286 709,401.57143 709,406.09711 707.09711,408 702.57143,408 699.14286,408 699,408.14286 699,411.57143 699,416.09711 697.09711,418 692.57143,418 689.14286,418 689,418.14286 689,421.57143 689,426.09711 687.09711,428 682.57143,428 679.14286,428 679,428.14286 679,431.57143 679,436.09711 677.09711,438 672.57143,438 669.14286,438 669,438.14286 669,441.57143 669,446.09711 667.09711,448 662.57143,448 659.14286,448 659,448.14286 659,451.57143 659,456.09711 657.09711,458 652.57143,458 649.14286,458 649,458.14286 649,461.57143 649,466.09711 647.09711,468 642.57143,468 639.14286,468 639,468.14286 639,471.57143 639,476.09711 637.09711,478 632.57143,478 629.01818,478 629,478.02236 629,482.39301 629,487.24842 628.11776,488 622.41821,488 619.046,488 619,488.05911 619,492.39301 619,497.24842 618.11776,498 612.41821,498 609.046,498 609,498.05911 609,502.39301 609,507.24842 608.11776,508 602.41821,508 599.046,508 599,508.05911 599,512.39301 599,517.24842 598.11776,518 592.41821,518 589.046,518 589,518.05911 589,522.39301 c 0,3.08336 -0.47156,4.57397 -1.58179,5 -2.16759,0.83178 -159.91865,0.77322 -160.75154,-0.0597 z M 446,521 c 0,-2.88889 0.41667,-4 1.5,-4 1.08333,0 1.5,1.11111 1.5,4 v 4 h 8.5 8.5 v -3.44521 c 0,-3.40063 -0.0615,-3.44915 -4.75,-3.75 L 456.5,517.5 l -0.29407,-9 C 455.74662,494.4431 455.32118,495 466.51905,495 H 476 v -18.41821 c 0,-10.13002 0.27314,-19.13002 0.60699,-20 0.42603,-1.11023 1.91664,-1.58179 5,-1.58179 C 485.94089,455 486,454.954 486,451.58179 486,444.74322 485.19324,445 506.67842,445 528.3612,445 529,445.18397 529,451.42857 529,454.85714 529.14286,455 532.57143,455 538.78288,455 539,455.72374 539,476.42857 V 495 h 8.57143 C 558.78339,495 559,495.23353 559,507.32158 559,517.74356 558.84194,518 552.41821,518 549.17835,518 549,518.18262 549,521.5 v 3.5 h 8.5 8.5 v -4 c 0,-2.88889 0.41667,-4 1.5,-4 1.08333,0 1.5,1.11111 1.5,4 v 4 h 8.5 8.5 v -3.41821 C 586,515.88224 586.75158,515 591.60699,515 595.9476,515 596,514.9589 596,511.55479 c 0,-3.40063 -0.0615,-3.44915 -4.75,-3.75 -4.74071,-0.30419 -4.75063,-0.31243 -5.06959,-4.20947 -0.59253,-7.2395 0.26085,-8.59532 5.41007,-8.59532 5.51005,0 7.40952,1.648 7.40952,6.42857 0,3.41497 0.15333,3.57143 3.5,3.57143 3.31738,0 3.5,-0.17835 3.5,-3.41821 C 606,495.88224 606.75158,495 611.60699,495 615.95447,495 616,494.964 616,491.52673 v -3.47326 L 601.25,487.77673 586.5,487.5 l -0.30264,-4.69736 -0.30264,-4.69736 -4.69736,-0.30264 L 576.5,477.5 l -0.29407,-9 C 575.78787,455.70568 576.0626,455 581.46155,455 h 4.42345 l 0.3075,-4.25 c 0.16913,-2.3375 0.15151,-6.13962 -0.0391,-8.44916 l -0.34665,-4.19915 -4.65335,-0.30085 L 576.5,437.5 l -0.30264,-4.69736 -0.30264,-4.69736 -4.69736,-0.30264 L 566.5,427.5 l -0.30264,-4.69736 -0.30264,-4.69736 -4.69736,-0.30264 L 556.5,417.5 l -0.28398,-19 c -0.15618,-10.45 -0.0351,-20.0125 0.26905,-21.25 0.46975,-1.91114 1.21963,-2.25 4.97919,-2.25 h 4.42616 l 0.30479,-4.75 0.30479,-4.75 4.69736,-0.30264 4.69736,-0.30264 0.30264,-4.69736 L 576.5,355.5 l 4.69736,-0.30264 4.69736,-0.30264 0.30264,-4.69736 L 586.5,345.5 l 19,-0.28398 c 10.45,-0.15618 20.0125,-0.0351 21.25,0.26905 1.9163,0.47101 2.25,1.2176 2.25,5.03398 0,4.434 0.0358,4.48095 3.41821,4.48095 5.69955,0 6.58179,0.75158 6.58179,5.60699 0,4.3339 0.046,4.39301 3.41821,4.39301 5.69955,0 6.58179,0.75158 6.58179,5.60699 V 375 h 8.44521 8.44521 l 0.30479,-4.75 0.30479,-4.75 9,-0.29407 c 12.82017,-0.4189 13.5,-0.15134 13.5,5.31312 0,4.434 0.0358,4.48095 3.41821,4.48095 C 699.11024,375 699,374.7386 699,390.60699 V 405 h 3.44521 c 3.40063,0 3.44915,-0.0615 3.75,-4.75 l 0.30479,-4.75 4.75,-0.30479 c 4.68854,-0.30085 4.75,-0.34937 4.75,-3.75 C 716,388.03084 715.9599,388 711.51905,388 c -5.07001,0 -5.92895,-1.38291 -5.33864,-8.59532 0.30726,-3.75405 0.47022,-3.91701 4.22427,-4.22427 7.21241,-0.59031 8.59532,0.26863 8.59532,5.33864 0,4.44084 0.0308,4.48095 3.44521,4.48095 3.40063,0 3.44915,-0.0615 3.75,-4.75 l 0.30479,-4.75 4.75,-0.30479 4.75,-0.30479 V 366.44521 358 h -4.5 c -3.33333,0 -4.5,-0.38889 -4.5,-1.5 0,-1.11111 1.16667,-1.5 4.5,-1.5 h 4.5 v -8.5 -8.5 h -3.5 c -3.34667,0 -3.5,0.15646 -3.5,3.57143 0,5.62386 -1.54238,6.42857 -12.32158,6.42857 -7.70784,0 -9.5771,-0.29358 -10.07143,-1.58179 -0.33385,-0.86998 -0.60699,-5.36998 -0.60699,-10 V 328 H 686.60699 C 665.20098,328 666,328.25521 666,321.41821 666,318.03582 665.95305,318 661.51905,318 c -3.81638,0 -4.56297,-0.3337 -5.03398,-2.25 -0.30416,-1.2375 -0.42523,-10.8 -0.26905,-21.25 l 0.28398,-19 4.69736,-0.30264 4.69736,-0.30264 0.30264,-4.69736 L 666.5,265.5 l 19.71404,-0.27102 19.71404,-0.27102 0.28596,-9.72898 L 706.5,245.5 l 9,-0.29407 c 12.82017,-0.4189 13.5,-0.15134 13.5,5.31312 0,4.45442 0.0207,4.48095 3.5,4.48095 h 3.5 v -8.5 -8.5 h -4.5 c -3.33333,0 -4.5,-0.38889 -4.5,-1.5 0,-1.11111 1.16667,-1.5 4.5,-1.5 h 4.5 v -8.5 -8.5 h -4.39301 C 726.75158,218 726,217.11776 726,211.41821 726,208.17835 725.81738,208 722.5,208 c -3.34667,0 -3.5,0.15646 -3.5,3.57143 0,4.78057 -1.89947,6.42857 -7.40952,6.42857 -5.14922,0 -6.0026,-1.35582 -5.41007,-8.59532 0.31896,-3.89704 0.32888,-3.90528 5.06959,-4.20947 4.68854,-0.30085 4.75,-0.34937 4.75,-3.75 C 716,198.0411 715.9476,198 711.60699,198 706.75158,198 706,197.11776 706,191.41821 706,188.17835 705.81738,188 702.5,188 H 699 v 13.57143 C 699,216.81288 698.53548,218 692.57143,218 689.14286,218 689,218.14286 689,221.57143 689,227.19529 687.45762,228 676.67842,228 666.25644,228 666,227.84194 666,221.41821 V 218 h -8.5 -8.5 v 3.57143 C 649,226.09711 647.09711,228 642.57143,228 639.14286,228 639,228.14286 639,231.57143 639,236.09711 637.09711,238 632.57143,238 629.14286,238 629,238.14286 629,241.57143 629,247.81603 628.3612,248 606.67842,248 585.19324,248 586,248.25678 586,241.41821 586,238.046 585.94089,238 581.60699,238 576.75158,238 576,237.11776 576,231.41821 576,228.08697 575.89641,228 571.92857,228 566.91603,228 565,226.22224 565,221.57143 565,218.14286 564.85714,218 561.42857,218 555.18397,218 555,217.3612 555,195.67842 555,174.19324 554.74322,175 561.58179,175 564.954,175 565,174.94089 565,170.60699 565,165.67849 565.85032,165 572.027,165 h 3.86342 l 0.30479,-4.75 0.30479,-4.75 4.75,-0.30479 c 5.3705,-0.34461 5.25796,-0.0419 4.10754,-11.04852 L 584.71509,138 h -3.42897 C 575.81423,138 575,136.40401 575,125.67842 575,115.25644 575.15806,115 581.58179,115 584.954,115 585,114.94089 585,110.60699 c 0,-3.08336 0.47156,-4.57397 1.58179,-5 0.86998,-0.33385 7.61998,-0.60699 15,-0.60699 H 615 v -3.5 C 615,98.153333 614.84354,98 611.42857,98 606.90289,98 605,96.097109 605,91.571429 605,88.156463 604.84667,88 601.5,88 598.18262,88 598,88.178351 598,91.418213 598,97.136235 597.25479,98 592.32158,98 586.65621,98 585,96.343794 585,90.678417 585,85.745211 585.86377,85 591.58179,85 594.82165,85 595,84.817382 595,81.5 595,78.153333 594.84354,78 591.42857,78 586.90289,78 585,76.097109 585,71.571429 V 68 h -8.5 -8.5 v 4 c 0,2.888889 -0.41667,4 -1.5,4 -1.08333,0 -1.5,-1.111111 -1.5,-4 v -4 h -8.5 -8.5 v 3.445209 c 0,3.400629 0.0615,3.449152 4.75,3.75 L 557.5,75.5 l 0.29407,9 C 558.25338,98.556904 558.67882,98 547.48095,98 H 538 v 18.41821 c 0,10.13002 -0.27314,19.13002 -0.60699,20 -0.42603,1.11023 -1.91664,1.58179 -5,1.58179 C 528.05911,138 528,138.046 528,141.41821 528,148.25678 528.80676,148 507.32158,148 485.6388,148 485,147.81603 485,141.57143 485,138.14286 484.85714,138 481.42857,138 475.21712,138 475,137.27626 475,116.57143 V 98 h -8.57143 C 455.21661,98 455,97.766468 455,85.678417 455,75.256438 455.15806,75 461.58179,75 464.82165,75 465,74.817382 465,71.5 V 68 h -8.5 -8.5 v 4 c 0,2.888889 -0.41667,4 -1.5,4 -1.08333,0 -1.5,-1.111111 -1.5,-4 v -4 h -8.5 -8.5 v 3.418213 C 428,77.117761 427.24842,78 422.39301,78 418.0524,78 418,78.041096 418,81.445209 c 0,3.400629 0.0615,3.449152 4.75,3.75 4.74071,0.304195 4.75063,0.312431 5.06959,4.209468 C 428.41212,96.644181 427.55874,98 422.40952,98 416.89947,98 415,96.352005 415,91.571429 415,88.156463 414.84667,88 411.5,88 408.18262,88 408,88.178351 408,91.418213 408,97.117761 407.24842,98 402.39301,98 398.04553,98 398,98.036001 398,101.47327 v 3.47326 l 14.75,0.27674 14.75,0.27673 0.30264,4.69736 0.30264,4.69736 4.69736,0.30264 4.69736,0.30264 0.29407,9 c 0.4189,12.82017 0.15134,13.5 -5.31312,13.5 H 428 v 8.44521 8.44521 l 4.75,0.30479 4.75,0.30479 0.30264,4.69736 0.30264,4.69736 4.69736,0.30264 4.69736,0.30264 0.30264,4.69736 0.30264,4.69736 4.69736,0.30264 4.69736,0.30264 0.28398,19 c 0.15618,10.45 0.0351,20.0125 -0.26905,21.25 -0.47101,1.9163 -1.2176,2.25 -5.03398,2.25 C 448.04695,218 448,218.03582 448,221.41821 448,227.11776 447.24842,228 442.39301,228 438.05911,228 438,228.046 438,231.41821 438,237.11776 437.24842,238 432.39301,238 428.05911,238 428,238.046 428,241.41821 428,248.25678 428.80676,248 407.32158,248 385.6388,248 385,247.81603 385,241.57143 385,238.14286 384.85714,238 381.42857,238 376.90289,238 375,236.09711 375,231.57143 375,228.14286 374.85714,228 371.42857,228 366.90289,228 365,226.09711 365,221.57143 V 218 h -8.44521 -8.44521 l -0.30479,4.75 -0.30479,4.75 -9,0.29407 C 325.67983,228.21297 325,227.94541 325,222.48095 325,218.04695 324.96418,218 321.58179,218 314.88976,218 315,218.2614 315,202.39301 V 188 h -3.44521 c -3.40063,0 -3.44915,0.0615 -3.75,4.75 l -0.30479,4.75 -4.75,0.30479 c -4.68854,0.30085 -4.75,0.34937 -4.75,3.75 0,3.41437 0.0401,3.44521 4.48095,3.44521 5.07001,0 5.92895,1.38291 5.33864,8.59532 -0.30726,3.75405 -0.47022,3.91701 -4.22427,4.22427 C 296.38291,218.4099 295,217.55096 295,212.48095 295,208.04011 294.96916,208 291.55479,208 c -3.40063,0 -3.44915,0.0615 -3.75,4.75 l -0.30479,4.75 -4.75,0.30479 -4.75,0.30479 V 226.55479 235 h 4.5 c 3.33333,0 4.5,0.38889 4.5,1.5 0,1.11111 -1.16667,1.5 -4.5,1.5 H 278 v 8.5 8.5 h 3.5 c 3.34667,0 3.5,-0.15646 3.5,-3.57143 0,-5.62386 1.54238,-6.42857 12.32158,-6.42857 7.70784,0 9.5771,0.29358 10.07143,1.58179 0.33385,0.86998 0.60699,5.36998 0.60699,10 V 265 h 19.39301 C 348.79902,265 348,264.74479 348,271.58179 c 0,3.38239 0.0469,3.41821 4.48095,3.41821 3.81638,0 4.56297,0.3337 5.03398,2.25 0.30416,1.2375 0.42523,10.8 0.26905,21.25 l -0.28398,19 -4.69736,0.30264 -4.69736,0.30264 -0.30264,4.69736 L 347.5,327.5 l -19.71404,0.27102 -19.71404,0.27102 -0.28596,9.72898 L 307.5,347.5 l -9,0.29407 C 285.67983,348.21297 285,347.94541 285,342.48095 285,338.02653 284.97928,338 281.5,338 H 278 v 8.5 8.5 h 4.5 c 3.33333,0 4.5,0.38889 4.5,1.5 0,1.11111 -1.16667,1.5 -4.5,1.5 H 278 v 8.5 8.5 h 4.39301 c 4.85541,0 5.60699,0.88224 5.60699,6.58179 0,3.23986 0.18262,3.41821 3.5,3.41821 3.34667,0 3.5,-0.15646 3.5,-3.57143 C 295,376.648 296.89947,375 302.40952,375 c 5.14922,0 6.0026,1.35582 5.41007,8.59532 -0.31896,3.89704 -0.32888,3.90528 -5.06959,4.20947 -4.68854,0.30085 -4.75,0.34937 -4.75,3.75 0,3.40411 0.0524,3.44521 4.39301,3.44521 4.85541,0 5.60699,0.88224 5.60699,6.58179 0,3.23986 0.18262,3.41821 3.5,3.41821 H 315 V 391.42857 C 315,376.18712 315.46452,375 321.42857,375 324.85714,375 325,374.85714 325,371.42857 325,365.80471 326.54238,365 337.32158,365 347.74356,365 348,365.15806 348,371.58179 V 375 h 8.5 8.5 v -3.57143 C 365,366.90289 366.90289,365 371.42857,365 374.85714,365 375,364.85714 375,361.42857 375,356.90289 376.90289,355 381.42857,355 384.85714,355 385,354.85714 385,351.42857 385,345.18397 385.6388,345 407.32158,345 428.80676,345 428,344.74322 428,351.58179 428,354.954 428.05911,355 432.39301,355 437.24842,355 438,355.88224 438,361.58179 438,364.954 438.05911,365 442.39301,365 c 4.85541,0 5.60699,0.88224 5.60699,6.58179 0,3.38239 0.0469,3.41821 4.48095,3.41821 3.81638,0 4.56297,0.3337 5.03398,2.25 0.30416,1.2375 0.42523,10.8 0.26905,21.25 l -0.28398,19 -4.69736,0.30264 -4.69736,0.30264 -0.30264,4.69736 L 447.5,427.5 l -4.69736,0.30264 -4.69736,0.30264 -0.30264,4.69736 L 437.5,437.5 l -4.75,0.30479 c -5.3705,0.34461 -5.25796,0.0419 -4.10754,11.04852 L 429.28491,455 h 3.42897 C 438.18577,455 439,456.59599 439,467.32158 439,477.74356 438.84194,478 432.41821,478 429.046,478 429,478.05911 429,482.39301 c 0,3.08336 -0.47156,4.57397 -1.58179,5 -0.86998,0.33385 -7.61998,0.60699 -15,0.60699 H 399 v 3.5 c 0,3.34667 0.15646,3.5 3.57143,3.5 4.52568,0 6.42857,1.90289 6.42857,6.42857 0,3.41497 0.15333,3.57143 3.5,3.57143 3.31738,0 3.5,-0.17835 3.5,-3.41821 C 416,495.86377 416.74521,495 421.67842,495 427.34379,495 429,496.65621 429,502.32158 429,507.25479 428.13623,508 422.41821,508 419.17835,508 419,508.18262 419,511.5 c 0,3.34667 0.15646,3.5 3.57143,3.5 1.96428,0 4.21428,0.64286 5,1.42857 0.78571,0.78572 1.42857,3.03572 1.42857,5 V 525 h 8.5 8.5 z m 40,0 c 0,-2.88889 0.41667,-4 1.5,-4 1.08333,0 1.5,1.11111 1.5,4 v 4 h 8.5 8.5 v -3.44521 c 0,-3.40063 -0.0615,-3.44915 -4.75,-3.75 L 496.5,517.5 l -0.30264,-4.69736 -0.30264,-4.69736 -4.69736,-0.30264 L 486.5,507.5 l -0.30479,-4.75 c -0.30085,-4.68854 -0.34937,-4.75 -3.75,-4.75 H 479 v 9.39301 C 479,517.73622 478.83632,518 472.41821,518 469.17835,518 469,518.18262 469,521.5 v 3.5 h 8.5 8.5 z m 40,0 c 0,-2.88889 0.41667,-4 1.5,-4 1.08333,0 1.5,1.11111 1.5,4 v 4 h 8.5 8.5 v -3.44521 c 0,-3.40063 -0.0615,-3.44915 -4.75,-3.75 L 536.5,517.5 536.21379,507.75 535.92758,498 h -3.46379 C 529.03772,498 529,498.04784 529,502.39301 529,507.24842 528.11776,508 522.41821,508 519.046,508 519,508.05911 519,512.39301 519,517.24842 518.11776,518 512.41821,518 509.17835,518 509,518.18262 509,521.5 v 3.5 h 8.5 8.5 z M 476,506.5 V 498 h -8.5 -8.5 v 8.5 8.5 h 8.5 8.5 z m 40,5 V 508 h -8.5 -8.5 v 3.5 3.5 h 8.5 8.5 z m 40,-5 V 498 h -8.5 -8.5 v 8.5 8.5 h 8.5 8.5 z m -130,-5 c 0,-3.33333 -0.16667,-3.5 -3.5,-3.5 -3.33333,0 -3.5,0.16667 -3.5,3.5 0,3.33333 0.16667,3.5 3.5,3.5 3.33333,0 3.5,-0.16667 3.5,-3.5 z m 70,0.0818 C 496,495.15806 496.25644,495 506.67842,495 517.45762,495 519,495.80471 519,501.42857 c 0,3.41497 0.15333,3.57143 3.5,3.57143 3.31738,0 3.5,-0.17835 3.5,-3.41821 C 526,495.88224 526.75158,495 531.60699,495 H 536 v -8.5 -8.5 h -4.5 c -3.33333,0 -4.5,-0.38889 -4.5,-1.5 0,-1.11111 1.16667,-1.5 4.5,-1.5 h 4.5 v -8.44521 -8.44521 L 531.25,457.80479 526.5,457.5 526.19521,452.75 525.89042,448 H 517.44521 509 v 4.5 c 0,3.33333 -0.38889,4.5 -1.5,4.5 -1.11111,0 -1.5,-1.16667 -1.5,-4.5 V 448 h -8.5 -8.5 v 4.39301 C 489,457.24842 488.11776,458 482.41821,458 H 479 v 8.5 8.5 h 4 c 2.88889,0 4,0.41667 4,1.5 0,1.08333 -1.11111,1.5 -4,1.5 h -4 v 8.5 8.5 h 3.57143 c 4.52568,0 6.42857,1.90289 6.42857,6.42857 0,3.41497 0.15333,3.57143 3.5,3.57143 3.31738,0 3.5,-0.17835 3.5,-3.41821 z M 506,501.5 c 0,-3.33333 -0.16667,-3.5 -3.5,-3.5 -3.33333,0 -3.5,0.16667 -3.5,3.5 0,3.33333 0.16667,3.5 3.5,3.5 3.33333,0 3.5,-0.16667 3.5,-3.5 z m 10,0 c 0,-3.33333 -0.16667,-3.5 -3.5,-3.5 -3.33333,0 -3.5,0.16667 -3.5,3.5 0,3.33333 0.16667,3.5 3.5,3.5 3.33333,0 3.5,-0.16667 3.5,-3.5 z m 80,0 c 0,-3.33333 -0.16667,-3.5 -3.5,-3.5 -3.33333,0 -3.5,0.16667 -3.5,3.5 0,3.33333 0.16667,3.5 3.5,3.5 3.33333,0 3.5,-0.16667 3.5,-3.5 z M 396,471.58179 c 0,-7.38002 0.27314,-14.13002 0.60699,-15 0.40966,-1.06756 1.87257,-1.58179 4.5,-1.58179 C 404.88948,455 405,454.9006 405,451.5 V 448 H 381.5 358 v 3.5 c 0,3.46885 0.0391,3.5 4.39301,3.5 4.85541,0 5.60699,0.88224 5.60699,6.58179 0,3.23986 0.18262,3.41821 3.5,3.41821 3.34667,0 3.5,-0.15646 3.5,-3.57143 C 375,456.648 376.89947,455 382.40952,455 c 5.14922,0 6.0026,1.35582 5.41007,8.59532 -0.3127,3.8205 -0.41121,3.91131 -4.56959,4.21218 -4.11741,0.2979 -4.25,0.4149 -4.25,3.75 0,3.28073 0.16782,3.4425 3.57143,3.4425 4.52568,0 6.42857,1.90289 6.42857,6.42857 0,3.41497 0.15333,3.57143 3.5,3.57143 H 396 Z M 406,481.5 c 0,-3.33333 -0.16667,-3.5 -3.5,-3.5 -3.33333,0 -3.5,0.16667 -3.5,3.5 0,3.33333 0.16667,3.5 3.5,3.5 3.33333,0 3.5,-0.16667 3.5,-3.5 z m 20,0.0818 C 426,475.88224 426.75158,475 431.60699,475 H 436 v -8.44521 -8.44521 L 431.25,457.80479 426.5,457.5 426.19521,452.75 425.89042,448 H 417 408.10958 l -0.30479,4.75 -0.30479,4.75 -4.25,0.3075 -4.25,0.3075 V 466.5575 475 h 3.57143 C 407.09711,475 409,476.90289 409,481.42857 V 485 h 8.5 8.5 v -3.41821 z m 180,0 C 606,475.88224 606.75158,475 611.60699,475 H 616 v -8.44521 -8.44521 L 611.25,457.80479 606.5,457.5 606.19521,452.75 605.89042,448 H 597.44521 589 v 4.39301 C 589,457.24842 588.11776,458 582.41821,458 H 579 v 8.5 8.5 h 3.57143 C 587.09711,475 589,476.90289 589,481.42857 V 485 h 8.5 8.5 v -3.41821 z M 616,481.5 c 0,-3.33333 -0.16667,-3.5 -3.5,-3.5 -3.33333,0 -3.5,0.16667 -3.5,3.5 0,3.33333 0.16667,3.5 3.5,3.5 3.33333,0 3.5,-0.16667 3.5,-3.5 z m 10,0.0818 C 626,475.88224 626.75158,475 631.60699,475 635.9476,475 636,474.9589 636,471.55479 c 0,-3.40063 -0.0615,-3.44915 -4.75,-3.75 -4.74071,-0.30419 -4.75063,-0.31243 -5.06959,-4.20947 C 625.5927,456.41465 626.45789,455 631.43726,455 638.18933,455 639,455.60103 639,460.60699 639,464.9476 639.0411,465 642.44521,465 c 3.40063,0 3.44915,-0.0615 3.75,-4.75 l 0.30479,-4.75 4.75,-0.30479 c 4.68854,-0.30085 4.75,-0.34937 4.75,-3.75 V 448 H 632.5 609 v 3.5 c 0,3.34667 0.15646,3.5 3.57143,3.5 5.96405,0 6.42857,1.18712 6.42857,16.42857 V 485 h 3.5 c 3.31738,0 3.5,-0.17835 3.5,-3.41821 z M 385,461.5 c 0,-3.33333 -0.16667,-3.5 -3.5,-3.5 -3.33333,0 -3.5,0.16667 -3.5,3.5 0,3.33333 0.16667,3.5 3.5,3.5 3.33333,0 3.5,-0.16667 3.5,-3.5 z m 251,0 c 0,-3.33333 -0.16667,-3.5 -3.5,-3.5 -3.33333,0 -3.5,0.16667 -3.5,3.5 0,3.33333 0.16667,3.5 3.5,3.5 3.33333,0 3.5,-0.16667 3.5,-3.5 z m -281,-40 V 398 h -3.44521 c -3.40063,0 -3.44915,0.0615 -3.75,4.75 L 347.5,407.5 332.75,407.77673 318,408.05347 v 3.47326 c 0,3.43727 0.0455,3.47327 4.39301,3.47327 4.85541,0 5.60699,0.88224 5.60699,6.58179 0,3.23986 0.18262,3.41821 3.5,3.41821 3.34667,0 3.5,-0.15646 3.5,-3.57143 C 335,416.648 336.89947,415 342.40952,415 c 5.14922,0 6.0026,1.35582 5.41007,8.59532 -0.31896,3.89704 -0.32888,3.90528 -5.06959,4.20947 -4.68854,0.30085 -4.75,0.34937 -4.75,3.75 0,3.40411 0.0524,3.44521 4.39301,3.44521 4.85541,0 5.60699,0.88224 5.60699,6.58179 0,3.23986 0.18262,3.41821 3.5,3.41821 h 3.5 z m 10,20 c 0,-3.33333 -0.16667,-3.5 -3.5,-3.5 -3.33333,0 -3.5,0.16667 -3.5,3.5 0,3.33333 0.16667,3.5 3.5,3.5 3.33333,0 3.5,-0.16667 3.5,-3.5 z m 20,0 c 0,-3.31738 -0.17835,-3.5 -3.41821,-3.5 C 375.88224,438 375,437.24842 375,432.39301 375,428.05911 374.954,428 371.58179,428 365.88224,428 365,427.24842 365,422.39301 365,418.03909 364.96885,418 361.5,418 H 358 v 8.5 8.5 h 4.39301 C 367.24842,435 368,435.88224 368,441.58179 V 445 h 8.5 8.5 z m 20,-0.5 c 0,-2.88889 0.41667,-4 1.5,-4 1.08333,0 1.5,1.11111 1.5,4 v 4 h 8.5 8.5 v -3.57143 C 425,436.90289 426.90289,435 431.42857,435 434.84354,435 435,434.84667 435,431.5 435,428.18262 434.82165,428 431.58179,428 425.86377,428 425,427.25479 425,422.32158 425,416.65621 426.65621,415 432.32158,415 c 4.93321,0 5.67842,0.86377 5.67842,6.58179 0,3.23986 0.18262,3.41821 3.5,3.41821 3.34667,0 3.5,-0.15646 3.5,-3.57143 C 445,416.90289 446.90289,415 451.42857,415 H 455 v -8.5 -8.5 h -4 c -2.88889,0 -4,-0.41667 -4,-1.5 0,-1.08333 1.11111,-1.5 4,-1.5 h 4 v -8.5 -8.5 h -3.41821 C 445.88224,378 445,377.24842 445,372.39301 445,368.0524 444.9589,368 441.55479,368 c -3.40063,0 -3.44915,0.0615 -3.75,4.75 -0.30419,4.74071 -0.31243,4.75063 -4.20947,5.06959 C 426.35582,378.41212 425,377.55874 425,372.40952 425,366.89947 426.648,365 431.42857,365 434.84354,365 435,364.84667 435,361.5 435,358.18262 434.82165,358 431.58179,358 425.88224,358 425,357.24842 425,352.39301 V 348 h -8.5 -8.5 v 4.5 c 0,3.33333 -0.38889,4.5 -1.5,4.5 -1.11111,0 -1.5,-1.16667 -1.5,-4.5 V 348 h -8.44521 -8.44521 l -0.30479,4.75 -0.30479,4.75 -4.75,0.30479 c -4.68854,0.30085 -4.75,0.34937 -4.75,3.75 0,3.41437 0.0401,3.44521 4.48095,3.44521 5.07001,0 5.92895,1.38291 5.33864,8.59532 -0.30726,3.75405 -0.47022,3.91701 -4.22427,4.22427 C 376.38291,378.4099 375,377.55096 375,372.48095 375,368.04011 374.96916,368 371.55479,368 c -3.40063,0 -3.44915,0.0615 -3.75,4.75 l -0.30479,4.75 -4.75,0.30479 -4.75,0.30479 V 386.55479 395 h 4.5 c 3.33333,0 4.5,0.38889 4.5,1.5 0,1.11111 -1.16667,1.5 -4.5,1.5 H 358 v 8.5 8.5 h 3.5 c 3.34667,0 3.5,-0.15646 3.5,-3.57143 C 365,405.80471 366.54238,405 377.32158,405 387.74356,405 388,405.15806 388,411.58179 c 0,3.38239 0.0469,3.41821 4.48095,3.41821 5.46446,0 5.73202,0.67983 5.31312,13.5 l -0.29407,9 -4.75,0.30479 c -4.68854,0.30085 -4.75,0.34937 -4.75,3.75 V 445 h 8.5 8.5 z m 201,-0.5 c 0,-3.33333 0.38889,-4.5 1.5,-4.5 1.11111,0 1.5,1.16667 1.5,4.5 v 4.5 h 8.5 8.5 v -3.5 c 0,-3.47928 -0.0265,-3.5 -4.48095,-3.5 -5.46446,0 -5.73202,-0.67983 -5.31312,-13.5 l 0.29407,-9 4.69736,-0.30264 4.69736,-0.30264 0.30264,-4.69736 L 626.5,405.5 l 9,-0.29407 c 12.82017,-0.4189 13.5,-0.15134 13.5,5.31312 0,4.45442 0.0207,4.48095 3.5,4.48095 h 3.5 v -8.5 -8.5 h -4.5 c -3.33333,0 -4.5,-0.38889 -4.5,-1.5 0,-1.11111 1.16667,-1.5 4.5,-1.5 h 4.5 v -8.5 -8.5 h -4.39301 C 646.75158,378 646,377.11776 646,371.41821 646,368.17835 645.81738,368 642.5,368 c -3.34667,0 -3.5,0.15646 -3.5,3.57143 0,4.78057 -1.89947,6.42857 -7.40952,6.42857 -5.14922,0 -6.0026,-1.35582 -5.41007,-8.59532 0.31896,-3.89704 0.32888,-3.90528 5.06959,-4.20947 4.68854,-0.30085 4.75,-0.34937 4.75,-3.75 C 636,358.0411 635.9476,358 631.60699,358 626.75158,358 626,357.11776 626,351.41821 V 348 h -8.5 -8.5 v 4 c 0,2.88889 -0.41667,4 -1.5,4 -1.08333,0 -1.5,-1.11111 -1.5,-4 v -4 h -8.5 -8.5 v 3.57143 C 589,356.09711 587.09711,358 582.57143,358 579.15646,358 579,358.15333 579,361.5 c 0,3.31738 0.17835,3.5 3.41821,3.5 C 588.13623,365 589,365.74521 589,370.67842 589,376.34379 587.34379,378 581.67842,378 576.74521,378 576,377.13623 576,371.41821 576,368.17835 575.81738,368 572.5,368 c -3.34667,0 -3.5,0.15646 -3.5,3.57143 C 569,376.09711 567.09711,378 562.57143,378 H 559 v 8.5 8.5 h 4 c 2.88889,0 4,0.41667 4,1.5 0,1.08333 -1.11111,1.5 -4,1.5 h -4 v 8.5 8.5 h 3.57143 c 4.52568,0 6.42857,1.90289 6.42857,6.42857 0,3.41497 0.15333,3.57143 3.5,3.57143 3.31738,0 3.5,-0.17835 3.5,-3.41821 C 576,415.90394 576.75883,415 581.5252,415 588.20241,415 589,415.60591 589,420.67842 589,426.09533 587.32765,428 582.57143,428 579.15646,428 579,428.15333 579,431.5 c 0,3.31738 0.17835,3.5 3.41821,3.5 5.69955,0 6.58179,0.75158 6.58179,5.60699 V 445 h 8.5 8.5 z m 40.19521,-0.25 0.30479,-4.75 4.75,-0.30479 4.75,-0.30479 V 426.44521 418 h -3.5 c -3.34667,0 -3.5,0.15646 -3.5,3.57143 C 649,426.09711 647.09711,428 642.57143,428 639.14286,428 639,428.14286 639,431.57143 639,436.09711 637.09711,438 632.57143,438 629.15646,438 629,438.15333 629,441.5 v 3.5 h 8.44521 8.44521 z M 656,441.5 c 0,-3.33333 -0.16667,-3.5 -3.5,-3.5 -3.33333,0 -3.5,0.16667 -3.5,3.5 0,3.33333 0.16667,3.5 3.5,3.5 3.33333,0 3.5,-0.16667 3.5,-3.5 z m 10.19521,-1.25 0.30479,-4.75 4.75,-0.30479 c 4.68854,-0.30085 4.75,-0.34937 4.75,-3.75 C 676,428.03084 675.9599,428 671.51905,428 c -5.07001,0 -5.92895,-1.38291 -5.33864,-8.59532 0.30726,-3.75405 0.47022,-3.91701 4.22427,-4.22427 7.21241,-0.59031 8.59532,0.26863 8.59532,5.33864 0,4.44084 0.0308,4.48095 3.44521,4.48095 3.40063,0 3.44915,-0.0615 3.75,-4.75 l 0.30479,-4.75 4.75,-0.30479 c 4.68854,-0.30085 4.75,-0.34937 4.75,-3.75 V 408 H 681.60699 C 665.7386,408 666,408.11024 666,401.41821 666,398.17835 665.81738,398 662.5,398 H 659 v 23.5 23.5 h 3.44521 c 3.40063,0 3.44915,-0.0615 3.75,-4.75 z M 395,426.5 V 418 h -3.44521 c -3.40063,0 -3.44915,0.0615 -3.75,4.75 l -0.30479,4.75 -4.75,0.30479 c -4.68854,0.30085 -4.75,0.34937 -4.75,3.75 V 435 h 8.5 8.5 z m 241,5 c 0,-3.46885 -0.0391,-3.5 -4.39301,-3.5 C 626.75158,428 626,427.11776 626,421.41821 626,418.17835 625.81738,418 622.5,418 H 619 v 8.5 8.5 h 8.5 8.5 z m -291,-10 c 0,-3.33333 -0.16667,-3.5 -3.5,-3.5 -3.33333,0 -3.5,0.16667 -3.5,3.5 0,3.33333 0.16667,3.5 3.5,3.5 3.33333,0 3.5,-0.16667 3.5,-3.5 z m 30,-0.0714 C 375,416.90289 376.90289,415 381.42857,415 384.84354,415 385,414.84667 385,411.5 V 408 h -8.5 -8.5 v 8.5 8.5 h 3.5 c 3.34667,0 3.5,-0.15646 3.5,-3.57143 z m 10,0.0714 c 0,-3.33333 -0.16667,-3.5 -3.5,-3.5 -3.33333,0 -3.5,0.16667 -3.5,3.5 0,3.33333 0.16667,3.5 3.5,3.5 3.33333,0 3.5,-0.16667 3.5,-3.5 z m 50,0 c 0,-3.33333 -0.16667,-3.5 -3.5,-3.5 -3.33333,0 -3.5,0.16667 -3.5,3.5 0,3.33333 0.16667,3.5 3.5,3.5 3.33333,0 3.5,-0.16667 3.5,-3.5 z m 151,0 c 0,-3.33333 -0.16667,-3.5 -3.5,-3.5 -3.33333,0 -3.5,0.16667 -3.5,3.5 0,3.33333 0.16667,3.5 3.5,3.5 3.33333,0 3.5,-0.16667 3.5,-3.5 z m 50,0 c 0,-3.33333 -0.16667,-3.5 -3.5,-3.5 -3.33333,0 -3.5,0.16667 -3.5,3.5 0,3.33333 0.16667,3.5 3.5,3.5 3.33333,0 3.5,-0.16667 3.5,-3.5 z m 10,-5 V 408 h -8.5 -8.5 v 3.5 c 0,3.31738 0.17835,3.5 3.41821,3.5 5.69955,0 6.58179,0.75158 6.58179,5.60699 0,4.35392 0.0312,4.39301 3.5,4.39301 h 3.5 z m 30,5 c 0,-3.33333 -0.16667,-3.5 -3.5,-3.5 -3.33333,0 -3.5,0.16667 -3.5,3.5 0,3.33333 0.16667,3.5 3.5,3.5 3.33333,0 3.5,-0.16667 3.5,-3.5 z m -351,-20 c 0,-3.33333 -0.16667,-3.5 -3.5,-3.5 -3.33333,0 -3.5,0.16667 -3.5,3.5 0,3.33333 0.16667,3.5 3.5,3.5 3.33333,0 3.5,-0.16667 3.5,-3.5 z m 20,-0.0714 C 345,396.90289 346.90289,395 351.42857,395 H 355 v -8.5 -8.5 h -3.41821 C 345.88224,378 345,377.24842 345,372.39301 V 368 h -8.44521 -8.44521 l -0.30479,4.75 -0.30479,4.75 -4.75,0.30479 -4.75,0.30479 V 386.55479 395 h 4.39301 C 327.24842,395 328,395.88224 328,401.58179 V 405 h 8.5 8.5 v -3.57143 z M 686.19521,400.25 686.5,395.5 l 4.75,-0.30479 4.75,-0.30479 V 386.44521 378 h -4.39301 C 686.75158,378 686,377.11776 686,371.41821 V 368 h -8.5 -8.5 v 3.57143 C 669,376.09711 667.09711,378 662.57143,378 H 659 v 8.5 8.5 h 3.41821 C 668.11776,395 669,395.75158 669,400.60699 V 405 h 8.44521 8.44521 z M 696,401.5 c 0,-3.33333 -0.16667,-3.5 -3.5,-3.5 -3.33333,0 -3.5,0.16667 -3.5,3.5 0,3.33333 0.16667,3.5 3.5,3.5 3.33333,0 3.5,-0.16667 3.5,-3.5 z m -391,-20 c 0,-3.33333 -0.16667,-3.5 -3.5,-3.5 -3.33333,0 -3.5,0.16667 -3.5,3.5 0,3.33333 0.16667,3.5 3.5,3.5 3.33333,0 3.5,-0.16667 3.5,-3.5 z m 411,0 c 0,-3.33333 -0.16667,-3.5 -3.5,-3.5 -3.33333,0 -3.5,0.16667 -3.5,3.5 0,3.33333 0.16667,3.5 3.5,3.5 3.33333,0 3.5,-0.16667 3.5,-3.5 z m -331,-10 c 0,-3.33333 -0.16667,-3.5 -3.5,-3.5 -3.33333,0 -3.5,0.16667 -3.5,3.5 0,3.33333 0.16667,3.5 3.5,3.5 3.33333,0 3.5,-0.16667 3.5,-3.5 z m 50,0 c 0,-3.33333 -0.16667,-3.5 -3.5,-3.5 -3.33333,0 -3.5,0.16667 -3.5,3.5 0,3.33333 0.16667,3.5 3.5,3.5 3.33333,0 3.5,-0.16667 3.5,-3.5 z m 151,0 c 0,-3.33333 -0.16667,-3.5 -3.5,-3.5 -3.33333,0 -3.5,0.16667 -3.5,3.5 0,3.33333 0.16667,3.5 3.5,3.5 3.33333,0 3.5,-0.16667 3.5,-3.5 z m 50,0 c 0,-3.33333 -0.16667,-3.5 -3.5,-3.5 -3.33333,0 -3.5,0.16667 -3.5,3.5 0,3.33333 0.16667,3.5 3.5,3.5 3.33333,0 3.5,-0.16667 3.5,-3.5 z m -331,-35 V 328 h -8.5 -8.5 v 8.5 8.5 h 8.5 8.5 z m 421,0 V 328 h -8.5 -8.5 v 8.5 8.5 h 8.5 8.5 z M 285,331.42857 C 285,325.9082 286.61457,325 296.42857,325 H 305 v -3.5 c 0,-3.31738 -0.17835,-3.5 -3.41821,-3.5 C 295.88224,318 295,317.24842 295,312.39301 295,308.05911 294.954,308 291.58179,308 285.88224,308 285,307.24842 285,302.39301 285,298.03909 284.96885,298 281.5,298 H 278 v 8.5 8.5 h 4.5 c 3.33333,0 4.5,0.38889 4.5,1.5 0,1.11111 -1.16667,1.5 -4.5,1.5 H 278 v 8.5 8.5 h 3.5 c 3.34667,0 3.5,-0.15646 3.5,-3.57143 z M 736,326.5 V 318 h -4.5 c -3.33333,0 -4.5,-0.38889 -4.5,-1.5 0,-1.11111 1.16667,-1.5 4.5,-1.5 h 4.5 v -8.5 -8.5 h -3.5 c -3.34667,0 -3.5,0.15646 -3.5,3.57143 C 729,306.09711 727.09711,308 722.57143,308 719.14286,308 719,308.14286 719,311.57143 c 0,1.96428 -0.64286,4.21428 -1.42857,5 -0.78572,0.78571 -3.03572,1.42857 -5,1.42857 C 709.15646,318 709,318.15333 709,321.5 v 3.5 h 8.41821 C 728.51359,325 729,325.23548 729,330.60699 729,334.96091 729.03115,335 732.5,335 H 736 Z M 325,321 c 0,-2.88889 0.41667,-4 1.5,-4 1.08333,0 1.5,1.11111 1.5,4 v 4 h 8.5 8.5 v -3.57143 C 345,316.90289 346.90289,315 351.42857,315 H 355 v -8.5 -8.5 h -4 c -2.88889,0 -4,-0.41667 -4,-1.5 0,-1.08333 1.11111,-1.5 4,-1.5 h 4 v -8.5 -8.5 h -3.41821 C 345.88224,278 345,277.24842 345,272.39301 V 268 h -8.5 -8.5 v 4.5 c 0,3.33333 -0.38889,4.5 -1.5,4.5 -1.11111,0 -1.5,-1.16667 -1.5,-4.5 V 268 h -8.44521 -8.44521 l -0.30479,4.75 -0.30479,4.75 -4.75,0.30479 c -4.68854,0.30085 -4.75,0.34937 -4.75,3.75 0,3.41437 0.0401,3.44521 4.48095,3.44521 5.46446,0 5.73202,0.67983 5.31312,13.5 l -0.29407,9 -4.75,0.30479 c -4.68854,0.30085 -4.75,0.34937 -4.75,3.75 0,3.40411 0.0524,3.44521 4.39301,3.44521 4.85541,0 5.60699,0.88224 5.60699,6.58179 V 325 h 8.5 8.5 z m 361,-0.5 c 0,-3.33333 0.38889,-4.5 1.5,-4.5 1.11111,0 1.5,1.16667 1.5,4.5 v 4.5 h 8.44521 8.44521 l 0.30479,-4.75 0.30479,-4.75 4.75,-0.30479 c 4.68854,-0.30085 4.75,-0.34937 4.75,-3.75 C 716,308.03084 715.9599,308 711.51905,308 c -5.46446,0 -5.73202,-0.67983 -5.31312,-13.5 l 0.29407,-9 4.75,-0.30479 c 4.68854,-0.30085 4.75,-0.34937 4.75,-3.75 C 716,278.0411 715.9476,278 711.60699,278 706.75158,278 706,277.11776 706,271.41821 V 268 h -8.5 -8.5 v 4 c 0,2.88889 -0.41667,4 -1.5,4 -1.08333,0 -1.5,-1.11111 -1.5,-4 v -4 h -8.5 -8.5 v 3.57143 C 669,276.09711 667.09711,278 662.57143,278 H 659 v 8.5 8.5 h 4 c 2.88889,0 4,0.41667 4,1.5 0,1.08333 -1.11111,1.5 -4,1.5 h -4 v 8.5 8.5 h 3.41821 C 668.11776,315 669,315.75158 669,320.60699 V 325 h 8.5 8.5 z m -391,-24 V 288 h -3.5 -3.5 v 8.5 8.5 h 3.5 3.5 z m 10,5 c 0,-3.33333 -0.16667,-3.5 -3.5,-3.5 -3.33333,0 -3.5,0.16667 -3.5,3.5 0,3.33333 0.16667,3.5 3.5,3.5 3.33333,0 3.5,-0.16667 3.5,-3.5 z m 411,0 c 0,-3.33333 -0.16667,-3.5 -3.5,-3.5 -3.33333,0 -3.5,0.16667 -3.5,3.5 0,3.33333 0.16667,3.5 3.5,3.5 3.33333,0 3.5,-0.16667 3.5,-3.5 z m 10,-5 V 288 h -3.5 -3.5 v 8.5 8.5 h 3.5 3.5 z M 285,291.42857 C 285,286.90289 286.90289,285 291.42857,285 294.85714,285 295,284.85714 295,281.42857 c 0,-1.96428 0.64286,-4.21428 1.42857,-5 0.78572,-0.78571 3.03572,-1.42857 5,-1.42857 C 304.84354,275 305,274.84667 305,271.5 V 268 h -8.41821 C 285.48641,268 285,267.76452 285,262.39301 285,258.03909 284.96885,258 281.5,258 H 278 v 8.5 8.5 h 4.5 c 3.33333,0 4.5,0.38889 4.5,1.5 0,1.11111 -1.16667,1.5 -4.5,1.5 H 278 v 8.5 8.5 h 3.5 c 3.34667,0 3.5,-0.15646 3.5,-3.57143 z m 20,0.0714 c 0,-3.33333 -0.16667,-3.5 -3.5,-3.5 -3.33333,0 -3.5,0.16667 -3.5,3.5 0,3.33333 0.16667,3.5 3.5,3.5 3.33333,0 3.5,-0.16667 3.5,-3.5 z m 411,0 c 0,-3.33333 -0.16667,-3.5 -3.5,-3.5 -3.33333,0 -3.5,0.16667 -3.5,3.5 0,3.33333 0.16667,3.5 3.5,3.5 3.33333,0 3.5,-0.16667 3.5,-3.5 z m 20,-5 v -8.5 h -4.5 c -3.33333,0 -4.5,-0.38889 -4.5,-1.5 0,-1.11111 1.16667,-1.5 4.5,-1.5 h 4.5 v -8.5 -8.5 h -3.5 c -3.34667,0 -3.5,0.15646 -3.5,3.57143 0,5.5204 -1.61457,6.4286 -11.42857,6.4286 H 709 v 3.5 c 0,3.31738 0.17835,3.5 3.41821,3.5 5.69955,0 6.58179,0.75158 6.58179,5.60699 0,4.3339 0.046,4.39301 3.41821,4.39301 5.69955,0 6.58179,0.75158 6.58179,5.60699 0,4.35392 0.0312,4.39301 3.5,4.39301 h 3.5 v -8.5 z m -431,-30 v -8.5 h -8.5 -8.5 v 8.5 8.5 h 8.5 8.5 z m 421,0 v -8.5 h -8.5 -8.5 v 8.5 8.5 h 8.5 8.5 z m -321,-16 c 0,-3.33333 0.38889,-4.5 1.5,-4.5 1.11111,0 1.5,1.16667 1.5,4.5 v 4.5 h 8.5 8.5 v -4.39301 C 425,235.75158 425.88224,235 431.58179,235 434.82165,235 435,234.81738 435,231.5 435,228.15333 434.84354,228 431.42857,228 426.648,228 425,226.10053 425,220.59048 c 0,-5.14922 1.35582,-6.0026 8.59532,-5.41007 3.89704,0.31896 3.90528,0.32888 4.20947,5.06959 0.30085,4.68854 0.34937,4.75 3.75,4.75 C 444.9589,225 445,224.9476 445,220.60699 445,215.75158 445.88224,215 451.58179,215 H 455 v -8.5 -8.5 h -4 c -2.88889,0 -4,-0.41667 -4,-1.5 0,-1.08333 1.11111,-1.5 4,-1.5 h 4 v -8.5 -8.5 h -3.57143 C 446.90289,178 445,176.09711 445,171.57143 445,168.15646 444.84667,168 441.5,168 c -3.31738,0 -3.5,0.17835 -3.5,3.41821 C 438,177.13623 437.25479,178 432.32158,178 426.65621,178 425,176.34379 425,170.67842 425,165.74521 425.86377,165 431.58179,165 434.82165,165 435,164.81738 435,161.5 435,158.15333 434.84354,158 431.42857,158 426.90289,158 425,156.09711 425,151.57143 V 148 h -8.5 -8.5 v 4 c 0,2.88889 -0.41667,4 -1.5,4 -1.08333,0 -1.5,-1.11111 -1.5,-4 v -4 h -8.5 -8.5 v 3.44521 c 0,3.40063 0.0615,3.44915 4.75,3.75 l 4.75,0.30479 0.29407,9 c 0.4189,12.82017 0.15134,13.5 -5.31312,13.5 C 388.04695,178 388,178.03582 388,181.41821 388,187.84194 387.74356,188 377.32158,188 366.54238,188 365,187.19529 365,181.57143 365,178.15646 364.84667,178 361.5,178 H 358 v 8.5 8.5 h 4.5 c 3.33333,0 4.5,0.38889 4.5,1.5 0,1.11111 -1.16667,1.5 -4.5,1.5 H 358 v 8.44521 8.44521 l 4.75,0.30479 4.75,0.30479 0.30479,4.75 c 0.30085,4.68854 0.34937,4.75 3.75,4.75 3.41437,0 3.44521,-0.0401 3.44521,-4.48095 0,-5.07001 1.38291,-5.92895 8.59532,-5.33864 3.75405,0.30726 3.91701,0.47022 4.22427,4.22427 C 388.4099,226.61709 387.55096,228 382.48095,228 378.04011,228 378,228.03084 378,231.44521 c 0,3.40063 0.0615,3.44915 4.75,3.75 l 4.75,0.30479 0.30479,4.75 0.30479,4.75 H 396.55479 405 v -4.5 z m 201,0 c 0,-3.33333 0.38889,-4.5 1.5,-4.5 1.11111,0 1.5,1.16667 1.5,4.5 v 4.5 h 8.44521 8.44521 l 0.30479,-4.75 0.30479,-4.75 4.75,-0.30479 c 4.68854,-0.30085 4.75,-0.34937 4.75,-3.75 0,-3.41437 -0.0401,-3.44521 -4.48095,-3.44521 -5.07001,0 -5.92895,-1.38291 -5.33864,-8.59532 0.30726,-3.75405 0.47022,-3.91701 4.22427,-4.22427 7.21241,-0.59031 8.59532,0.26863 8.59532,5.33864 0,4.44084 0.0308,4.48095 3.44521,4.48095 3.40063,0 3.44915,-0.0615 3.75,-4.75 l 0.30479,-4.75 4.75,-0.30479 4.75,-0.30479 v -8.44521 -8.44521 h -4.5 c -3.33333,0 -4.5,-0.38889 -4.5,-1.5 0,-1.11111 1.16667,-1.5 4.5,-1.5 h 4.5 v -8.5 -8.5 h -3.5 c -3.34667,0 -3.5,0.15646 -3.5,3.57143 C 649,187.19529 647.45762,188 636.67842,188 626.25644,188 626,187.84194 626,181.41821 626,178.03582 625.95305,178 621.51905,178 c -5.46446,0 -5.73202,-0.67983 -5.31312,-13.5 l 0.29407,-9 4.75,-0.30479 c 4.68854,-0.30085 4.75,-0.34937 4.75,-3.75 V 148 h -8.5 -8.5 v 4 c 0,2.88889 -0.41667,4 -1.5,4 -1.08333,0 -1.5,-1.11111 -1.5,-4 v -4 h -8.5 -8.5 v 3.57143 C 589,156.09711 587.09711,158 582.57143,158 579.15646,158 579,158.15333 579,161.5 c 0,3.38596 0.12381,3.5 3.8,3.5 4.80557,0 6.2,1.41049 6.2,6.27143 C 589,176.32627 587.17875,178 581.67842,178 576.74521,178 576,177.13623 576,171.41821 576,168.09696 575.88653,168 572,168 c -3.88653,0 -4,0.097 -4,3.41821 C 568,177.11776 567.24842,178 562.39301,178 H 558 v 8.5 8.5 h 4.5 c 3.33333,0 4.5,0.38889 4.5,1.5 0,1.11111 -1.16667,1.5 -4.5,1.5 H 558 v 8.44521 8.44521 l 4.75,0.30479 4.75,0.30479 0.30479,4.75 0.30479,4.75 H 572 h 3.89042 l 0.30479,-4.75 c 0.30419,-4.74071 0.31243,-4.75063 4.20947,-5.06959 C 587.64418,214.58788 589,215.44126 589,220.59048 589,226.10053 587.352,228 582.57143,228 579.15646,228 579,228.15333 579,231.5 c 0,3.31738 0.17835,3.5 3.41821,3.5 5.69955,0 6.58179,0.75158 6.58179,5.60699 V 245 h 8.5 8.5 v -4.5 z M 345,221.42857 C 345,216.90289 346.90289,215 351.42857,215 H 355 v -8.5 -8.5 h -3.41821 C 345.88224,198 345,197.24842 345,192.39301 V 188 h -8.44521 -8.44521 l -0.30479,4.75 -0.30479,4.75 -4.75,0.30479 -4.75,0.30479 V 206.55479 215 h 4.39301 C 327.24842,215 328,215.88224 328,221.58179 V 225 h 8.5 8.5 z m 40,0.0714 c 0,-3.33333 -0.16667,-3.5 -3.5,-3.5 -3.33333,0 -3.5,0.16667 -3.5,3.5 0,3.33333 0.16667,3.5 3.5,3.5 3.33333,0 3.5,-0.16667 3.5,-3.5 z m 50,0 c 0,-3.33333 -0.16667,-3.5 -3.5,-3.5 -3.33333,0 -3.5,0.16667 -3.5,3.5 0,3.33333 0.16667,3.5 3.5,3.5 3.33333,0 3.5,-0.16667 3.5,-3.5 z m 151,0 c 0,-3.33333 -0.16667,-3.5 -3.5,-3.5 -3.33333,0 -3.5,0.16667 -3.5,3.5 0,3.33333 0.16667,3.5 3.5,3.5 3.33333,0 3.5,-0.16667 3.5,-3.5 z m 50,0 c 0,-3.33333 -0.16667,-3.5 -3.5,-3.5 -3.33333,0 -3.5,0.16667 -3.5,3.5 0,3.33333 0.16667,3.5 3.5,3.5 3.33333,0 3.5,-0.16667 3.5,-3.5 z m 50.19521,-1.25 0.30479,-4.75 4.75,-0.30479 4.75,-0.30479 v -8.44521 -8.44521 h -4.39301 C 686.75158,198 686,197.11776 686,191.41821 V 188 h -8.5 -8.5 v 3.57143 C 669,196.09711 667.09711,198 662.57143,198 H 659 v 8.5 8.5 h 3.41821 C 668.11776,215 669,215.75158 669,220.60699 V 225 h 8.44521 8.44521 l 0.30479,-4.75 z M 305,211.5 c 0,-3.33333 -0.16667,-3.5 -3.5,-3.5 -3.33333,0 -3.5,0.16667 -3.5,3.5 0,3.33333 0.16667,3.5 3.5,3.5 3.33333,0 3.5,-0.16667 3.5,-3.5 z m 411,0 c 0,-3.33333 -0.16667,-3.5 -3.5,-3.5 -3.33333,0 -3.5,0.16667 -3.5,3.5 0,3.33333 0.16667,3.5 3.5,3.5 3.33333,0 3.5,-0.16667 3.5,-3.5 z m -391,-20 c 0,-3.33333 -0.16667,-3.5 -3.5,-3.5 -3.33333,0 -3.5,0.16667 -3.5,3.5 0,3.33333 0.16667,3.5 3.5,3.5 3.33333,0 3.5,-0.16667 3.5,-3.5 z m 30,-20 V 148 h -3.44521 c -3.40063,0 -3.44915,0.0615 -3.75,4.75 l -0.30479,4.75 -4.75,0.30479 c -4.68854,0.30085 -4.75,0.34937 -4.75,3.75 0,3.41437 0.0401,3.44521 4.48095,3.44521 5.07001,0 5.92895,1.38291 5.33864,8.59532 -0.30726,3.75405 -0.47022,3.91701 -4.22427,4.22427 C 336.38291,178.4099 335,177.55096 335,172.48095 335,168.04011 334.96916,168 331.55479,168 c -3.40063,0 -3.44915,0.0615 -3.75,4.75 l -0.30479,4.75 -4.75,0.30479 c -4.68854,0.30085 -4.75,0.34937 -4.75,3.75 V 185 h 14.39301 C 348.2614,185 348,184.88976 348,191.58179 348,194.82165 348.18262,195 351.5,195 h 3.5 z m 311.19521,18.75 0.30479,-4.75 14.75,-0.27673 14.75,-0.27674 v -3.47326 C 696,178.036 695.95447,178 691.60699,178 686.75158,178 686,177.11776 686,171.41821 686,168.17835 685.81738,168 682.5,168 c -3.34667,0 -3.5,0.15646 -3.5,3.57143 0,4.78057 -1.89947,6.42857 -7.40952,6.42857 -5.14922,0 -6.0026,-1.35582 -5.41007,-8.59532 0.31896,-3.89704 0.32888,-3.90528 5.06959,-4.20947 4.68854,-0.30085 4.75,-0.34937 4.75,-3.75 C 676,158.0411 675.9476,158 671.60699,158 666.75158,158 666,157.11776 666,151.41821 666,148.07709 665.90653,148 661.8554,148 h -4.14461 l 0.6375,6.75 c 0.35062,3.7125 0.64069,14.2875 0.6446,23.5 L 659,195 h 3.44521 c 3.40063,0 3.44915,-0.0615 3.75,-4.75 z M 696,191.5 c 0,-3.33333 -0.16667,-3.5 -3.5,-3.5 -3.33333,0 -3.5,0.16667 -3.5,3.5 0,3.33333 0.16667,3.5 3.5,3.5 3.33333,0 3.5,-0.16667 3.5,-3.5 z m -311,-10 c 0,-3.31738 -0.17835,-3.5 -3.41821,-3.5 C 375.88224,178 375,177.24842 375,172.39301 375,168.03909 374.96885,168 371.5,168 H 368 v 8.5 8.5 h 8.5 8.5 z m 261,-5 V 168 h -3.5 c -3.34667,0 -3.5,0.15646 -3.5,3.57143 C 639,176.09711 637.09711,178 632.57143,178 629.15646,178 629,178.15333 629,181.5 v 3.5 h 8.5 8.5 z m -301,-5 c 0,-3.33333 -0.16667,-3.5 -3.5,-3.5 -3.33333,0 -3.5,0.16667 -3.5,3.5 0,3.33333 0.16667,3.5 3.5,3.5 3.33333,0 3.5,-0.16667 3.5,-3.5 z m 20,-0.89301 C 365,165.75158 365.88224,165 371.58179,165 374.83467,165 375,164.82726 375,161.42857 375,156.90289 376.90289,155 381.42857,155 384.84354,155 385,154.84667 385,151.5 V 148 h -8.44521 -8.44521 l -0.30479,4.75 -0.30479,4.75 -4.75,0.30479 -4.75,0.30479 V 166.55479 175 h 3.5 c 3.46885,0 3.5,-0.0391 3.5,-4.39301 z M 385,171.5 c 0,-3.33333 -0.16667,-3.5 -3.5,-3.5 -3.33333,0 -3.5,0.16667 -3.5,3.5 0,3.33333 0.16667,3.5 3.5,3.5 3.33333,0 3.5,-0.16667 3.5,-3.5 z m 10,-5 V 158 h -8.5 -8.5 v 3.44521 c 0,3.40063 0.0615,3.44915 4.75,3.75 l 4.75,0.30479 0.30479,4.75 c 0.30085,4.68854 0.34937,4.75 3.75,4.75 H 395 Z m 40,5 c 0,-3.33333 -0.16667,-3.5 -3.5,-3.5 -3.33333,0 -3.5,0.16667 -3.5,3.5 0,3.33333 0.16667,3.5 3.5,3.5 3.33333,0 3.5,-0.16667 3.5,-3.5 z m 151,0 c 0,-3.33333 -0.16667,-3.5 -3.5,-3.5 -3.33333,0 -3.5,0.16667 -3.5,3.5 0,3.33333 0.16667,3.5 3.5,3.5 3.33333,0 3.5,-0.16667 3.5,-3.5 z m 40.19521,-1.25 0.30479,-4.75 4.75,-0.30479 c 4.68854,-0.30085 4.75,-0.34937 4.75,-3.75 V 158 h -8.5 -8.5 v 8.5 8.5 h 3.44521 c 3.40063,0 3.44915,-0.0615 3.75,-4.75 z M 636,171.5 c 0,-3.33333 -0.16667,-3.5 -3.5,-3.5 -3.33333,0 -3.5,0.16667 -3.5,3.5 0,3.33333 0.16667,3.5 3.5,3.5 3.33333,0 3.5,-0.16667 3.5,-3.5 z m 20,-5 V 158 h -4.39301 C 646.75158,158 646,157.11776 646,151.41821 V 148 h -8.5 -8.5 v 3.5 c 0,3.31738 0.17835,3.5 3.41821,3.5 5.69955,0 6.58179,0.75158 6.58179,5.60699 0,4.3339 0.046,4.39301 3.41821,4.39301 5.69955,0 6.58179,0.75158 6.58179,5.60699 0,4.35392 0.0312,4.39301 3.5,4.39301 h 3.5 z m 20,5 c 0,-3.33333 -0.16667,-3.5 -3.5,-3.5 -3.33333,0 -3.5,0.16667 -3.5,3.5 0,3.33333 0.16667,3.5 3.5,3.5 3.33333,0 3.5,-0.16667 3.5,-3.5 z m -311,-20 c 0,-3.33333 -0.16667,-3.5 -3.5,-3.5 -3.33333,0 -3.5,0.16667 -3.5,3.5 0,3.33333 0.16667,3.5 3.5,3.5 3.33333,0 3.5,-0.16667 3.5,-3.5 z m 290,0 c 0,-3.22222 -0.2381,-3.5 -3,-3.5 -2.7619,0 -3,0.27778 -3,3.5 0,3.22222 0.2381,3.5 3,3.5 2.7619,0 3,-0.27778 3,-3.5 z m -250,-10 c 0,-3.34667 -0.15646,-3.5 -3.57143,-3.5 C 395.46452,138 395,136.81288 395,121.57143 V 108 h -3.5 c -3.31738,0 -3.5,0.17835 -3.5,3.41821 C 388,117.11776 387.24842,118 382.39301,118 378.0524,118 378,118.0411 378,121.44521 c 0,3.40063 0.0615,3.44915 4.75,3.75 4.74071,0.30419 4.75063,0.31243 5.06959,4.20947 C 388.41212,136.64418 387.55874,138 382.40952,138 376.89947,138 375,136.352 375,131.57143 375,128.15646 374.84667,128 371.5,128 c -3.31738,0 -3.5,0.17835 -3.5,3.41821 C 368,137.11776 367.24842,138 362.39301,138 358.03909,138 358,138.03115 358,141.5 v 3.5 h 23.5 23.5 z m 20,-0.89301 C 425,135.75158 425.88224,135 431.58179,135 H 435 v -8.5 -8.5 h -3.57143 C 426.90289,118 425,116.09711 425,111.57143 V 108 h -8.5 -8.5 v 3.41821 C 408,117.11776 407.24842,118 402.39301,118 H 398 v 8.44521 8.44521 l 4.75,0.30479 4.75,0.30479 0.30479,4.75 0.30479,4.75 H 416.55479 425 Z M 505,140.5 c 0,-3.33333 0.38889,-4.5 1.5,-4.5 1.11111,0 1.5,1.16667 1.5,4.5 v 4.5 h 8.5 8.5 v -4.39301 C 525,135.75158 525.88224,135 531.58179,135 H 535 v -8.5 -8.5 h -4 c -2.88889,0 -4,-0.41667 -4,-1.5 0,-1.08333 1.11111,-1.5 4,-1.5 h 4 V 106.5 98 h -3.57143 C 526.90289,98 525,96.097109 525,91.571429 525,88.156463 524.84667,88 521.5,88 518.18262,88 518,88.178351 518,91.418213 518,97.841941 517.74356,98 507.32158,98 496.54238,98 495,97.195292 495,91.571429 495,88.156463 494.84667,88 491.5,88 488.18262,88 488,88.178351 488,91.418213 488,97.117761 487.24842,98 482.39301,98 H 478 v 8.5 8.5 h 4.5 c 3.33333,0 4.5,0.38889 4.5,1.5 0,1.11111 -1.16667,1.5 -4.5,1.5 H 478 v 8.44521 8.44521 l 4.75,0.30479 4.75,0.30479 0.30479,4.75 0.30479,4.75 H 496.55479 505 Z m 100,0.10699 C 605,135.75158 605.88224,135 611.58179,135 H 615 v -8.5 -8.5 h -3.57143 C 606.90289,118 605,116.09711 605,111.57143 V 108 h -8.5 -8.5 v 3.41821 C 588,117.11776 587.24842,118 582.39301,118 H 578 v 8.44521 8.44521 l 4.75,0.30479 4.75,0.30479 0.30479,4.75 0.30479,4.75 H 596.55479 605 Z M 655,141.5 c 0,-3.34667 -0.15646,-3.5 -3.57143,-3.5 C 646.90289,138 645,136.09711 645,131.57143 645,128.15646 644.84667,128 641.5,128 c -3.31738,0 -3.5,0.17835 -3.5,3.41821 C 638,137.13623 637.25479,138 632.32158,138 626.65621,138 625,136.34379 625,130.67842 625,125.74521 625.86377,125 631.58179,125 634.82165,125 635,124.81738 635,121.5 635,118.15333 634.84354,118 631.42857,118 626.90289,118 625,116.09711 625,111.57143 625,108.15646 624.84667,108 621.5,108 H 618 v 13.41821 c 0,7.38002 -0.27314,14.13002 -0.60699,15 -0.42603,1.11023 -1.91664,1.58179 -5,1.58179 C 608.03909,138 608,138.0311 608,141.5 v 3.5 h 23.5 23.5 z m -270,-10 c 0,-3.33333 -0.16667,-3.5 -3.5,-3.5 -3.33333,0 -3.5,0.16667 -3.5,3.5 0,3.33333 0.16667,3.5 3.5,3.5 3.33333,0 3.5,-0.16667 3.5,-3.5 z m 250,0 c 0,-3.33333 -0.16667,-3.5 -3.5,-3.5 -3.33333,0 -3.5,0.16667 -3.5,3.5 0,3.33333 0.16667,3.5 3.5,3.5 3.33333,0 3.5,-0.16667 3.5,-3.5 z m -230,-20 c 0,-3.33333 -0.16667,-3.5 -3.5,-3.5 -3.33333,0 -3.5,0.16667 -3.5,3.5 0,3.33333 0.16667,3.5 3.5,3.5 3.33333,0 3.5,-0.16667 3.5,-3.5 z m 210,0 c 0,-3.33333 -0.16667,-3.5 -3.5,-3.5 -3.33333,0 -3.5,0.16667 -3.5,3.5 0,3.33333 0.16667,3.5 3.5,3.5 3.33333,0 3.5,-0.16667 3.5,-3.5 z m -190,-20 c 0,-3.333333 -0.16667,-3.5 -3.5,-3.5 -3.33333,0 -3.5,0.166667 -3.5,3.5 0,3.333333 0.16667,3.5 3.5,3.5 3.33333,0 3.5,-0.166667 3.5,-3.5 z m 50,-5 V 78 h -8.5 -8.5 v 8.5 8.5 h 8.5 8.5 z m 10,4.106989 C 485,85.751575 485.88224,85 491.58179,85 494.954,85 495,84.940885 495,80.606989 495,75.751575 495.88224,75 501.58179,75 504.82165,75 505,74.817382 505,71.5 V 68 h -8.5 -8.5 v 4 c 0,2.888889 -0.41667,4 -1.5,4 -1.08333,0 -1.5,-1.111111 -1.5,-4 v -4 h -8.5 -8.5 v 3.445209 c 0,3.400629 0.0615,3.449152 4.75,3.75 L 477.5,75.5 l 0.28621,9.75 0.28621,9.75 h 3.46379 C 484.96228,95 485,94.952158 485,90.606989 Z M 505,91.5 c 0,-3.333333 -0.16667,-3.5 -3.5,-3.5 -3.33333,0 -3.5,0.166667 -3.5,3.5 0,3.333333 0.16667,3.5 3.5,3.5 3.33333,0 3.5,-0.166667 3.5,-3.5 z m 10,0 c 0,-3.333333 -0.16667,-3.5 -3.5,-3.5 -3.33333,0 -3.5,0.166667 -3.5,3.5 0,3.333333 0.16667,3.5 3.5,3.5 3.33333,0 3.5,-0.166667 3.5,-3.5 z m 20,-5.893011 C 535,75.263784 535.16368,75 541.58179,75 544.82165,75 545,74.817382 545,71.5 V 68 h -8.5 -8.5 v 4 c 0,2.888889 -0.41667,4 -1.5,4 -1.08333,0 -1.5,-1.111111 -1.5,-4 v -4 h -8.5 -8.5 v 3.445209 c 0,3.400629 0.0615,3.449152 4.75,3.75 L 517.5,75.5 l 0.30264,4.697359 0.30264,4.697358 4.69736,0.302642 L 527.5,85.5 l 0.30479,4.75 c 0.30085,4.688537 0.34937,4.75 3.75,4.75 H 535 Z M 555,86.5 V 78 h -8.5 -8.5 v 8.5 8.5 h 8.5 8.5 z m 40,5 c 0,-3.333333 -0.16667,-3.5 -3.5,-3.5 -3.33333,0 -3.5,0.166667 -3.5,3.5 0,3.333333 0.16667,3.5 3.5,3.5 3.33333,0 3.5,-0.166667 3.5,-3.5 z m -80,-10 V 78 h -8.5 -8.5 v 3.5 3.5 h 8.5 8.5 z"
       id="path22"
       inkscape:connector-curvature="0" />
  </g>
</svg>
